<svg width="30" height="30" viewBox="0 0 30 30" fill="none" xmlns="http://www.w3.org/2000/svg">
<path d="M14.9999 28.5287C22.6925 28.5287 28.9284 22.2927 28.9284 14.6001C28.9284 6.90754 22.6925 0.671509 14.9999 0.671509C7.30732 0.671509 1.07129 6.90754 1.07129 14.6001C1.07129 22.2927 7.30732 28.5287 14.9999 28.5287Z" stroke="black" stroke-linecap="round" stroke-linejoin="round"/>
<path d="M11.7856 21.0287H18.2142" stroke="black" stroke-linecap="round" stroke-linejoin="round"/>
<path d="M14.9998 21.0287V13.5287H12.8569" stroke="black" stroke-linecap="round" stroke-linejoin="round"/>
<path d="M15.0001 8.70717C14.7042 8.70717 14.4644 8.46732 14.4644 8.17146C14.4644 7.87559 14.7042 7.63574 15.0001 7.63574" stroke="black" stroke-linecap="round" stroke-linejoin="round"/>
<path d="M15 8.70717C15.2959 8.70717 15.5357 8.46732 15.5357 8.17146C15.5357 7.87559 15.2959 7.63574 15 7.63574" stroke="black" stroke-linecap="round" stroke-linejoin="round"/>
</svg>
