<svg width="20" height="21" viewBox="0 0 20 21" fill="none" xmlns="http://www.w3.org/2000/svg">
<path d="M17.7911 9.16681H12.4499C12.0369 9.16631 11.641 9.00202 11.3489 8.70998C11.0569 8.41794 10.8926 8.02198 10.8921 7.60897V2.2678C10.8926 1.85479 11.0569 1.45884 11.3489 1.1668C11.641 0.874753 12.0369 0.710463 12.4499 0.709961H17.7911C18.2041 0.710463 18.6001 0.874753 18.8921 1.1668C19.1842 1.45884 19.3484 1.85479 19.3489 2.2678V7.60897C19.3484 8.02198 19.1842 8.41794 18.8921 8.70998C18.6001 9.00202 18.2041 9.16631 17.7911 9.16681ZM12.4499 2.04525C12.3909 2.04537 12.3344 2.06885 12.2927 2.11056C12.251 2.15227 12.2275 2.20881 12.2274 2.2678V7.60897C12.2275 7.66796 12.251 7.7245 12.2927 7.76621C12.3344 7.80793 12.3909 7.83141 12.4499 7.83152H17.7911C17.8501 7.83141 17.9066 7.80793 17.9483 7.76621C17.9901 7.7245 18.0135 7.66796 18.0137 7.60897V2.2678C18.0135 2.20881 17.9901 2.15227 17.9483 2.11056C17.9066 2.06885 17.8501 2.04537 17.7911 2.04525H12.4499Z" fill="#065E4A"/>
<path d="M15.1207 20.29C14.9162 20.2904 14.7136 20.2504 14.5245 20.1722C14.3355 20.094 14.1638 19.9793 14.0193 19.8345L10.9071 16.7223C10.6154 16.4299 10.4517 16.0338 10.4517 15.6208C10.4517 15.2079 10.6154 14.8117 10.9071 14.5194L14.0193 11.4072C14.3116 11.1153 14.7077 10.9514 15.1207 10.9514C15.5338 10.9514 15.9299 11.1153 16.2222 11.4072L19.3344 14.5194C19.6262 14.8116 19.7901 15.2078 19.7901 15.6208C19.7901 16.0338 19.6262 16.43 19.3344 16.7223L16.2222 19.8345C16.0777 19.9793 15.906 20.094 15.7169 20.1722C15.5279 20.2504 15.3253 20.2904 15.1207 20.29ZM15.1207 12.2861C15.0915 12.286 15.0625 12.2917 15.0355 12.3029C15.0085 12.3141 14.984 12.3305 14.9634 12.3513L11.8512 15.4635C11.8305 15.4841 11.8141 15.5087 11.8029 15.5357C11.7917 15.5626 11.786 15.5916 11.786 15.6208C11.786 15.65 11.7917 15.679 11.8029 15.706C11.8141 15.733 11.8305 15.7575 11.8512 15.7782L14.9634 18.8904C14.984 18.911 15.0086 18.9274 15.0356 18.9386C15.0626 18.9498 15.0915 18.9556 15.1207 18.9556C15.15 18.9556 15.1789 18.9498 15.2059 18.9386C15.2329 18.9274 15.2574 18.911 15.2781 18.8904L18.3903 15.7782C18.411 15.7575 18.4274 15.733 18.4385 15.706C18.4497 15.679 18.4555 15.65 18.4555 15.6208C18.4555 15.5916 18.4497 15.5626 18.4385 15.5357C18.4274 15.5087 18.411 15.4841 18.3903 15.4635L15.2781 12.3513C15.2575 12.3305 15.2329 12.3141 15.2059 12.3029C15.1789 12.2917 15.15 12.286 15.1207 12.2861Z" fill="#CD9D35"/>
<path d="M7.10897 9.16681H1.7678C1.35479 9.16631 0.95884 9.00202 0.666796 8.70998C0.374753 8.41794 0.210463 8.02198 0.209961 7.60897V2.2678C0.210463 1.85479 0.374753 1.45884 0.666796 1.1668C0.95884 0.874753 1.35479 0.710463 1.7678 0.709961H7.10897C7.52198 0.710463 7.91794 0.874753 8.20998 1.1668C8.50202 1.45884 8.66631 1.85479 8.66681 2.2678V7.60897C8.66631 8.02198 8.50202 8.41794 8.20998 8.70998C7.91794 9.00202 7.52198 9.16631 7.10897 9.16681ZM1.7678 2.04525C1.70881 2.04537 1.65227 2.06885 1.61056 2.11056C1.56885 2.15227 1.54537 2.20881 1.54525 2.2678V7.60897C1.54537 7.66796 1.56885 7.7245 1.61056 7.76621C1.65227 7.80793 1.70881 7.83141 1.7678 7.83152H7.10897C7.16796 7.83141 7.2245 7.80793 7.26621 7.76621C7.30793 7.7245 7.33141 7.66796 7.33152 7.60897V2.2678C7.33141 2.20881 7.30793 2.15227 7.26621 2.11056C7.2245 2.06885 7.16796 2.04537 7.10897 2.04525H1.7678Z" fill="#065E4A"/>
<path d="M7.10897 19.8492H1.7678C1.35479 19.8487 0.95884 19.6844 0.666796 19.3924C0.374753 19.1003 0.210463 18.7044 0.209961 18.2913V12.9502C0.210463 12.5372 0.374753 12.1412 0.666796 11.8492C0.95884 11.5571 1.35479 11.3928 1.7678 11.3923H7.10897C7.52198 11.3928 7.91794 11.5571 8.20998 11.8492C8.50202 12.1412 8.66631 12.5372 8.66681 12.9502V18.2913C8.66631 18.7044 8.50202 19.1003 8.20998 19.3924C7.91794 19.6844 7.52198 19.8487 7.10897 19.8492ZM1.7678 12.7276C1.70881 12.7277 1.65227 12.7512 1.61056 12.7929C1.56885 12.8346 1.54537 12.8912 1.54525 12.9502V18.2913C1.54537 18.3503 1.56885 18.4069 1.61056 18.4486C1.65227 18.4903 1.70881 18.5138 1.7678 18.5139H7.10897C7.16796 18.5138 7.2245 18.4903 7.26621 18.4486C7.30793 18.4069 7.33141 18.3503 7.33152 18.2913V12.9502C7.33141 12.8912 7.30793 12.8346 7.26621 12.7929C7.2245 12.7512 7.16796 12.7277 7.10897 12.7276H1.7678Z" fill="#065E4A"/>
</svg>
