<svg width="22" height="21" viewBox="0 0 22 21" fill="none" xmlns="http://www.w3.org/2000/svg">
<rect width="21.1565" height="20.82" rx="10.41" fill="#00AD68"/>
<path d="M5.18023 9.96541L9.97228 5.17335C10.2175 4.9365 10.6083 4.9433 10.8452 5.18854C11.0762 5.42777 11.0762 5.80703 10.8452 6.04626L7.10662 9.78515L15.5394 9.78515C15.8803 9.78515 16.1567 10.0615 16.1567 10.4025C16.1567 10.7434 15.8803 11.0198 15.5394 11.0198L7.10662 11.0198L10.8452 14.7587C11.0904 14.9956 11.0972 15.3864 10.8604 15.6316C10.6235 15.8768 10.2327 15.8836 9.98745 15.6468C9.98231 15.6418 9.97725 15.6367 9.97229 15.6316L5.18023 10.8392C5.15126 10.8104 5.1253 10.7786 5.10276 10.7445C5.09319 10.73 5.0864 10.7136 5.07806 10.6988C5.06652 10.6789 5.05622 10.6583 5.0472 10.6371C5.0396 10.6169 5.03321 10.5963 5.02806 10.5753C5.02281 10.5574 5.01571 10.5401 5.01201 10.5216C4.99627 10.4418 4.99627 10.3597 5.01201 10.2799C5.01571 10.2614 5.02281 10.2444 5.02806 10.2265C5.03322 10.2056 5.03961 10.185 5.0472 10.1648C5.05622 10.1436 5.06652 10.123 5.07806 10.1031C5.0864 10.088 5.09319 10.0722 5.10276 10.0574C5.1256 10.0243 5.15155 9.99354 5.18023 9.96541Z" fill="#FAFBFA"/>
</svg>
