<svg width="9" height="9" viewBox="0 0 9 9" fill="none" xmlns="http://www.w3.org/2000/svg">
<path d="M4.13551 8.85504L0.147166 4.9917C-0.049966 4.79398 -0.0445021 4.47871 0.159372 4.28751C0.358248 4.10101 0.673717 4.10081 0.872819 4.28708L3.98463 7.30111L3.9805 0.498365C3.98033 0.223325 4.2101 0.000221029 4.49369 4.89404e-05C4.77728 -0.000123149 5.00732 0.222702 5.00749 0.497742L5.01161 7.30048L8.11976 4.28268C8.31666 4.08473 8.64173 4.07906 8.84583 4.27001C9.04993 4.46096 9.05577 4.77623 8.85887 4.97418C8.85474 4.97833 8.85054 4.98241 8.84627 4.98642L4.86236 8.8546C4.83835 8.87798 4.81196 8.89894 4.78358 8.91714C4.77151 8.92487 4.75791 8.93036 4.74559 8.93709C4.72902 8.94641 4.71188 8.95473 4.69426 8.96202C4.67747 8.96816 4.66033 8.97332 4.64292 8.97749C4.62803 8.98173 4.61365 8.98747 4.59825 8.99046C4.53189 9.0032 4.4636 9.00324 4.39722 8.99058C4.38181 8.98761 4.36769 8.98189 4.35279 8.97766C4.33537 8.97351 4.31823 8.96837 4.30143 8.96226C4.2838 8.95499 4.26665 8.94669 4.25007 8.93739C4.23748 8.93067 4.22439 8.9252 4.21206 8.91749C4.18456 8.89908 4.15892 8.87817 4.13551 8.85504Z" fill="#435363"/>
</svg>
