<svg width="12" height="11" viewBox="0 0 12 11" fill="none" xmlns="http://www.w3.org/2000/svg">
<path d="M0.180232 5.05525L4.97228 0.263197C5.21753 0.0263448 5.60834 0.0331435 5.84519 0.278385C6.07624 0.517614 6.07624 0.896879 5.84519 1.13611L2.10662 4.87499L10.5394 4.87499C10.8803 4.87499 11.1567 5.15138 11.1567 5.49232C11.1567 5.83327 10.8803 6.10966 10.5394 6.10966L2.10662 6.10966L5.8452 9.84854C6.09043 10.0854 6.09722 10.4762 5.86036 10.7215C5.6235 10.9667 5.23268 10.9735 4.98745 10.7366C4.98231 10.7316 4.97725 10.7266 4.97229 10.7215L0.180232 5.92909C0.151261 5.90021 0.125302 5.86846 0.102756 5.83433C0.0931878 5.81982 0.0863958 5.80346 0.0780626 5.78865C0.0665241 5.76872 0.0562167 5.7481 0.0471959 5.72691C0.0395971 5.70673 0.0332074 5.68612 0.0280576 5.66518C0.0228114 5.64728 0.0157113 5.62999 0.0120082 5.61147C-0.00373124 5.53168 -0.00373125 5.44958 0.0120082 5.36979C0.0157123 5.35126 0.0228114 5.33429 0.0280576 5.31639C0.0332179 5.29545 0.0396085 5.27484 0.0471959 5.25465C0.0562167 5.23346 0.066524 5.21285 0.0780625 5.19292C0.0863957 5.17779 0.0931868 5.16205 0.102756 5.14724C0.125603 5.11419 0.151546 5.08339 0.180232 5.05525Z" fill="#CD9D35"/>
</svg>
