<svg width="30" height="31" viewBox="0 0 30 31" fill="none" xmlns="http://www.w3.org/2000/svg">
<path d="M14.9961 1.58264C12.4967 1.58342 10.0443 2.26211 7.90019 3.54644C5.75605 4.83076 4.00043 6.67261 2.82029 8.87581C1.64015 11.079 1.07972 13.5611 1.19867 16.0576C1.31762 18.5541 2.11151 20.9717 3.49578 23.0526L1.17871 29.2174L8.93768 27.8143C10.806 28.7273 12.8563 29.2069 14.9358 29.2172C17.0152 29.2275 19.0702 28.7683 20.9475 27.8738C22.8247 26.9794 24.476 25.6727 25.778 24.0514C27.08 22.4299 27.9992 20.5355 28.4672 18.5093C28.935 16.4832 28.9397 14.3776 28.4805 12.3494C28.0215 10.3212 27.1106 8.42283 25.8157 6.79574C24.5207 5.16865 22.8752 3.85482 21.0019 2.95221C19.1285 2.04957 17.0755 1.58142 14.9961 1.58264Z" stroke="black" stroke-linecap="round" stroke-linejoin="round"/>
<path d="M11.8076 12.2113C11.8076 11.5807 11.9946 10.9642 12.345 10.4398C12.6954 9.91545 13.1934 9.50677 13.776 9.26544C14.3586 9.02409 14.9998 8.96094 15.6183 9.08398C16.2368 9.207 16.805 9.51069 17.2509 9.95664C17.6969 10.4026 18.0006 10.9707 18.1236 11.5893C18.2466 12.2078 18.1835 12.8489 17.9421 13.4316C17.7008 14.0142 17.2921 14.5122 16.7678 14.8626C16.2434 15.2129 15.6269 15.3999 14.9962 15.3999V17.5257" stroke="black" stroke-linecap="round" stroke-linejoin="round"/>
<path d="M15.0002 22.8403C14.7067 22.8403 14.4688 22.6022 14.4688 22.3088C14.4688 22.0153 14.7067 21.7773 15.0002 21.7773" stroke="black" stroke-linecap="round" stroke-linejoin="round"/>
<path d="M15 22.8403C15.2935 22.8403 15.5314 22.6025 15.5314 22.3089C15.5314 22.0153 15.2935 21.7775 15 21.7775" stroke="black" stroke-linecap="round" stroke-linejoin="round"/>
</svg>
