<svg width="10" height="10" viewBox="0 0 10 10" fill="none" xmlns="http://www.w3.org/2000/svg">
<path d="M0.48019 4.46021L4.34595 0.474215C4.54379 0.277202 4.85906 0.282857 5.05013 0.486847C5.23651 0.685836 5.23651 1.00131 5.05013 1.20029L2.03421 4.31027L8.83696 4.31027C9.112 4.31027 9.33496 4.54017 9.33496 4.82377C9.33496 5.10736 9.112 5.33726 8.83696 5.33726L2.03421 5.33726L5.05013 8.44724C5.24796 8.64426 5.25344 8.96933 5.06236 9.17332C4.87128 9.3773 4.55601 9.38295 4.35818 9.18593C4.35403 9.1818 4.34996 9.1776 4.34595 9.17332L0.48019 5.18706C0.45682 5.16304 0.435878 5.13663 0.417691 5.10824C0.409973 5.09618 0.404493 5.08257 0.397771 5.07024C0.388463 5.05367 0.380148 5.03652 0.37287 5.01889C0.366741 5.00211 0.361585 4.98496 0.357432 4.96755C0.353199 4.95265 0.347472 4.93828 0.344485 4.92287C0.331788 4.8565 0.331788 4.78821 0.344485 4.72184C0.347473 4.70643 0.353199 4.69231 0.357432 4.67742C0.361594 4.66001 0.366749 4.64286 0.37287 4.62607C0.380148 4.60845 0.388463 4.5913 0.39777 4.57472C0.404493 4.56214 0.409971 4.54905 0.417691 4.53672C0.436122 4.50923 0.45705 4.48361 0.48019 4.46021Z" fill="#435363"/>
</svg>
