<svg width="22" height="22" viewBox="0 0 22 22" fill="none" xmlns="http://www.w3.org/2000/svg">
<g clip-path="url(#clip0_927_2023)">
<path d="M18.7083 2.0625H17.1875V1.375C17.1875 1.19266 17.1151 1.0178 16.9861 0.888864C16.8572 0.759933 16.6823 0.6875 16.5 0.6875C16.3177 0.6875 16.1428 0.759933 16.0139 0.888864C15.8849 1.0178 15.8125 1.19266 15.8125 1.375V2.0625H11.6923V1.43963C11.6923 1.25729 11.6199 1.08242 11.4909 0.953489C11.362 0.824558 11.1871 0.752125 11.0048 0.752125C10.8225 0.752125 10.6476 0.824558 10.5187 0.953489C10.3897 1.08242 10.3173 1.25729 10.3173 1.43963V2.0625H6.1875V1.375C6.1875 1.19266 6.11507 1.0178 5.98614 0.888864C5.8572 0.759933 5.68234 0.6875 5.5 0.6875C5.31766 0.6875 5.1428 0.759933 5.01386 0.888864C4.88493 1.0178 4.8125 1.19266 4.8125 1.375V2.0625H3.29175C2.60128 2.06323 1.9393 2.33784 1.45107 2.82607C0.962837 3.31431 0.688228 3.97628 0.6875 4.66675V18.7083C0.688228 19.3987 0.962837 20.0607 1.45107 20.5489C1.9393 21.0372 2.60128 21.3118 3.29175 21.3125H18.7083C19.3987 21.3118 20.0607 21.0372 20.5489 20.5489C21.0372 20.0607 21.3118 19.3987 21.3125 18.7083V4.66675C21.3118 3.97628 21.0372 3.31431 20.5489 2.82607C20.0607 2.33784 19.3987 2.06323 18.7083 2.0625ZM3.29175 3.4375H4.8125V4.125C4.8125 4.30734 4.88493 4.4822 5.01386 4.61114C5.1428 4.74007 5.31766 4.8125 5.5 4.8125C5.68234 4.8125 5.8572 4.74007 5.98614 4.61114C6.11507 4.4822 6.1875 4.30734 6.1875 4.125V3.4375H10.3173V4.18962C10.3173 4.37196 10.3897 4.54683 10.5187 4.67576C10.6476 4.80469 10.8225 4.87712 11.0048 4.87712C11.1871 4.87712 11.362 4.80469 11.4909 4.67576C11.6199 4.54683 11.6923 4.37196 11.6923 4.18962V3.4375H15.8125V4.125C15.8125 4.30734 15.8849 4.4822 16.0139 4.61114C16.1428 4.74007 16.3177 4.8125 16.5 4.8125C16.6823 4.8125 16.8572 4.74007 16.9861 4.61114C17.1151 4.4822 17.1875 4.30734 17.1875 4.125V3.4375H18.7083C19.0342 3.43786 19.3466 3.56749 19.5771 3.79794C19.8075 4.02839 19.9371 4.34084 19.9375 4.66675V6.1875H2.0625V4.66675C2.06286 4.34084 2.19249 4.02839 2.42294 3.79794C2.65339 3.56749 2.96584 3.43786 3.29175 3.4375ZM18.7083 19.9375H3.29175C2.96584 19.9371 2.65339 19.8075 2.42294 19.5771C2.19249 19.3466 2.06286 19.0342 2.0625 18.7083V7.5625H19.9375V18.7083C19.9371 19.0342 19.8075 19.3466 19.5771 19.5771C19.3466 19.8075 19.0342 19.9371 18.7083 19.9375Z" fill="#00AD68"/>
<path d="M14.4375 13.0625H11.6875V10.3125C11.6875 10.1302 11.6151 9.9553 11.4861 9.82636C11.3572 9.69743 11.1823 9.625 11 9.625C10.8177 9.625 10.6428 9.69743 10.5139 9.82636C10.3849 9.9553 10.3125 10.1302 10.3125 10.3125V13.0625H7.5625C7.38016 13.0625 7.2053 13.1349 7.07636 13.2639C6.94743 13.3928 6.875 13.5677 6.875 13.75C6.875 13.9323 6.94743 14.1072 7.07636 14.2361C7.2053 14.3651 7.38016 14.4375 7.5625 14.4375H10.3125V17.1875C10.3125 17.3698 10.3849 17.5447 10.5139 17.6736C10.6428 17.8026 10.8177 17.875 11 17.875C11.1823 17.875 11.3572 17.8026 11.4861 17.6736C11.6151 17.5447 11.6875 17.3698 11.6875 17.1875V14.4375H14.4375C14.6198 14.4375 14.7947 14.3651 14.9236 14.2361C15.0526 14.1072 15.125 13.9323 15.125 13.75C15.125 13.5677 15.0526 13.3928 14.9236 13.2639C14.7947 13.1349 14.6198 13.0625 14.4375 13.0625Z" fill="#00AD68"/>
</g>
<defs>
<clipPath id="clip0_927_2023">
<rect width="22" height="22" fill="white"/>
</clipPath>
</defs>
</svg>
