<svg width="26" height="40" viewBox="0 0 26 40" fill="none" xmlns="http://www.w3.org/2000/svg">
<path d="M7.75 11.75C7.75 11.0859 8.29688 10.5 9 10.5C9.66406 10.5 10.25 11.0859 10.25 11.75V13H15.25V11.75C15.25 11.0859 15.7969 10.5 16.5 10.5C17.1641 10.5 17.75 11.0859 17.75 11.75V13H19.625C20.6406 13 21.5 13.8594 21.5 14.875V16.75H4V14.875C4 13.8594 4.82031 13 5.875 13H7.75V11.75ZM21.5 18V28.625C21.5 29.6797 20.6406 30.5 19.625 30.5H5.875C4.82031 30.5 4 29.6797 4 28.625V18H21.5Z" fill="#00AD68"/>
</svg>
