<svg width="50" height="50" viewBox="0 0 50 50" fill="none" xmlns="http://www.w3.org/2000/svg">
<path d="M29.4778 24.9969C29.4778 22.5296 27.4705 20.5222 25.0032 20.5222C22.5328 20.5222 20.5225 22.5296 20.5225 24.9969C20.5225 27.4673 22.5328 29.4776 25.0032 29.4776C27.4705 29.4777 29.4778 27.4673 29.4778 24.9969ZM25.0032 27.9152C23.3941 27.9152 22.0849 26.6059 22.0849 24.9969C22.0849 23.3909 23.3941 22.0848 25.0032 22.0848C26.6091 22.0848 27.9153 23.3909 27.9153 24.9969C27.9153 26.6059 26.6091 27.9152 25.0032 27.9152Z" fill="#CD9D35"/>
<path d="M27.6688 37.0002C29.0589 36.6904 30.3795 36.1403 31.5941 35.3645C31.9852 35.1155 32.0737 34.58 31.7833 34.2178C31.2317 33.5281 31.2843 32.5363 31.9031 31.9129C32.5325 31.2881 33.5289 31.2317 34.2178 31.7832C34.5818 32.0751 35.1166 31.9833 35.3645 31.594C36.1427 30.3755 36.6913 29.0542 36.9949 27.6656C37.0937 27.2145 36.7811 26.7738 36.3197 26.7226C35.4369 26.6219 34.7709 25.8834 34.7709 25.003C34.7709 24.1142 35.4377 23.3726 36.3212 23.278C36.7889 23.228 37.1017 22.7815 37.0002 22.3312C36.6905 20.9442 36.1426 19.6243 35.3721 18.4082C35.1188 18.0062 34.578 17.9351 34.2261 18.2144C33.5303 18.7668 32.5347 18.7157 31.9121 18.0962C31.2873 17.4668 31.2323 16.4681 31.7848 15.7731C32.0748 15.4093 31.9832 14.8748 31.5917 14.6271C30.3733 13.8557 29.0534 13.308 27.6687 12.9997C27.2206 12.8962 26.7717 13.2114 26.7219 13.678C26.6266 14.5622 25.8872 15.229 25.003 15.229C24.1187 15.229 23.3771 14.5629 23.278 13.6802C23.225 13.2178 22.7829 12.905 22.335 13.005C20.9457 13.3079 19.6243 13.8564 18.4058 14.6347C18.0152 14.8835 17.9261 15.4189 18.2159 15.7806C18.7682 16.4719 18.7125 17.4668 18.0899 18.0931C17.4636 18.7141 16.471 18.7683 15.7806 18.216C15.4233 17.9298 14.8856 18.0116 14.6346 18.4059C13.8603 19.6182 13.3102 20.9389 12.9996 22.3312C12.8977 22.7851 13.2142 23.2284 13.6786 23.278C14.562 23.3726 15.2281 24.1142 15.2281 25.003C15.2281 25.8834 14.5629 26.6219 13.6801 26.7226C13.2207 26.7736 12.9058 27.2123 13.0049 27.6649C13.3078 29.0535 13.8564 30.3748 14.6346 31.5941C14.883 31.9841 15.4191 32.0745 15.7813 31.784C16.4702 31.2317 17.4651 31.2866 18.0946 31.9114C18.7179 32.5339 18.7698 33.5257 18.2159 34.2178C17.9262 34.581 18.0149 35.1139 18.4058 35.3645C19.625 36.1434 20.9472 36.692 22.335 36.9948C22.7835 37.0962 23.2252 36.7803 23.278 36.3196C23.3771 35.4369 24.1187 34.7709 25.003 34.7709C25.8872 34.7709 26.6265 35.4376 26.7219 36.3219C26.7722 36.7916 27.224 37.1023 27.6688 37.0002ZM25.0031 33.2083C23.6267 33.2083 22.432 34.0552 21.9414 35.282C21.2349 35.0729 20.5506 34.7883 19.8952 34.4305C20.4162 33.2183 20.1714 31.7778 19.1978 30.805C18.2213 29.833 16.7794 29.5866 15.5685 30.1054C15.2115 29.45 14.9269 28.7657 14.7178 28.0585C15.9438 27.5679 16.7907 26.3754 16.7907 25.0029C16.7907 23.6212 15.9431 22.4264 14.7156 21.9388C14.9269 21.2308 15.2122 20.5465 15.5685 19.8942C16.7801 20.4114 18.2189 20.1688 19.1947 19.1976C20.1652 18.2211 20.4116 16.7791 19.8936 15.5683C20.5489 15.2113 21.234 14.9267 21.9413 14.7176C22.4319 15.9444 23.6266 16.7912 25.003 16.7912C26.3809 16.7912 27.5733 15.9429 28.0608 14.7153C28.7665 14.9258 29.451 15.2104 30.1062 15.5659C29.5897 16.779 29.8354 18.2225 30.8074 19.2006C31.7801 20.1664 33.2198 20.4106 34.4336 19.8941C34.7884 20.5479 35.073 21.2322 35.2843 21.9387C34.056 22.4262 33.2083 23.6211 33.2083 25.0028C33.2083 26.3753 34.0552 27.5678 35.282 28.0584C35.0722 28.7656 34.7876 29.4499 34.4305 30.1053C33.219 29.5896 31.7778 29.8352 30.7982 30.808C29.83 31.7823 29.5873 33.222 30.1054 34.4304C29.4516 34.7868 28.768 35.0728 28.0607 35.2842C27.5734 34.0559 26.3809 33.2083 25.0031 33.2083Z" fill="#00AD68"/>
<path d="M6.00194 20.5314H10.5437C10.9756 20.5314 11.3249 20.182 11.3249 19.7502C11.3249 19.3184 10.9755 18.969 10.5437 18.969H6.78326V14.9116C7.61056 14.596 8.20232 13.8019 8.20232 12.8678C8.20232 11.6547 7.21512 10.6675 6.00204 10.6675C4.78895 10.6675 3.80176 11.6547 3.80176 12.8678C3.80176 13.8019 4.39352 14.5959 5.22082 14.9115V19.7502C5.22072 20.182 5.57017 20.5314 6.00194 20.5314ZM6.00194 12.2298C6.35365 12.2298 6.63978 12.5159 6.63978 12.8677C6.63978 13.2156 6.35365 13.4986 6.00194 13.4986C5.65022 13.4986 5.36409 13.2156 5.36409 12.8677C5.36419 12.5159 5.65022 12.2298 6.00194 12.2298Z" fill="#00AD68"/>
<path d="M10.5438 31.0309C10.9757 31.0309 11.325 30.6815 11.325 30.2497C11.325 29.818 10.9756 29.4685 10.5438 29.4685H6.00204C5.57017 29.4685 5.22082 29.818 5.22082 30.2497V35.0888C4.39352 35.4053 3.80176 36.202 3.80176 37.1391C3.80176 38.3483 4.78895 39.3325 6.00204 39.3325C7.21512 39.3325 8.20232 38.3482 8.20232 37.1391C8.20232 36.2019 7.61055 35.4053 6.78326 35.0888V31.0309H10.5438ZM6.00204 37.77C5.65033 37.77 5.36419 37.487 5.36419 37.1391C5.36419 36.7873 5.65033 36.5012 6.00204 36.5012C6.35375 36.5012 6.63988 36.7873 6.63988 37.1391C6.63988 37.487 6.35375 37.77 6.00204 37.77Z" fill="#CD9D35"/>
<path d="M4.25082 25.7812H10.5438C10.9756 25.7812 11.325 25.4317 11.325 24.9999C11.325 24.5681 10.9755 24.2187 10.5438 24.2187H4.24959C3.93226 23.393 3.13626 22.8027 2.20028 22.8027C0.987196 22.8027 0 23.7899 0 25.003C0 26.213 0.987196 27.1972 2.20028 27.1972C3.1378 27.1972 3.93452 26.6067 4.25082 25.7812ZM2.20028 25.6347C1.84857 25.6347 1.56244 25.3516 1.56244 25.003C1.56244 24.6513 1.84857 24.3652 2.20028 24.3652C2.55199 24.3652 2.83812 24.6513 2.83812 25.003C2.83812 25.3516 2.55199 25.6347 2.20028 25.6347Z" fill="#CD9D35"/>
<path d="M39.4563 20.5314H43.998C44.4299 20.5314 44.7793 20.182 44.7793 19.7502V14.9116C45.6066 14.596 46.1983 13.8019 46.1983 12.8678C46.1983 11.6547 45.2111 10.6675 43.998 10.6675C42.785 10.6675 41.7978 11.6547 41.7978 12.8678C41.7978 13.8019 42.3895 14.5959 43.2168 14.9115V18.9689H39.4563C39.0244 18.9689 38.675 19.3183 38.675 19.7501C38.6749 20.182 39.0244 20.5314 39.4563 20.5314ZM43.998 12.2298C44.3498 12.2298 44.6359 12.5159 44.6359 12.8677C44.6359 13.2156 44.3498 13.4986 43.998 13.4986C43.6463 13.4986 43.3602 13.2156 43.3602 12.8677C43.3602 12.5159 43.6463 12.2298 43.998 12.2298Z" fill="#CD9D35"/>
<path d="M43.998 29.4685H39.4563C39.0244 29.4685 38.675 29.818 38.675 30.2497C38.675 30.6815 39.0245 31.0309 39.4563 31.0309H43.2168V35.0888C42.3895 35.4053 41.7978 36.202 41.7978 37.1391C41.7978 38.3483 42.785 39.3325 43.998 39.3325C45.2111 39.3325 46.1983 38.3482 46.1983 37.1391C46.1983 36.2019 45.6066 35.4053 44.7793 35.0888V30.2497C44.7793 29.818 44.4298 29.4685 43.998 29.4685ZM43.998 37.7701C43.6463 37.7701 43.3602 37.4871 43.3602 37.1392C43.3602 36.7874 43.6463 36.5013 43.998 36.5013C44.3498 36.5013 44.6359 36.7874 44.6359 37.1392C44.6358 37.4871 44.3498 37.7701 43.998 37.7701Z" fill="#00AD68"/>
<path d="M47.7998 22.8027C46.8638 22.8027 46.0679 23.3931 45.7506 24.2187H39.4563C39.0244 24.2187 38.675 24.5682 38.675 24.9999C38.675 25.4318 39.0245 25.7812 39.4563 25.7812H45.7492C46.0655 26.6067 46.8623 27.1971 47.7998 27.1971C49.0128 27.1971 50 26.2129 50 25.0029C50 23.79 49.0128 22.8027 47.7998 22.8027ZM47.7998 25.6348C47.448 25.6348 47.1619 25.3518 47.1619 25.0031C47.1619 24.6514 47.448 24.3653 47.7998 24.3653C48.1515 24.3653 48.4376 24.6514 48.4376 25.0031C48.4375 25.3518 48.1515 25.6348 47.7998 25.6348Z" fill="#CD9D35"/>
<path d="M19.7502 11.3251C20.1821 11.3251 20.5314 10.9757 20.5314 10.5439V6.00204C20.5314 5.57017 20.182 5.22082 19.7502 5.22082H14.9111C14.5945 4.39352 13.798 3.80176 12.8609 3.80176C11.6516 3.80176 10.6675 4.78895 10.6675 6.00204C10.6675 7.21512 11.6517 8.20232 12.8609 8.20232C13.798 8.20232 14.5946 7.61055 14.9111 6.78326H18.969V10.5438C18.969 10.9757 19.3185 11.3251 19.7502 11.3251ZM12.8609 6.63988C12.513 6.63988 12.2299 6.35375 12.2299 6.00204C12.2299 5.65033 12.513 5.36419 12.8609 5.36419C13.2126 5.36419 13.4987 5.65033 13.4987 6.00204C13.4987 6.35375 13.2126 6.63988 12.8609 6.63988Z" fill="#CD9D35"/>
<path d="M24.9999 11.3251C25.4318 11.3251 25.7812 10.9756 25.7812 10.5439V4.24928C26.6065 3.93175 27.1964 3.13596 27.1964 2.20028C27.1964 0.987196 26.2092 0 24.9961 0C23.7869 0 22.8027 0.987196 22.8027 2.20028C22.8027 3.13791 23.3934 3.93472 24.2187 4.25093V10.5438C24.2187 10.9756 24.5681 11.3251 24.9999 11.3251ZM24.9961 1.56254C25.3479 1.56254 25.634 1.84867 25.634 2.20038C25.634 2.55209 25.3479 2.83823 24.9961 2.83823C24.6482 2.83823 24.3652 2.55209 24.3652 2.20038C24.3652 1.84867 24.6482 1.56254 24.9961 1.56254Z" fill="#CD9D35"/>
<path d="M39.3325 6.00204C39.3325 4.78895 38.3454 3.80176 37.1323 3.80176C36.1981 3.80176 35.404 4.39352 35.0884 5.22082H30.249C29.8171 5.22082 29.4678 5.57027 29.4678 6.00204V10.5438C29.4678 10.9757 29.8172 11.325 30.249 11.325C30.6809 11.325 31.0302 10.9756 31.0302 10.5438V6.78336H35.0884C35.404 7.61066 36.198 8.20242 37.1322 8.20242C38.3454 8.20242 39.3325 7.21512 39.3325 6.00204ZM37.1323 6.63988C36.7844 6.63988 36.5013 6.35375 36.5013 6.00204C36.5013 5.65032 36.7844 5.36419 37.1323 5.36419C37.484 5.36419 37.7701 5.65032 37.7701 6.00204C37.7701 6.35375 37.484 6.63988 37.1323 6.63988Z" fill="#CD9D35"/>
<path d="M30.2497 44.7793H35.0884C35.404 45.6066 36.198 46.1983 37.1322 46.1983C38.3453 46.1983 39.3325 45.2111 39.3325 43.998C39.3325 42.785 38.3453 41.7978 37.1322 41.7978C36.198 41.7978 35.4039 42.3895 35.0883 43.2168H31.0309V39.4563C31.0309 39.0244 30.6815 38.675 30.2497 38.675C29.818 38.675 29.4685 39.0245 29.4685 39.4563V43.998C29.4684 44.4298 29.8179 44.7793 30.2497 44.7793ZM37.1322 43.3602C37.4839 43.3602 37.77 43.6463 37.77 43.998C37.77 44.3498 37.4839 44.6359 37.1322 44.6359C36.7843 44.6359 36.5012 44.3498 36.5012 43.998C36.5012 43.6463 36.7843 43.3602 37.1322 43.3602Z" fill="#CD9D35"/>
<path d="M24.9999 38.6748C24.5681 38.6748 24.2187 39.0243 24.2187 39.456V45.7489C23.3933 46.0651 22.8027 46.862 22.8027 47.7995C22.8027 49.0126 23.787 49.9998 24.9961 49.9998C26.2092 49.9998 27.1964 49.0126 27.1964 47.7995C27.1964 46.8638 26.6065 46.0679 25.7812 45.7504V39.4559C25.7812 39.0243 25.4318 38.6748 24.9999 38.6748ZM24.9961 48.4374C24.6482 48.4374 24.3652 48.1512 24.3652 47.7995C24.3652 47.4478 24.6482 47.1617 24.9961 47.1617C25.3479 47.1617 25.634 47.4478 25.634 47.7995C25.634 48.1512 25.3479 48.4374 24.9961 48.4374Z" fill="#CD9D35"/>
<path d="M12.8609 46.1983C13.798 46.1983 14.5946 45.6066 14.9111 44.7793H19.7502C20.1821 44.7793 20.5314 44.4298 20.5314 43.998V39.4563C20.5314 39.0244 20.182 38.675 19.7502 38.675C19.3184 38.675 18.969 39.0245 18.969 39.4563V43.2168H14.9111C14.5945 42.3895 13.798 41.7978 12.8609 41.7978C11.6516 41.7978 10.6675 42.785 10.6675 43.998C10.6675 45.211 11.6516 46.1983 12.8609 46.1983ZM12.8609 43.3602C13.2126 43.3602 13.4987 43.6463 13.4987 43.998C13.4987 44.3498 13.2126 44.6359 12.8609 44.6359C12.513 44.6359 12.2299 44.3498 12.2299 43.998C12.2299 43.6463 12.513 43.3602 12.8609 43.3602Z" fill="#CD9D35"/>
</svg>
