<svg width="38" height="37" viewBox="0 0 38 37" fill="none" xmlns="http://www.w3.org/2000/svg">
<path d="M31.9587 16.043L31.4673 15.5516C30.8313 14.9156 29.7618 14.9156 29.1259 15.5516L27.8829 16.7656L26.611 18.0375V9.56799C26.611 8.06487 25.397 6.85081 23.8938 6.85081H23.7204V6.21487C23.7204 5.8969 23.5759 5.57893 23.3446 5.34768C22.8532 4.85627 22.0728 4.85627 21.5813 5.34768C21.3501 5.57893 21.2056 5.8969 21.2056 6.24377V6.87971H19.529V6.24377C19.529 5.92581 19.3845 5.60784 19.1532 5.37659C18.6618 4.88518 17.8813 4.88518 17.3899 5.37659C17.1587 5.60784 17.0142 5.92581 17.0142 6.24377V6.87971H15.3376V6.24377C15.3376 5.92581 15.1931 5.60784 14.9618 5.37659C14.4704 4.88518 13.6899 4.88518 13.1985 5.37659C12.9673 5.60784 12.8228 5.92581 12.8228 6.27268V6.90862H11.1462V6.27268C11.1462 5.95471 11.0017 5.63674 10.7704 5.40549C10.279 4.91409 9.49854 4.91409 9.00713 5.40549C8.77588 5.63674 8.63135 5.95471 8.63135 6.30159V6.93752H8.45791C6.95479 6.93752 5.74072 8.15159 5.74072 9.65471V29.3977C5.74072 30.9008 6.95479 32.1149 8.45791 32.1149H23.7782C25.2813 32.1149 26.4954 30.9008 26.4954 29.3977V23.7031L30.6001 19.5985L31.8431 18.3555C32.5946 17.7196 32.5946 16.6789 31.9587 16.043ZM22.2462 6.24377C22.2462 6.12815 22.3618 6.01252 22.4774 6.01252C22.622 6.01252 22.7087 6.12815 22.7087 6.24377V8.44065C22.7087 8.55627 22.622 8.6719 22.4774 8.6719C22.3618 8.6719 22.2462 8.55627 22.2462 8.44065V6.24377ZM18.0837 6.24377C18.0837 6.12815 18.1993 6.01252 18.3149 6.01252C18.4595 6.01252 18.5462 6.12815 18.5462 6.24377V8.44065C18.5462 8.55627 18.4595 8.6719 18.3149 8.6719C18.1993 8.6719 18.0837 8.55627 18.0837 8.44065V6.24377ZM13.9212 6.24377C13.9212 6.12815 14.0368 6.01252 14.1524 6.01252C14.297 6.01252 14.3837 6.12815 14.3837 6.24377V8.44065C14.3837 8.55627 14.2681 8.6719 14.1524 8.6719C14.0368 8.6719 13.9212 8.58518 13.9212 8.44065V6.24377ZM9.7876 6.24377C9.7876 6.12815 9.90322 6.01252 10.0188 6.01252C10.1634 6.01252 10.2501 6.12815 10.2501 6.24377V8.44065C10.2501 8.55627 10.1345 8.6719 10.0188 8.6719C9.90322 8.6719 9.7876 8.58518 9.7876 8.44065V6.24377ZM25.5993 29.311C25.5993 30.236 24.8478 31.0164 23.8938 31.0164H8.57354C7.64854 31.0164 6.86807 30.2649 6.86807 29.311V9.56799C6.86807 8.64299 7.61963 7.86252 8.57354 7.86252H8.74697V8.41174C8.74697 9.10549 9.29619 9.65471 9.98994 9.65471C10.6837 9.65471 11.2329 9.10549 11.2329 8.41174V7.86252H12.9095V8.41174C12.9095 9.10549 13.4587 9.65471 14.1524 9.65471C14.8462 9.65471 15.3954 9.10549 15.3954 8.41174V7.86252H17.072V8.41174C17.072 9.10549 17.6212 9.65471 18.3149 9.65471C19.0087 9.65471 19.5579 9.10549 19.5579 8.41174V7.86252H21.2345V8.41174C21.2345 9.10549 21.7837 9.65471 22.4774 9.65471C23.1712 9.65471 23.7204 9.10549 23.7204 8.41174V7.86252H23.8938C24.8188 7.86252 25.5993 8.61409 25.5993 9.56799V19.0492C25.5993 19.0492 22.5063 22.1422 21.4657 23.1828C21.4079 23.2406 21.3501 23.3274 21.3212 23.443L20.7142 26.1602C20.6274 26.536 20.9454 26.8539 21.3212 26.7672L24.0384 26.1602C24.154 26.1313 24.2407 26.0735 24.2985 26.0156C24.3274 25.9867 25.6282 24.686 25.5993 24.7149V29.311ZM22.1017 24.5414L22.9399 25.3797L21.8704 25.611L22.1017 24.5414ZM23.9517 24.9461L22.5353 23.5297L26.4665 19.5985L28.2298 17.8352L29.6462 19.2516L23.9517 24.9461ZM31.236 17.6617L30.3399 18.5578L28.9235 17.1414L29.8196 16.2453C30.0798 16.0141 30.4845 16.0141 30.7446 16.2453L31.236 16.7367C31.4962 16.9969 31.4962 17.4016 31.236 17.6617Z" fill="white"/>
<path d="M9.90312 13.4414H22.5641C22.8531 13.4414 23.0844 13.2102 23.0844 12.9211C23.0844 12.632 22.8531 12.4297 22.593 12.4297H9.90312C9.61406 12.4297 9.38281 12.6609 9.38281 12.95C9.38281 13.2391 9.64297 13.4414 9.90312 13.4414Z" fill="white"/>
<path d="M9.90312 17.7773H22.5641C22.8531 17.7773 23.0844 17.5461 23.0844 17.257C23.0844 16.968 22.8531 16.7656 22.593 16.7656H9.90312C9.61406 16.7656 9.38281 16.9969 9.38281 17.2859C9.38281 17.575 9.64297 17.7773 9.90312 17.7773Z" fill="white"/>
<path d="M19.0664 21.1016H9.90312C9.61406 21.1016 9.38281 21.3328 9.38281 21.6219C9.38281 21.9109 9.61406 22.1422 9.90312 22.1422H19.0664C19.3555 22.1422 19.5867 21.9109 19.5867 21.6219C19.5867 21.3328 19.3555 21.1016 19.0664 21.1016Z" fill="white"/>
<path d="M17.6789 25.4664H9.90312C9.61406 25.4664 9.38281 25.6977 9.38281 25.9867C9.38281 26.2758 9.61406 26.5071 9.90312 26.5071H17.65C17.9391 26.5071 18.1703 26.2758 18.1703 25.9867C18.1703 25.6977 17.9391 25.4664 17.6789 25.4664Z" fill="white"/>
</svg>
