<svg width="9" height="10" viewBox="0 0 9 10" fill="none" xmlns="http://www.w3.org/2000/svg">
<path d="M4.13551 9.02008L0.147165 5.15674C-0.0499675 4.95902 -0.0445035 4.64375 0.15937 4.45255C0.358246 4.26604 0.673716 4.26585 0.872818 4.45212L3.98463 7.46614L3.9805 0.663404C3.98033 0.388364 4.21009 0.16526 4.49369 0.165088C4.77728 0.164916 5.00732 0.387741 5.00749 0.662781L5.01161 7.46552L8.11976 4.44772C8.31666 4.24977 8.64173 4.2441 8.84583 4.43505C9.04993 4.626 9.05577 4.94127 8.85887 5.13922C8.85474 5.14337 8.85054 5.14745 8.84627 5.15146L4.86236 9.01964C4.83835 9.04302 4.81196 9.06398 4.78358 9.08218C4.77151 9.08991 4.75791 9.0954 4.74559 9.10213C4.72902 9.11144 4.71188 9.11977 4.69426 9.12706C4.67747 9.1332 4.66033 9.13836 4.64291 9.14253C4.62803 9.14677 4.61365 9.15251 4.59825 9.1555C4.53189 9.16824 4.4636 9.16828 4.39722 9.15562C4.38181 9.15265 4.36768 9.14693 4.35279 9.1427C4.33537 9.13855 4.31823 9.13341 4.30143 9.1273C4.2838 9.12003 4.26665 9.11173 4.25007 9.10243C4.23748 9.09571 4.22439 9.09024 4.21206 9.08253C4.18455 9.06412 4.15892 9.0432 4.13551 9.02008Z" fill="#435363"/>
</svg>
