<svg width="20" height="20" viewBox="0 0 20 20" fill="none" xmlns="http://www.w3.org/2000/svg">
<path d="M18.6667 2.08519H17.1V1.88889C17.1 1.33291 16.5951 0.9 16 0.9C15.4049 0.9 14.9 1.33291 14.9 1.88889V2.08519H5.1V1.88889C5.1 1.33291 4.59508 0.9 4 0.9C3.40492 0.9 2.9 1.33291 2.9 1.88889V2.08519H1.33333C0.554503 2.08519 -0.1 2.65106 -0.1 3.37037V15.8148C-0.1 16.5341 0.554503 17.1 1.33333 17.1H3.66667C3.89466 17.1 4.1 16.9334 4.1 16.7037C4.1 16.474 3.89466 16.3074 3.66667 16.3074H1.33333C1.00966 16.3074 0.766667 16.0755 0.766667 15.8148V5.84074H19.2333V15.8148C19.2333 16.0755 18.9903 16.3074 18.6667 16.3074H15.6667C15.4387 16.3074 15.2333 16.474 15.2333 16.7037C15.2333 16.9334 15.4387 17.1 15.6667 17.1H18.6667C19.4455 17.1 20.1 16.5341 20.1 15.8148V3.37037C20.1 2.65106 19.4455 2.08519 18.6667 2.08519ZM15.7667 1.88889C15.7667 1.79153 15.8601 1.69259 16 1.69259C16.1399 1.69259 16.2333 1.79153 16.2333 1.88889V3.37037C16.2333 3.46773 16.1399 3.56667 16 3.56667C15.8601 3.56667 15.7667 3.46773 15.7667 3.37037V1.88889ZM3.76667 1.88889C3.76667 1.79153 3.86008 1.69259 4 1.69259C4.13992 1.69259 4.23333 1.79153 4.23333 1.88889V3.37037C4.23333 3.46773 4.13992 3.56667 4 3.56667C3.86008 3.56667 3.76667 3.46773 3.76667 3.37037V1.88889ZM19.2333 5.04815H0.766667V3.37037C0.766667 3.10968 1.00966 2.87778 1.33333 2.87778H2.9V3.37037C2.9 3.92635 3.40492 4.35926 4 4.35926C4.59508 4.35926 5.1 3.92635 5.1 3.37037V2.87778H14.9V3.37037C14.9 3.92635 15.4049 4.35926 16 4.35926C16.5951 4.35926 17.1 3.92635 17.1 3.37037V2.87778H18.6667C18.9903 2.87778 19.2333 3.10968 19.2333 3.37037V5.04815Z" fill="#00AD68" stroke="#00AD68" stroke-width="0.2"/>
<path d="M13.5766 13.965L13.5766 13.9649C13.7796 13.762 14.05 13.65 14.337 13.65C14.9301 13.65 15.4125 14.1324 15.4125 14.7255V14.7549C15.4125 15.0114 15.3206 15.2599 15.1538 15.4546L13.9411 16.87L13.941 16.8701C13.9368 16.875 13.9323 16.88 13.9276 16.885L13.5766 13.965ZM13.5766 13.965L11.3916 16.15H10.4053L10.9764 12.9114L12.4168 13.1654L12.4254 13.1669H12.4255L14.8788 13.5995L14.8789 13.5995C14.9027 13.6037 14.9267 13.6057 14.9505 13.6057C15.0346 13.6057 15.1173 13.58 15.1871 13.5312L15.1871 13.5311C15.2767 13.4684 15.3377 13.3726 15.3568 13.2649L15.3568 13.2649C15.7364 11.1119 14.135 9.023 11.7682 8.42128M13.5766 13.965L11.6534 8.49612M11.8078 8.1967C11.8474 7.97234 11.6976 7.75841 11.4733 7.71881L11.4733 7.71881C11.2492 7.67931 11.035 7.82889 10.9954 8.05335L10.9954 8.05335L10.9558 8.278C8.52582 8.03399 6.30686 9.44929 5.92722 11.6021L5.92721 11.6022C5.90825 11.7099 5.93278 11.8207 5.99553 11.9104L5.99558 11.9105C6.05834 12 6.15405 12.061 6.26178 12.08L6.26181 12.0801L10.164 12.7681L9.56752 16.15H5.78125C5.12293 16.15 4.5875 16.6854 4.5875 17.3437C4.5875 18.002 5.12293 18.5375 5.78125 18.5375H6.0593L5.84549 19.6066L5.84549 19.6066C5.80085 19.83 5.94565 20.0473 6.16906 20.092L6.16924 20.092C6.19618 20.0974 6.22332 20.1001 6.25031 20.1001C6.44296 20.1001 6.6152 19.9646 6.65446 19.7684L6.5564 19.7488L6.65446 19.7684L6.90068 18.5375H9.16352L9.00948 19.6299L9.00948 19.6299C8.97772 19.8555 9.13475 20.0641 9.36035 20.096L9.36047 20.096C9.37983 20.0987 9.39914 20.1 9.41834 20.1C9.6207 20.1 9.79737 19.9512 9.82642 19.7451C9.82642 19.7451 9.82642 19.7451 9.82642 19.7451L9.99671 18.5375H11.8493L12.0955 19.7684L12.0955 19.7684C12.1348 19.9646 12.307 20.1001 12.4997 20.1001C12.5267 20.1001 12.5538 20.0974 12.5807 20.092L12.5809 20.092C12.8043 20.0473 12.9492 19.83 12.9045 19.6066L12.6338 18.2534L13.9275 16.8851L11.7093 8.17932M11.8078 8.1967L11.7093 8.17932M11.8078 8.1967L11.8078 8.1967L11.7093 8.17932M11.8078 8.1967L11.7682 8.42128M11.7093 8.17932L11.6534 8.49612M11.7682 8.42128C11.7377 8.41354 11.7071 8.40604 11.6764 8.39879L11.6534 8.49612M11.7682 8.42128L11.7519 8.51349L11.6534 8.49612M11.2378 9.04815C10.8732 8.98424 10.4391 9.25037 10.0477 9.7781C9.66887 10.2889 9.36885 10.9812 9.18621 11.758L9.28485 11.7754M11.2378 9.04815L10.6962 12.1257L9.26254 11.873C9.26977 11.8403 9.2772 11.8077 9.28485 11.7754M11.2378 9.04815L11.2386 9.04834L11.2378 9.04815ZM9.28485 11.7754L10.7136 12.0272L12.1423 12.2792C12.2342 11.499 12.1888 10.7621 12.0127 10.17L12.1085 10.1415L12.0127 10.17C11.9215 9.86345 11.8004 9.61901 11.6624 9.44536C11.5251 9.27266 11.3754 9.17502 11.2248 9.14742L11.2142 9.14624L11.2144 9.1456C11.0645 9.12123 10.8917 9.16203 10.7051 9.27651C10.5159 9.39251 10.3185 9.58085 10.128 9.83767C9.75999 10.3339 9.46527 11.0108 9.28485 11.7754ZM10.2798 12.687L10.1813 12.6696L10.2625 12.7855L10.2798 12.687ZM12.5613 19.9939C12.7305 19.9601 12.8403 19.7954 12.8064 19.6262L12.5256 18.2222L12.5613 19.9939ZM11.2137 9.14517C11.2135 9.14513 11.214 9.14526 11.2144 9.14536L11.214 9.14525L11.2137 9.14517ZM12.8034 9.93479L12.7075 9.9633L12.8034 9.93479C12.7782 9.85006 12.7509 9.7683 12.7216 9.68954C13.8903 10.3663 14.6202 11.5133 14.5862 12.7101L12.9553 12.4226C13.0666 11.5212 13.0162 10.6504 12.8034 9.93479ZM11.8541 16.8542L11.8541 16.8542L14.1599 14.5484C14.2074 14.5009 14.2699 14.475 14.337 14.475C14.475 14.475 14.5874 14.5874 14.5874 14.7254V14.7549V14.7593C14.5864 14.8174 14.5651 14.8736 14.5272 14.9178C14.5272 14.9178 14.5272 14.9178 14.5272 14.9178L13.3212 16.3255L12.0098 17.7125H6.56109H6.56108H6.56107H6.56106H6.56105H6.56105H6.56104H6.56103H6.56102H6.56101H6.56101H6.561H6.56099H6.56098H6.56097H6.56097H6.56096H6.56095H6.56094H6.56093H6.56093H6.56092H6.56091H6.5609H6.56089H6.56089H6.56088H6.56087H6.56086H6.56085H6.56085H6.56084H6.56083H6.56082H6.56081H6.56081H6.5608H6.56079H6.56078H6.56077H6.56077H6.56076H6.56075H6.56074H6.56073H6.56073H6.56072H6.56071H6.5607H6.56069H6.56069H6.56068H6.56067H6.56066H6.56065H6.56065H6.56064H6.56063H6.56062H6.56061H6.56061H6.5606H6.56059H6.56058H6.56057H6.56057H6.56056H6.56055H6.56054H6.56053H6.56053H6.56052H6.56051H6.5605H5.78125C5.578 17.7125 5.4125 17.547 5.4125 17.3437C5.4125 17.1405 5.578 16.975 5.78125 16.975H9.91314L9.914 16.975L9.91486 16.975H11.5624C11.6719 16.975 11.7767 16.9315 11.8541 16.8542ZM8.47181 11.632L6.84092 11.3444C7.21829 10.2082 8.29644 9.38011 9.62594 9.14386C9.57153 9.20781 9.51797 9.27525 9.46537 9.34619C9.02063 9.94577 8.67546 10.7469 8.47181 11.632Z" fill="#435363" stroke="#435363" stroke-width="0.2"/>
</svg>
