<svg width="50" height="50" viewBox="0 0 50 50" fill="none" xmlns="http://www.w3.org/2000/svg">
<path d="M4.98417 18.2019H3.85032C3.52748 18.2019 3.25977 18.5036 3.25977 18.8675C3.25977 19.2314 3.52748 19.5331 3.85032 19.5331H4.98417C5.30701 19.5331 5.57473 19.2314 5.57473 18.8675C5.57473 18.5036 5.31488 18.2019 4.98417 18.2019Z" fill="#CD9D35"/>
<path d="M4.98417 22.2222H3.85032C3.52748 22.2222 3.25977 22.5239 3.25977 22.8878C3.25977 23.2516 3.52748 23.5534 3.85032 23.5534H4.98417C5.30701 23.5534 5.57473 23.2516 5.57473 22.8878C5.57473 22.5239 5.31488 22.2222 4.98417 22.2222Z" fill="#CD9D35"/>
<path d="M8.91337 18.2019H7.77952C7.45668 18.2019 7.18896 18.5036 7.18896 18.8675C7.18896 19.2314 7.45668 19.5331 7.77952 19.5331H8.91337C9.23621 19.5331 9.50393 19.2314 9.50393 18.8675C9.50393 18.5036 9.24408 18.2019 8.91337 18.2019Z" fill="#CD9D35"/>
<path d="M8.91337 22.2222H7.77952C7.45668 22.2222 7.18896 22.5239 7.18896 22.8878C7.18896 23.2516 7.45668 23.5534 7.77952 23.5534H8.91337C9.23621 23.5534 9.50393 23.2516 9.50393 22.8878C9.50393 22.5239 9.24408 22.2222 8.91337 22.2222Z" fill="#CD9D35"/>
<path d="M12.8426 18.2019H11.7087C11.3859 18.2019 11.1182 18.5036 11.1182 18.8675C11.1182 19.2314 11.3859 19.5331 11.7087 19.5331H12.8426C13.1654 19.5331 13.4331 19.2314 13.4331 18.8675C13.4331 18.5036 13.1733 18.2019 12.8426 18.2019Z" fill="#CD9D35"/>
<path d="M12.8426 22.2222H11.7087C11.3859 22.2222 11.1182 22.5239 11.1182 22.8878C11.1182 23.2516 11.3859 23.5534 11.7087 23.5534H12.8426C13.1654 23.5534 13.4331 23.2516 13.4331 22.8878C13.4331 22.5239 13.1733 22.2222 12.8426 22.2222Z" fill="#CD9D35"/>
<path d="M16.7718 18.2019H15.6379C15.3151 18.2019 15.0474 18.5036 15.0474 18.8675C15.0474 19.2314 15.3151 19.5331 15.6379 19.5331H16.7718C17.0946 19.5331 17.3623 19.2314 17.3623 18.8675C17.3623 18.5036 17.1025 18.2019 16.7718 18.2019Z" fill="#CD9D35"/>
<path d="M16.7718 22.2222H15.6379C15.3151 22.2222 15.0474 22.5239 15.0474 22.8878C15.0474 23.2516 15.3151 23.5534 15.6379 23.5534H16.7718C17.0946 23.5534 17.3623 23.2516 17.3623 22.8878C17.3623 22.5239 17.1025 22.2222 16.7718 22.2222Z" fill="#CD9D35"/>
<path d="M24.9527 20.8821C24.9527 19.4089 23.8897 18.2019 22.5747 18.2019C21.2598 18.2019 20.1968 19.4 20.1968 20.8821C20.1968 22.3641 21.2598 23.5622 22.5747 23.5622C23.8897 23.5622 24.9527 22.3553 24.9527 20.8821ZM22.5747 22.2221C21.9133 22.2221 21.3779 21.6187 21.3779 20.8732C21.3779 20.1277 21.9133 19.5242 22.5747 19.5242C23.2361 19.5242 23.7716 20.1277 23.7716 20.8732C23.7716 21.6187 23.2361 22.2221 22.5747 22.2221Z" fill="#00AD68"/>
<path d="M28.8662 23.5534C30.1733 23.5534 31.2442 22.3553 31.2442 20.8733C31.2442 19.3912 30.1812 18.1931 28.8662 18.1931C27.5513 18.1931 26.4883 19.3912 26.4883 20.8733C26.4883 22.3553 27.5591 23.5534 28.8662 23.5534ZM28.8662 19.5332C29.5277 19.5332 30.0631 20.1367 30.0631 20.8821C30.0631 21.6276 29.5277 22.2311 28.8662 22.2311C28.2048 22.2311 27.6694 21.6276 27.6694 20.8821C27.6694 20.1367 28.2127 19.5332 28.8662 19.5332Z" fill="#00AD68"/>
<path d="M4.98417 3.56763H3.85032C3.52748 3.56763 3.25977 3.86937 3.25977 4.23323C3.25977 4.59709 3.52748 4.89883 3.85032 4.89883H4.98417C5.30701 4.89883 5.57473 4.59709 5.57473 4.23323C5.57473 3.86937 5.31488 3.56763 4.98417 3.56763Z" fill="#CD9D35"/>
<path d="M4.98417 7.58789H3.85032C3.52748 7.58789 3.25977 7.88963 3.25977 8.25349C3.25977 8.61735 3.52748 8.91909 3.85032 8.91909H4.98417C5.30701 8.91909 5.57473 8.61735 5.57473 8.25349C5.57473 7.88963 5.31488 7.58789 4.98417 7.58789Z" fill="#CD9D35"/>
<path d="M8.91337 3.56763H7.77952C7.45668 3.56763 7.18896 3.86937 7.18896 4.23323C7.18896 4.59709 7.45668 4.89883 7.77952 4.89883H8.91337C9.23621 4.89883 9.50393 4.59709 9.50393 4.23323C9.50393 3.86937 9.24408 3.56763 8.91337 3.56763Z" fill="#CD9D35"/>
<path d="M8.91337 7.58789H7.77952C7.45668 7.58789 7.18896 7.88963 7.18896 8.25349C7.18896 8.61735 7.45668 8.91909 7.77952 8.91909H8.91337C9.23621 8.91909 9.50393 8.61735 9.50393 8.25349C9.50393 7.88963 9.24408 7.58789 8.91337 7.58789Z" fill="#CD9D35"/>
<path d="M12.8426 3.56763H11.7087C11.3859 3.56763 11.1182 3.86937 11.1182 4.23323C11.1182 4.59709 11.3859 4.89883 11.7087 4.89883H12.8426C13.1654 4.89883 13.4331 4.59709 13.4331 4.23323C13.4331 3.86937 13.1733 3.56763 12.8426 3.56763Z" fill="#CD9D35"/>
<path d="M12.8426 7.58789H11.7087C11.3859 7.58789 11.1182 7.88963 11.1182 8.25349C11.1182 8.61735 11.3859 8.91909 11.7087 8.91909H12.8426C13.1654 8.91909 13.4331 8.61735 13.4331 8.25349C13.4331 7.88963 13.1733 7.58789 12.8426 7.58789Z" fill="#CD9D35"/>
<path d="M16.7718 3.56763H15.6379C15.3151 3.56763 15.0474 3.86937 15.0474 4.23323C15.0474 4.59709 15.3151 4.89883 15.6379 4.89883H16.7718C17.0946 4.89883 17.3623 4.59709 17.3623 4.23323C17.3623 3.86937 17.1025 3.56763 16.7718 3.56763Z" fill="#CD9D35"/>
<path d="M16.7718 7.58789H15.6379C15.3151 7.58789 15.0474 7.88963 15.0474 8.25349C15.0474 8.61735 15.3151 8.91909 15.6379 8.91909H16.7718C17.0946 8.91909 17.3623 8.61735 17.3623 8.25349C17.3623 7.88963 17.1025 7.58789 16.7718 7.58789Z" fill="#CD9D35"/>
<path d="M24.9527 6.24778C24.9527 4.77459 23.8897 3.56763 22.5747 3.56763C21.2598 3.56763 20.1968 4.76571 20.1968 6.24778C20.1968 7.72986 21.2598 8.92794 22.5747 8.92794C23.8897 8.92794 24.9527 7.72098 24.9527 6.24778ZM22.5747 7.58786C21.9133 7.58786 21.3779 6.98438 21.3779 6.23891C21.3779 5.49343 21.9133 4.88996 22.5747 4.88996C23.2361 4.88996 23.7716 5.49343 23.7716 6.23891C23.7716 6.98438 23.2361 7.58786 22.5747 7.58786Z" fill="#00AD68"/>
<path d="M28.8662 8.91915C30.1733 8.91915 31.2442 7.72107 31.2442 6.23899C31.2442 4.75692 30.1812 3.55884 28.8662 3.55884C27.5513 3.55884 26.4883 4.75692 26.4883 6.23899C26.4883 7.72107 27.5591 8.91915 28.8662 8.91915ZM28.8662 4.89892C29.5277 4.89892 30.0631 5.50239 30.0631 6.24787C30.0631 6.99334 29.5277 7.59682 28.8662 7.59682C28.2048 7.59682 27.6694 6.99334 27.6694 6.24787C27.6694 5.50239 28.2127 4.89892 28.8662 4.89892Z" fill="#00AD68"/>
<path d="M4.98417 32.8274H3.85032C3.52748 32.8274 3.25977 33.1291 3.25977 33.493C3.25977 33.8569 3.52748 34.1586 3.85032 34.1586H4.98417C5.30701 34.1586 5.57473 33.8569 5.57473 33.493C5.57473 33.1291 5.31488 32.8274 4.98417 32.8274Z" fill="#CD9D35"/>
<path d="M4.98417 36.8567H3.85032C3.52748 36.8567 3.25977 37.1584 3.25977 37.5223C3.25977 37.8862 3.52748 38.1879 3.85032 38.1879H4.98417C5.30701 38.1879 5.57473 37.8862 5.57473 37.5223C5.57473 37.1584 5.31488 36.8567 4.98417 36.8567Z" fill="#CD9D35"/>
<path d="M8.91337 32.8274H7.77952C7.45668 32.8274 7.18896 33.1291 7.18896 33.493C7.18896 33.8569 7.45668 34.1586 7.77952 34.1586H8.91337C9.23621 34.1586 9.50393 33.8569 9.50393 33.493C9.50393 33.1291 9.24408 32.8274 8.91337 32.8274Z" fill="#CD9D35"/>
<path d="M8.91337 36.8567H7.77952C7.45668 36.8567 7.18896 37.1584 7.18896 37.5223C7.18896 37.8862 7.45668 38.1879 7.77952 38.1879H8.91337C9.23621 38.1879 9.50393 37.8862 9.50393 37.5223C9.50393 37.1584 9.24408 36.8567 8.91337 36.8567Z" fill="#CD9D35"/>
<path d="M12.8426 32.8274H11.7087C11.3859 32.8274 11.1182 33.1291 11.1182 33.493C11.1182 33.8569 11.3859 34.1586 11.7087 34.1586H12.8426C13.1654 34.1586 13.4331 33.8569 13.4331 33.493C13.4331 33.1291 13.1733 32.8274 12.8426 32.8274Z" fill="#CD9D35"/>
<path d="M12.8426 36.8567H11.7087C11.3859 36.8567 11.1182 37.1584 11.1182 37.5223C11.1182 37.8862 11.3859 38.1879 11.7087 38.1879H12.8426C13.1654 38.1879 13.4331 37.8862 13.4331 37.5223C13.4331 37.1584 13.1733 36.8567 12.8426 36.8567Z" fill="#CD9D35"/>
<path d="M16.7718 32.8274H15.6379C15.3151 32.8274 15.0474 33.1291 15.0474 33.493C15.0474 33.8569 15.3151 34.1586 15.6379 34.1586H16.7718C17.0946 34.1586 17.3623 33.8569 17.3623 33.493C17.3623 33.1291 17.1025 32.8274 16.7718 32.8274Z" fill="#CD9D35"/>
<path d="M16.7718 36.8567H15.6379C15.3151 36.8567 15.0474 37.1584 15.0474 37.5223C15.0474 37.8862 15.3151 38.1879 15.6379 38.1879H16.7718C17.0946 38.1879 17.3623 37.8862 17.3623 37.5223C17.3623 37.1584 17.1025 36.8567 16.7718 36.8567Z" fill="#CD9D35"/>
<path d="M22.5747 32.8274C21.2676 32.8274 20.1968 34.0255 20.1968 35.5075C20.1968 36.9896 21.2598 38.1877 22.5747 38.1877C23.8897 38.1877 24.9527 36.9896 24.9527 35.5075C24.9527 34.0255 23.8818 32.8274 22.5747 32.8274ZM22.5747 36.8565C21.9133 36.8565 21.3779 36.253 21.3779 35.5075C21.3779 34.7621 21.9133 34.1586 22.5747 34.1586C23.2361 34.1586 23.7716 34.7621 23.7716 35.5075C23.7716 36.253 23.2361 36.8565 22.5747 36.8565Z" fill="#00AD68"/>
<path d="M50 35.481C50 34.3095 49.1575 33.3511 48.1102 33.3511H34.5039V31.6205C34.5039 30.3159 33.5591 29.2598 32.4016 29.2598H31.0315V27.121H32.4016C33.5591 27.121 34.5039 26.0561 34.5039 24.7515V17.0039C34.5039 15.6993 33.5591 14.6344 32.4016 14.6344H31.0315V12.4956H32.4016C33.5591 12.4956 34.5039 11.4306 34.5039 10.126V2.36954C34.5039 1.06496 33.5591 0 32.4016 0H2.10236C0.944882 0 0 1.06496 0 2.36954V10.126C0 11.4306 0.944882 12.4956 2.10236 12.4956H3.47244V14.6344H2.10236C0.944882 14.6344 0 15.6993 0 17.0039V24.7604C0 26.065 0.944882 27.1299 2.10236 27.1299H3.47244V29.2776H2.10236C0.944882 29.2776 0 30.3337 0 31.6383V39.3947C0 40.6993 0.944882 41.7643 2.10236 41.7643H26.9449V47.8701C26.9449 49.0415 27.7874 50 28.8268 50H48.1102C48.6535 50 49.1417 49.7338 49.4882 49.3166C49.7953 48.935 49.9921 48.4381 49.9921 47.8789V35.481H50ZM33.8976 34.6912H33.9134C33.9134 34.6912 33.9213 34.6912 33.9291 34.6912H47.7953L40.4803 41.0898C40.4331 41.1164 40.3937 41.1608 40.3543 41.1963L38.8661 42.5009C38.6378 42.705 38.315 42.705 38.0866 42.5009L36.6063 41.2052C36.5669 41.1608 36.5197 41.1164 36.4724 41.0898L29.1575 34.6912H33.8976ZM28.126 47.8612V35.481C28.126 35.481 28.126 35.481 28.126 35.4721L35.2205 41.6755L28.126 47.8612ZM36.1811 42.5186L37.3543 43.5392C37.685 43.8232 38.0787 43.9741 38.4724 43.9741C38.8661 43.9741 39.2598 43.8321 39.5905 43.5392L40.7638 42.5186L47.7953 48.651H29.1496L36.1811 42.5186ZM41.7244 41.6755L48.8189 35.4721V35.481V47.8523V47.8612L41.7244 41.6755ZM4.65354 12.4867H22.3465C22.6693 12.4867 22.937 12.1849 22.937 11.8211C22.937 11.4572 22.6693 11.1555 22.3465 11.1555H2.10236C1.59843 11.1555 1.1811 10.694 1.1811 10.1171V2.36067C1.1811 1.79269 1.59055 1.32233 2.10236 1.32233H32.4016C32.9055 1.32233 33.3228 1.78381 33.3228 2.36067V10.1171C33.3228 10.6851 32.9134 11.1555 32.4016 11.1555H24.8425C24.5197 11.1555 24.252 11.4572 24.252 11.8211C24.252 12.1849 24.5197 12.4867 24.8425 12.4867H29.8504V14.6255H4.65354V12.4867ZM4.65354 27.121H22.3465C22.6693 27.121 22.937 26.8193 22.937 26.4555C22.937 26.0916 22.6693 25.7898 22.3465 25.7898H2.10236C1.59843 25.7898 1.1811 25.3284 1.1811 24.7515V17.0039C1.1811 16.4359 1.59055 15.9656 2.10236 15.9656H32.4016C32.9055 15.9656 33.3228 16.427 33.3228 17.0039V24.7604C33.3228 25.3284 32.9134 25.7987 32.4016 25.7987H24.8425C24.5197 25.7987 24.252 26.1005 24.252 26.4643C24.252 26.8282 24.5197 27.1299 24.8425 27.1299H29.8504V29.2776H4.65354V27.121ZM2.10236 40.4242C1.59055 40.4242 1.1811 39.9627 1.1811 39.3859V31.6294C1.1811 31.0614 1.59055 30.5999 2.10236 30.5999H32.4016C32.9134 30.5999 33.3228 31.0614 33.3228 31.6294V33.36H28.8268C28.2835 33.36 27.7953 33.6262 27.4567 34.0433C27.4567 34.0433 27.4488 34.0433 27.4488 34.0522V34.0611C27.1417 34.4427 26.9449 34.9397 26.9449 35.4899V40.4331H2.10236V40.4242Z" fill="#CD9D35"/>
<path d="M22.5434 44.613H11.7087C11.3859 44.613 11.1182 44.9148 11.1182 45.2786C11.1182 45.6425 11.3859 45.9442 11.7087 45.9442H22.5434C22.8662 45.9442 23.1339 45.6425 23.1339 45.2786C23.1339 44.9148 22.8662 44.613 22.5434 44.613Z" fill="#CD9D35"/>
<path d="M9.76374 44.613H8.25193C7.92909 44.613 7.66138 44.9148 7.66138 45.2786C7.66138 45.6425 7.92909 45.9442 8.25193 45.9442H9.76374C10.0866 45.9442 10.3543 45.6425 10.3543 45.2786C10.3543 44.9148 10.0944 44.613 9.76374 44.613Z" fill="#CD9D35"/>
<path d="M43.6062 23.8108C43.2833 23.8108 43.0156 24.1125 43.0156 24.4764V25.7189C43.0156 26.0827 43.2833 26.3845 43.6062 26.3845C43.929 26.3845 44.1967 26.0827 44.1967 25.7189V24.4764C44.1967 24.1125 43.929 23.8108 43.6062 23.8108Z" fill="#CD9D35"/>
<path d="M38.9844 29.5439C38.6615 29.5439 38.3938 29.8457 38.3938 30.2095V31.3455C38.3938 31.7094 38.6615 32.0111 38.9844 32.0111C39.3072 32.0111 39.5749 31.7094 39.5749 31.3455V30.2095C39.5749 29.8368 39.3072 29.5439 38.9844 29.5439Z" fill="#CD9D35"/>
<path d="M37.2282 18.1665C37.4172 18.1665 37.6062 18.06 37.7164 17.8737L38.3936 16.7466V27.4494C38.3936 27.8133 38.6613 28.115 38.9841 28.115C39.307 28.115 39.5747 27.8133 39.5747 27.4494V16.6134L40.4015 17.8914C40.5905 18.1843 40.9605 18.2553 41.2282 18.0334C41.4881 17.8204 41.5511 17.4033 41.3542 17.1016L39.4566 14.1729C39.3464 13.9954 39.1416 13.88 38.9684 13.8978C38.7794 13.8978 38.5983 14.0132 38.4881 14.1907L36.7322 17.1193C36.5511 17.421 36.6219 17.8382 36.8897 18.0423C36.9999 18.131 37.1101 18.1665 37.2282 18.1665Z" fill="#00AD68"/>
<path d="M41.7795 11.75C41.9685 11.75 42.1575 11.6435 42.2677 11.4571L43.0157 10.2146V21.8316C43.0157 22.1955 43.2835 22.4972 43.6063 22.4972C43.9291 22.4972 44.1968 22.1955 44.1968 21.8316V10.3034L44.9527 11.4748C45.1417 11.7677 45.5118 11.8387 45.7795 11.6168C46.0394 11.4038 46.1024 10.9867 45.9055 10.685L44.0079 7.75634C43.8976 7.57885 43.7165 7.47235 43.5197 7.48123C43.3307 7.48123 43.1496 7.5966 43.0394 7.77409L41.2835 10.7027C41.1024 11.0045 41.1732 11.4216 41.4409 11.6257C41.5512 11.7056 41.6614 11.75 41.7795 11.75Z" fill="#00AD68"/>
</svg>
