<svg width="30" height="31" viewBox="0 0 30 31" fill="none" xmlns="http://www.w3.org/2000/svg">
<g clip-path="url(#clip0_927_3359)">
<path d="M10.7141 14.7286C13.6727 14.7286 16.0712 12.3301 16.0712 9.37142C16.0712 6.41276 13.6727 4.01428 10.7141 4.01428C7.75541 4.01428 5.35693 6.41276 5.35693 9.37142C5.35693 12.3301 7.75541 14.7286 10.7141 14.7286Z" stroke="black" stroke-linecap="round" stroke-linejoin="round"/>
<path d="M1.07129 29.7285H10.7141H20.357V28.5669C20.3399 26.9336 19.9092 25.3312 19.105 23.9096C18.3008 22.4878 17.1494 21.2932 15.7583 20.4371C14.3672 19.5811 12.7818 19.0916 11.1503 19.0143C11.0048 19.0074 10.8594 19.0038 10.7141 19.0035C10.5689 19.0038 10.4235 19.0074 10.278 19.0143C8.64648 19.0916 7.06111 19.5811 5.67001 20.4371C4.27893 21.2932 3.12751 22.4878 2.3233 23.9096C1.5191 25.3312 1.08835 26.9336 1.07129 28.5669V29.7285Z" stroke="black" stroke-linecap="round" stroke-linejoin="round"/>
<path d="M19.2856 14.7286C22.2443 14.7286 24.6428 12.3301 24.6428 9.37142C24.6428 6.41276 22.2443 4.01428 19.2856 4.01428" stroke="black" stroke-linecap="round" stroke-linejoin="round"/>
<path d="M24.6425 29.7288H28.9282V28.5669C28.9111 26.9336 28.4804 25.3312 27.6762 23.9096C26.8719 22.4878 25.7206 21.2932 24.3294 20.4372C23.4303 19.8838 22.4497 19.4836 21.4282 19.2489" stroke="black" stroke-linecap="round" stroke-linejoin="round"/>
</g>
<defs>
<clipPath id="clip0_927_3359">
<rect width="30" height="30" fill="white" transform="translate(0 0.800049)"/>
</clipPath>
</defs>
</svg>
