<svg width="52" height="52" viewBox="0 0 52 52" fill="none" xmlns="http://www.w3.org/2000/svg">
<path d="M6.20117 35.7797V20.8451" stroke="#CD9D35" stroke-width="2" stroke-miterlimit="10" stroke-linecap="round" stroke-linejoin="round"/>
<path d="M6.20117 17.324V8.38633C6.20117 7.58452 6.55132 6.85917 7.11721 6.33301C7.68417 5.80786 8.46578 5.48291 9.32978 5.48291C11.0578 5.48291 12.4584 6.78271 12.4584 8.38633V18.2908V26.5825" stroke="#CD9D35" stroke-width="2" stroke-miterlimit="10" stroke-linecap="round" stroke-linejoin="round"/>
<path d="M15.7939 4V1H12.7212" stroke="#CD9D35" stroke-width="2" stroke-miterlimit="10" stroke-linecap="round" stroke-linejoin="round"/>
<path d="M12.6284 12.291H15.7937V9.29114" stroke="#CD9D35" stroke-width="2" stroke-miterlimit="10" stroke-linecap="round" stroke-linejoin="round"/>
<path d="M5.93888 1H2.86621V4" stroke="#CD9D35" stroke-width="2" stroke-miterlimit="10" stroke-linecap="round" stroke-linejoin="round"/>
<path d="M2.86621 9.29114V12.291H5.92305" stroke="#CD9D35" stroke-width="2" stroke-miterlimit="10" stroke-linecap="round" stroke-linejoin="round"/>
<path d="M31.2732 37.1494C31.0485 39.1046 30.3727 40.9982 29.2845 42.6986C27.9187 44.8329 27.2025 47.2712 27.2125 49.7535V51" stroke="#CD9D35" stroke-width="2" stroke-miterlimit="10" stroke-linecap="round" stroke-linejoin="round"/>
<path d="M6.34941 51V48.6199C6.34941 46.0309 5.30427 43.5357 3.42006 41.6263C1.86346 40.049 1 37.9877 1 35.8488V30.6981C1 29.115 1.79527 27.6269 3.142 26.6687C3.22189 26.6119 3.30569 26.5598 3.39057 26.5097L5.70862 25.1429" stroke="#CD9D35" stroke-width="2" stroke-miterlimit="10" stroke-linecap="round" stroke-linejoin="round"/>
<path d="M18.884 28.4815V20.1897C18.884 18.5431 20.3225 17.2083 22.0968 17.2083C22.5903 17.2083 23.0579 17.3116 23.4757 17.4961" stroke="#CD9D35" stroke-width="2" stroke-miterlimit="10" stroke-linecap="round" stroke-linejoin="round"/>
<path d="M12.4585 18.2904C12.4585 16.6438 13.8969 15.309 15.6712 15.309C17.4456 15.309 18.8839 16.6439 18.8839 18.2904V20.1897" stroke="#CD9D35" stroke-width="2" stroke-miterlimit="10" stroke-linecap="round" stroke-linejoin="round"/>
<path d="M23.6514 33.7365V35.8129C23.6514 36.3994 24.1641 36.8753 24.7961 36.8753H40.3687" stroke="#CD9D35" stroke-width="2" stroke-miterlimit="10" stroke-linecap="round" stroke-linejoin="round"/>
<path d="M23.6514 30.2153V9.69824C23.6514 9.11172 24.1641 8.63586 24.7961 8.63586H49.8553C50.4873 8.63586 51.0001 9.11172 51.0001 9.69824V11.7878" stroke="#CD9D35" stroke-width="2" stroke-miterlimit="10" stroke-linecap="round" stroke-linejoin="round"/>
<path d="M51 15.3088V35.8129C51 36.3994 50.4873 36.8752 49.8553 36.8752H44.1628" stroke="#CD9D35" stroke-width="2" stroke-miterlimit="10" stroke-linecap="round" stroke-linejoin="round"/>
<path d="M28.4902 30.5057C31.1301 32.9556 35.3979 32.96 38.0319 30.5156C40.5839 28.1472 40.6591 24.3559 38.2605 21.8939" stroke="#00AD68" stroke-width="2" stroke-miterlimit="10" stroke-linecap="round" stroke-linejoin="round"/>
<path d="M45.6042 31.1698C47.7935 26.5773 46.8533 21.0115 42.7869 17.2379C40.147 14.788 35.8792 14.7836 33.2452 17.228C30.6111 19.6725 30.6158 23.6331 33.2558 26.083" stroke="#00AD68" stroke-width="2" stroke-miterlimit="10" stroke-linecap="round" stroke-linejoin="round"/>
<path d="M43.3182 27.1324C43.0763 29.178 42.1104 31.1629 40.42 32.7316C40.2262 32.9115 40.0264 33.0826 39.8213 33.2448" stroke="#CD9D35" stroke-width="2" stroke-miterlimit="10" stroke-linecap="round" stroke-linejoin="round"/>
<path d="M45.1698 15.0266C41.2099 11.3517 34.8084 11.3451 30.8572 15.0119C26.906 18.6787 26.9131 24.6195 30.873 28.2944C32.193 29.5194 34.3268 29.5216 35.6439 28.2994C36.9609 27.0771 36.9585 25.0968 35.6385 23.8719C34.3186 22.6469 34.3162 20.6667 35.6332 19.4444C36.9503 18.2222 39.0841 18.2244 40.4041 19.4494C41.6117 20.5701 42.4517 21.9015 42.924 23.3148" stroke="#CD9D35" stroke-width="2" stroke-miterlimit="10" stroke-linecap="round" stroke-linejoin="round"/>
</svg>
