<svg width="21" height="20" viewBox="0 0 21 20" fill="none" xmlns="http://www.w3.org/2000/svg">
<path d="M20.0542 13.1908C19.9112 12.7687 19.5696 12.4621 19.0925 12.3276C18.5791 12.1828 17.9113 12.2289 17.1078 12.4647L13.45 13.5378C13.4346 13.5065 13.4182 13.4756 13.4006 13.4451C13.1963 13.0913 12.8677 12.8385 12.4753 12.7334L9.87669 12.0371C7.98014 10.7082 6.96395 11.09 5.46946 11.8207C4.75477 12.1702 4.04441 12.5083 3.37264 12.8258L3.23183 12.4876C3.0449 12.0388 2.52762 11.8253 2.07868 12.0118L0.67496 12.5947C0.456216 12.6856 0.286339 12.8554 0.196623 13.0728C0.106906 13.2903 0.107676 13.5304 0.198728 13.7491L2.57572 19.4568C2.71673 19.7954 3.0458 20 3.3917 20C3.50425 20 3.61863 19.9783 3.72887 19.9326L5.13258 19.3497C5.35133 19.2588 5.52121 19.089 5.61092 18.8716C5.70064 18.6541 5.69987 18.414 5.60882 18.1954L5.44959 17.813L6.36448 17.3682C6.69869 17.2057 7.03464 17.1771 7.39144 17.2807L10.3112 18.1285C10.5262 18.1909 10.7483 18.2176 10.9738 18.2176C11.7498 18.2175 12.5637 17.9009 13.2477 17.6346C13.3079 17.6112 13.367 17.5882 13.4248 17.566L18.9046 15.4544C19.7917 15.1125 20.3396 14.0336 20.0542 13.1908ZM5.08696 18.6554C5.05501 18.7328 4.99404 18.7934 4.91522 18.8262L3.5115 19.4091C3.35098 19.4758 3.16584 19.3995 3.09895 19.2389L0.721963 13.5311C0.68917 13.4524 0.688684 13.3664 0.720587 13.289C0.75253 13.2116 0.813501 13.151 0.892327 13.1182L2.29604 12.5353C2.33548 12.519 2.37637 12.5112 2.41665 12.5112C2.54037 12.5112 2.65811 12.5844 2.70855 12.7056L5.08554 18.4133C5.11837 18.492 5.1189 18.578 5.08696 18.6554ZM18.7008 14.9254L13.221 17.037C13.1627 17.0595 13.103 17.0828 13.0422 17.1065C12.2392 17.4189 11.2398 17.8079 10.4693 17.5841L7.54949 16.7364C7.05852 16.5938 6.57646 16.6349 6.11667 16.8585L5.23137 17.2889L3.59081 13.3496C4.2715 13.0279 4.9923 12.685 5.71849 12.3299C7.11528 11.6469 7.92196 11.3456 9.59074 12.529C9.61818 12.5484 9.64883 12.5628 9.6813 12.5715L12.3287 13.2809C12.5748 13.3468 12.7812 13.5058 12.9097 13.7285C13.0383 13.9512 13.0728 14.2094 13.0069 14.4555C12.87 14.9663 12.3429 15.2704 11.8323 15.1336L8.31398 14.1909C8.16273 14.1505 8.00738 14.2401 7.9669 14.3913C7.92637 14.5425 8.01609 14.6978 8.16726 14.7384L11.6855 15.6811C12.4982 15.899 13.3365 15.4148 13.5543 14.6022C13.6002 14.4309 13.6157 14.2561 13.6015 14.084L17.2674 13.0086C18.4786 12.6533 19.3197 12.7894 19.5173 13.3727C19.7045 13.9254 19.3001 14.6945 18.7008 14.9254ZM13.5095 9.88557C14.8808 9.88557 15.9964 8.76995 15.9964 7.3987C15.9964 6.02741 14.8808 4.91179 13.5095 4.91179C12.1383 4.91179 11.0227 6.02741 11.0227 7.3987C11.0227 8.76995 12.1383 9.88557 13.5095 9.88557ZM13.5095 5.47859C14.5683 5.47859 15.4296 6.33992 15.4296 7.3987C15.4296 8.4574 14.5683 9.31877 13.5095 9.31877C12.4508 9.31877 11.5895 8.45744 11.5895 7.3987C11.5895 6.33996 12.4508 5.47859 13.5095 5.47859ZM9.29673 6.36822C8.97714 6.36822 8.71718 6.62822 8.71718 6.94777V7.84951C8.71718 8.16914 8.97718 8.4291 9.29673 8.4291C9.64814 8.4291 9.86774 8.65711 9.95616 8.87047C10.0446 9.08383 10.0504 9.40035 9.80199 9.64885C9.69252 9.75832 9.63227 9.90387 9.63227 10.0587C9.63227 10.2135 9.69256 10.3591 9.80203 10.4686L10.4397 11.1062C10.5492 11.2156 10.6947 11.2759 10.8495 11.2759C11.0043 11.2759 11.1499 11.2156 11.2593 11.1062C11.5083 10.8573 11.8248 10.8629 12.038 10.9513C12.2512 11.0396 12.4791 11.2594 12.4791 11.6114C12.4791 11.9311 12.7391 12.191 13.0587 12.191H13.9604C14.28 12.191 14.54 11.931 14.54 11.6114C14.54 11.2601 14.768 11.0404 14.9814 10.952C15.1948 10.8637 15.5113 10.8577 15.7598 11.1062C15.9858 11.3322 16.3535 11.3322 16.5794 11.1062L17.2171 10.4686C17.3266 10.3591 17.3868 10.2136 17.3868 10.0587C17.3868 9.90391 17.3266 9.75836 17.2171 9.64885C16.9686 9.40039 16.9745 9.08391 17.0629 8.87051C17.1513 8.65711 17.3709 8.42914 17.7223 8.42914C18.0419 8.42914 18.3019 8.16914 18.3019 7.84955V6.94781C18.3019 6.62822 18.0419 6.36826 17.7223 6.36826C17.3709 6.36826 17.1513 6.14025 17.0629 5.92689C16.9745 5.71353 16.9686 5.39697 17.217 5.14851C17.3265 5.03904 17.3868 4.89349 17.3868 4.73864C17.3868 4.58382 17.3265 4.43827 17.217 4.3288L16.5794 3.69115C16.3534 3.4652 15.9857 3.4652 15.7597 3.69119C15.5112 3.93957 15.1947 3.9337 14.9813 3.84536C14.7679 3.75694 14.5399 3.53735 14.5399 3.18593C14.5399 2.86634 14.2799 2.60638 13.9604 2.60638H13.0587C12.7391 2.60638 12.4791 2.86638 12.4791 3.18593C12.4791 3.53735 12.251 3.75694 12.0377 3.84536C11.8243 3.93374 11.5078 3.93965 11.2593 3.69115C11.1498 3.58172 11.0042 3.52144 10.8494 3.52144C10.6946 3.52144 10.5491 3.58172 10.4396 3.69115L9.80195 4.3288C9.69248 4.43827 9.63219 4.58382 9.63219 4.73864C9.63219 4.89349 9.69248 5.03904 9.80195 5.14851C10.0504 5.39697 10.0445 5.71349 9.95612 5.92689C9.86774 6.14029 9.6481 6.36822 9.29673 6.36822ZM10.2028 4.74766C10.2017 4.74657 10.199 4.74394 10.199 4.73859C10.199 4.73329 10.2016 4.7307 10.2028 4.72957L10.8404 4.09188C10.8415 4.09078 10.8442 4.08815 10.8495 4.08815C10.8548 4.08815 10.8574 4.09078 10.8585 4.09188C11.2316 4.46495 11.7666 4.57098 12.2546 4.36896C12.7427 4.16678 13.0459 3.71346 13.0459 3.18585C13.0459 3.17881 13.0516 3.1731 13.0587 3.1731H13.9604C13.9675 3.1731 13.9732 3.17885 13.9732 3.18585C13.9732 3.71342 14.2764 4.16678 14.7645 4.36896C15.2526 4.57115 15.7875 4.46495 16.1605 4.09192C16.1655 4.08694 16.1737 4.08686 16.1786 4.09192L16.8163 4.72957C16.8174 4.73066 16.82 4.73329 16.82 4.73859C16.82 4.74394 16.8174 4.74653 16.8163 4.74766C16.4432 5.1207 16.3371 5.65567 16.5393 6.14373C16.7414 6.63182 17.1947 6.93502 17.7223 6.93502C17.7294 6.93502 17.7351 6.94077 17.7351 6.94777V7.84951C17.7351 7.85659 17.7294 7.8623 17.7223 7.8623C17.1947 7.8623 16.7414 8.1655 16.5392 8.65359C16.3371 9.14168 16.4432 9.67662 16.8162 10.0496C16.8174 10.0507 16.82 10.0533 16.82 10.0587C16.82 10.064 16.8174 10.0666 16.8163 10.0678L16.1786 10.7054C16.1737 10.7104 16.1655 10.7105 16.1605 10.7054C15.7875 10.3324 15.2525 10.2263 14.7644 10.4284C14.2763 10.6305 13.9731 11.0838 13.9731 11.6114C13.9731 11.6185 13.9674 11.6242 13.9604 11.6242H13.0587C13.0516 11.6242 13.0459 11.6185 13.0459 11.6114C13.0459 11.0833 12.7428 10.6298 12.2548 10.4277C12.0914 10.36 11.9226 10.3269 11.7564 10.3269C11.4266 10.3269 11.1068 10.4571 10.8585 10.7054C10.8574 10.7065 10.8548 10.7092 10.8495 10.7092C10.8442 10.7092 10.8416 10.7066 10.8404 10.7054L10.2028 10.0678C10.2017 10.0667 10.199 10.0641 10.199 10.0587C10.199 10.0534 10.2017 10.0508 10.2028 10.0497C10.5758 9.67662 10.6819 9.14169 10.4798 8.65363C10.2777 8.16558 9.8243 7.86234 9.29673 7.86234C9.28968 7.86234 9.28398 7.85659 9.28398 7.84955V6.94781C9.28398 6.94077 9.28973 6.93506 9.29673 6.93506C9.8243 6.93506 10.2777 6.63186 10.4798 6.14377C10.6819 5.65567 10.5758 5.1207 10.2028 4.74766ZM3.50158 3.84022C3.71069 3.84022 3.7932 4.0001 3.81348 4.04908C3.83377 4.09811 3.8885 4.26949 3.74065 4.41734C3.55822 4.59981 3.55822 4.89661 3.74065 5.07908L4.13773 5.47616C4.22607 5.56454 4.34356 5.61325 4.46858 5.61325C4.59356 5.61325 4.71105 5.56458 4.79943 5.47616C4.94765 5.32798 5.1189 5.3826 5.16785 5.40288C5.21679 5.42317 5.37655 5.50563 5.37655 5.71523C5.37655 5.9732 5.58643 6.18308 5.8444 6.18308H6.40602C6.66399 6.18308 6.87387 5.9732 6.87387 5.71523C6.87387 5.50612 7.03375 5.42365 7.08273 5.40337C7.13176 5.383 7.30314 5.32831 7.45099 5.47616C7.53933 5.56454 7.65682 5.61325 7.78184 5.61325C7.90682 5.61325 8.02435 5.56454 8.11265 5.4762L8.50977 5.07908C8.6922 4.89661 8.6922 4.59981 8.50977 4.41734C8.36192 4.26953 8.41665 4.09811 8.43694 4.04908C8.45722 4.0001 8.53973 3.84022 8.74884 3.84022C9.00681 3.84022 9.21669 3.63034 9.21669 3.37237V2.81075C9.21669 2.55278 9.00681 2.3429 8.74884 2.3429C8.53973 2.3429 8.45726 2.18302 8.43694 2.13404C8.41665 2.08501 8.36192 1.91363 8.50977 1.76578C8.59815 1.67736 8.64681 1.55991 8.64681 1.43493C8.64681 1.30991 8.59811 1.19242 8.50981 1.10412L8.11269 0.706959C8.02435 0.618579 7.90686 0.569875 7.78184 0.569875C7.65682 0.569875 7.53933 0.618579 7.45099 0.706959C7.30314 0.854772 7.13172 0.800036 7.08273 0.779793C7.03375 0.75951 6.87383 0.677 6.87383 0.467892C6.87383 0.209918 6.66395 0 6.40598 0H5.84436C5.58639 0 5.37651 0.209918 5.37651 0.467892C5.37651 0.677 5.21663 0.75951 5.1676 0.779793C5.11862 0.800076 4.9472 0.854853 4.79935 0.706919C4.71097 0.618539 4.59348 0.569875 4.4685 0.569875C4.34352 0.569875 4.22599 0.618579 4.13765 0.706959L3.74061 1.10404C3.65219 1.19242 3.60352 1.30991 3.60352 1.43493C3.60352 1.55991 3.65219 1.67736 3.74057 1.76578C3.88842 1.91359 3.83369 2.08501 3.8134 2.13404C3.79312 2.18302 3.71061 2.3429 3.5015 2.3429C3.24353 2.3429 3.03365 2.55278 3.03365 2.81075V3.37237C3.03373 3.63034 3.24361 3.84022 3.50158 3.84022ZM3.60053 2.9046C3.93024 2.87023 4.20716 2.66464 4.33712 2.35092C4.46708 2.03715 4.4166 1.69594 4.20777 1.43853L4.47218 1.17412C4.72959 1.38295 5.07084 1.43347 5.38453 1.30347C5.69829 1.17352 5.90388 0.896513 5.93825 0.566839H6.31213C6.3465 0.896553 6.55209 1.17352 6.86581 1.30347C7.17954 1.43339 7.52071 1.38299 7.7782 1.17412L8.04261 1.43853C7.83378 1.69594 7.7833 2.03715 7.91326 2.35092C8.04321 2.66464 8.32014 2.87023 8.64985 2.9046V3.27848C8.32014 3.31285 8.04321 3.51844 7.91326 3.83216C7.7833 4.14593 7.83378 4.48714 8.04261 4.74455L7.77816 5.009C7.52067 4.80017 7.17949 4.74965 6.86573 4.87965C6.55201 5.0096 6.34646 5.28653 6.31209 5.6162H5.93817C5.90383 5.2862 5.69833 5.00908 5.38465 4.87916C5.07101 4.74928 4.72967 4.79993 4.4721 5.00896L4.20765 4.74455C4.41648 4.48714 4.46696 4.14593 4.337 3.83216C4.20704 3.51844 3.93008 3.31285 3.60041 3.27848V2.9046H3.60053ZM6.12521 4.74726C7.03816 4.74726 7.78091 4.00451 7.78091 3.09156C7.78091 2.17861 7.03816 1.4359 6.12521 1.4359C5.21226 1.4359 4.46955 2.17865 4.46955 3.0916C4.46955 4.00455 5.21226 4.74726 6.12521 4.74726ZM6.12521 2.0027C6.72561 2.0027 7.21411 2.49116 7.21411 3.0916C7.21411 3.69204 6.72565 4.1805 6.12521 4.1805C5.52477 4.1805 5.03635 3.69204 5.03635 3.0916C5.03635 2.49116 5.52481 2.0027 6.12521 2.0027ZM12.8564 8.34088L12.0152 7.34647C11.9141 7.227 11.929 7.04818 12.0485 6.94712C12.168 6.84607 12.3468 6.86097 12.4479 6.98044L13.1019 7.75356L14.4903 6.52421C14.6074 6.42041 14.7865 6.43126 14.8903 6.5485C14.9941 6.66571 14.9832 6.84478 14.866 6.94854L13.2606 8.37007C13.2086 8.41614 13.1417 8.44133 13.0727 8.44133C13.0659 8.44133 13.0591 8.44108 13.0523 8.44056C12.9763 8.43505 12.9057 8.3991 12.8564 8.34088Z" fill="#435363"/>
</svg>
