<svg width="31" height="30" viewBox="0 0 31 30" fill="none" xmlns="http://www.w3.org/2000/svg">
<path d="M6.92822 15V9.36428C6.94496 8.25648 7.18012 7.1629 7.62024 6.14613C8.06034 5.12939 8.69677 4.20948 9.49301 3.43911C10.2893 2.66875 11.2297 2.06306 12.2604 1.65677C13.2911 1.25048 14.3919 1.05156 15.4997 1.07142C16.6074 1.05156 17.7082 1.25048 18.7389 1.65677C19.7696 2.06306 20.71 2.66875 21.5063 3.43911C22.3026 4.20948 22.939 5.12939 23.3792 6.14613C23.8191 7.1629 24.0544 8.25648 24.0711 9.36428V15" stroke="black" stroke-linecap="round" stroke-linejoin="round"/>
<path d="M3.71415 11.7856H5.857C6.14117 11.7856 6.4137 11.8985 6.61461 12.0995C6.81555 12.3004 6.92843 12.5729 6.92843 12.8571V19.2856C6.92843 19.5698 6.81555 19.8423 6.61461 20.0433C6.4137 20.2442 6.14117 20.3571 5.857 20.3571H3.71415C3.14582 20.3571 2.60078 20.1313 2.19892 19.7295C1.79705 19.3276 1.57129 18.7825 1.57129 18.2142V13.9285C1.57129 13.3602 1.79705 12.8151 2.19892 12.4133C2.60078 12.0114 3.14582 11.7856 3.71415 11.7856Z" stroke="black" stroke-linecap="round" stroke-linejoin="round"/>
<path d="M27.2856 20.3571H25.1427C24.8586 20.3571 24.586 20.2442 24.385 20.0433C24.1842 19.8423 24.0713 19.5698 24.0713 19.2856V12.8571C24.0713 12.5729 24.1842 12.3004 24.385 12.0995C24.586 11.8985 24.8586 11.7856 25.1427 11.7856H27.2856C27.8539 11.7856 28.399 12.0114 28.8008 12.4133C29.2026 12.8151 29.4284 13.3602 29.4284 13.9285V18.2142C29.4284 18.7825 29.2026 19.3276 28.8008 19.7295C28.399 20.1313 27.8539 20.3571 27.2856 20.3571Z" stroke="black" stroke-linecap="round" stroke-linejoin="round"/>
<path d="M19.7856 26.25C20.9223 26.25 22.0123 25.7985 22.8161 24.9947C23.6199 24.1909 24.0714 23.1008 24.0714 21.9643V17.1428" stroke="black" stroke-linecap="round" stroke-linejoin="round"/>
<path d="M19.7858 26.2499C19.7858 26.9602 19.5036 27.6416 19.0012 28.1439C18.4989 28.6462 17.8176 28.9284 17.1072 28.9284H13.8929C13.1825 28.9284 12.5012 28.6462 11.9989 28.1439C11.4966 27.6416 11.2144 26.9602 11.2144 26.2499C11.2144 25.5395 11.4966 24.8581 11.9989 24.3558C12.5012 23.8535 13.1825 23.5713 13.8929 23.5713H17.1072C17.8176 23.5713 18.4989 23.8535 19.0012 24.3558C19.5036 24.8581 19.7858 25.5395 19.7858 26.2499Z" stroke="black" stroke-linecap="round" stroke-linejoin="round"/>
</svg>
