<svg width="32" height="33" viewBox="0 0 32 33" fill="none" xmlns="http://www.w3.org/2000/svg">
<path fill-rule="evenodd" clip-rule="evenodd" d="M9.48148 13.8671H2.96296C2.17719 13.8671 1.42341 13.5554 0.867554 12.9996C0.311702 12.4437 0 11.6899 0 10.9042C0 8.83837 0 5.85882 0 3.79304C0 3.00726 0.311702 2.25349 0.867554 1.69763C1.42341 1.14178 2.17719 0.830078 2.96296 0.830078H19.5556C20.3413 0.830078 21.0951 1.14178 21.651 1.69763C22.2068 2.25349 22.5185 3.00726 22.5185 3.79304V9.12637H29.037C29.8228 9.12637 30.5766 9.43808 31.1324 9.99393C31.6883 10.5498 32 11.3036 32 12.0893V16.8301C32 17.6159 31.6883 18.3696 31.1324 18.9255C30.5766 19.4813 29.8228 19.793 29.037 19.793H28.1695L25.9745 23.0843C25.8643 23.249 25.6794 23.3486 25.4815 23.3486C25.2836 23.3486 25.0987 23.249 24.9884 23.0843L22.7935 19.793H22.5185V26.3116C22.5185 27.0973 22.2068 27.8511 21.651 28.407C21.0951 28.9628 20.3413 29.2745 19.5556 29.2745H18.688L16.493 32.5658C16.3828 32.7305 16.1979 32.8301 16 32.8301C15.8021 32.8301 15.6172 32.7305 15.507 32.5658L13.312 29.2745H2.96296C2.17719 29.2745 1.42341 28.9628 0.867554 28.407C0.311702 27.8511 0 27.0973 0 26.3116C0 24.2458 0 21.2662 0 19.2004C0 18.4147 0.311702 17.6609 0.867554 17.105C1.42341 16.5492 2.17719 16.2375 2.96296 16.2375H9.48148V13.8671ZM9.54192 17.4227H2.96296C2.49126 17.4227 2.0397 17.6099 1.70548 17.943C1.37244 18.2772 1.18519 18.7287 1.18519 19.2004V26.3116C1.18519 26.7833 1.37244 27.2348 1.70548 27.569C2.0397 27.9021 2.49126 28.0893 2.96296 28.0893H13.6296C13.8276 28.0893 14.0124 28.1889 14.1227 28.3536L16 31.1696L17.8773 28.3536C17.9876 28.1889 18.1724 28.0893 18.3704 28.0893H19.5556C20.0273 28.0893 20.4788 27.9021 20.813 27.569C21.1461 27.2348 21.3333 26.7833 21.3333 26.3116V19.793H12.4444C11.6587 19.793 10.9049 19.4813 10.349 18.9255C9.93541 18.5119 9.65689 17.988 9.54192 17.4227ZM5.33333 24.5338H10.0741C10.4012 24.5338 10.6667 24.2683 10.6667 23.9412C10.6667 23.6141 10.4012 23.3486 10.0741 23.3486H5.33333C5.00622 23.3486 4.74074 23.6141 4.74074 23.9412C4.74074 24.2683 5.00622 24.5338 5.33333 24.5338ZM5.33333 22.1634H17.1852C17.5123 22.1634 17.7778 21.8979 17.7778 21.5708C17.7778 21.2437 17.5123 20.9782 17.1852 20.9782H5.33333C5.00622 20.9782 4.74074 21.2437 4.74074 21.5708C4.74074 21.8979 5.00622 22.1634 5.33333 22.1634ZM25.4815 21.6882L27.3588 18.8722C27.469 18.7074 27.6539 18.6079 27.8519 18.6079H29.037C29.5087 18.6079 29.9603 18.4206 30.2945 18.0876C30.6276 17.7533 30.8148 17.3018 30.8148 16.8301C30.8148 15.3818 30.8148 13.5376 30.8148 12.0893C30.8148 11.6176 30.6276 11.1661 30.2945 10.8319C29.9603 10.4988 29.5087 10.3116 29.037 10.3116C24.9327 10.3116 16.5487 10.3116 12.4444 10.3116C11.9727 10.3116 11.5212 10.4988 11.187 10.8319C10.8539 11.1661 10.6667 11.6176 10.6667 12.0893V16.8301C10.6667 17.3018 10.8539 17.7533 11.187 18.0876C11.5212 18.4206 11.9727 18.6079 12.4444 18.6079H23.1111C23.309 18.6079 23.4939 18.7074 23.6041 18.8722L25.4815 21.6882ZM14.8148 15.0523H26.6667C26.9938 15.0523 27.2593 14.7868 27.2593 14.4597C27.2593 14.1326 26.9938 13.8671 26.6667 13.8671H14.8148C14.4877 13.8671 14.2222 14.1326 14.2222 14.4597C14.2222 14.7868 14.4877 15.0523 14.8148 15.0523ZM21.3333 9.12637V3.79304C21.3333 3.32134 21.1461 2.86978 20.813 2.53556C20.4788 2.20252 20.0273 2.01526 19.5556 2.01526C15.4513 2.01526 7.06726 2.01526 2.96296 2.01526C2.49126 2.01526 2.0397 2.20252 1.70548 2.53556C1.37244 2.86978 1.18519 3.32134 1.18519 3.79304V10.9042C1.18519 11.3759 1.37244 11.8274 1.70548 12.1616C2.0397 12.4947 2.49126 12.6819 2.96296 12.6819H9.48148V12.0893C9.48148 11.3036 9.79318 10.5498 10.349 9.99393C10.9049 9.43808 11.6587 9.12637 12.4444 9.12637H21.3333ZM5.33333 9.12637H10.0741C10.4012 9.12637 10.6667 8.86089 10.6667 8.53378C10.6667 8.20667 10.4012 7.94119 10.0741 7.94119H5.33333C5.00622 7.94119 4.74074 8.20667 4.74074 8.53378C4.74074 8.86089 5.00622 9.12637 5.33333 9.12637ZM5.33333 6.756H17.1852C17.5123 6.756 17.7778 6.49052 17.7778 6.16341C17.7778 5.8363 17.5123 5.57082 17.1852 5.57082H5.33333C5.00622 5.57082 4.74074 5.8363 4.74074 6.16341C4.74074 6.49052 5.00622 6.756 5.33333 6.756Z" fill="#065E4A"/>
</svg>
