<svg width="35" height="35" viewBox="0 0 35 35" fill="none" xmlns="http://www.w3.org/2000/svg">
<path d="M34.329 31.9021L32.5992 4.00902C32.5828 3.75368 32.4919 3.50518 32.3339 3.28406C32.1759 3.06294 31.9554 2.87556 31.6906 2.73743V10.6776L33.0102 31.9561C33.0157 32.0976 32.9535 32.2353 32.8366 32.3403C32.7197 32.4452 32.5572 32.5093 32.3833 32.5189L5.72364 33.5918C5.5493 33.5973 5.37921 33.5471 5.24986 33.452C5.1205 33.3569 5.04217 33.2244 5.03167 33.0829L4.99673 32.5195H3.67456L3.71285 33.1368C3.7391 33.5487 3.95872 33.9367 4.32648 34.221C4.69424 34.5053 5.18216 34.6643 5.68979 34.6651C5.72266 34.6651 32.4196 33.5914 32.4488 33.5902C32.9703 33.5617 33.4579 33.3697 33.8086 33.0548C34.1594 32.7399 34.346 32.3266 34.329 31.9021Z" fill="#065E4A"/>
<path d="M30.37 29.8374V1.9443C30.3695 1.51765 30.1606 1.10861 29.7893 0.806927C29.418 0.50524 28.9145 0.335549 28.3894 0.335083L1.98065 0.335083C1.45553 0.335549 0.952074 0.50524 0.580754 0.806927C0.209433 1.10861 0.000573199 1.51765 0 1.9443V29.8374C0.000573199 30.2641 0.209433 30.6731 0.580754 30.9748C0.952074 31.2765 1.45553 31.4462 1.98065 31.4466H28.3894C28.9145 31.4462 29.418 31.2765 29.7893 30.9748C30.1606 30.6731 30.3695 30.2641 30.37 29.8374ZM1.32044 29.8374V1.9443C1.32061 1.80208 1.39023 1.66573 1.514 1.56516C1.63778 1.4646 1.80561 1.40804 1.98065 1.4079H28.3894C28.5644 1.40804 28.7323 1.4646 28.856 1.56516C28.9798 1.66573 29.0494 1.80208 29.0496 1.9443V29.8374C29.0494 29.9796 28.9798 30.116 28.856 30.2165C28.7322 30.3171 28.5644 30.3737 28.3894 30.3738H1.98065C1.80562 30.3737 1.6378 30.3171 1.51403 30.2165C1.39026 30.116 1.32064 29.9796 1.32044 29.8374Z" fill="#065E4A"/>
<path d="M25.7486 9.99036H4.62164C4.44654 9.99036 4.27861 10.0469 4.1548 10.1475C4.03098 10.2481 3.96143 10.3845 3.96143 10.5268C3.96143 10.669 4.03098 10.8055 4.1548 10.9061C4.27861 11.0067 4.44654 11.0632 4.62164 11.0632H25.7486C25.9237 11.0632 26.0917 11.0067 26.2155 10.9061C26.3393 10.8055 26.4089 10.669 26.4089 10.5268C26.4089 10.3845 26.3393 10.2481 26.2155 10.1475C26.0917 10.0469 25.9237 9.99036 25.7486 9.99036Z" fill="#065E4A"/>
<path d="M4.62164 13.7452H16.4998C16.6749 13.7452 16.8428 13.6887 16.9666 13.5881C17.0904 13.4875 17.16 13.351 17.16 13.2088C17.16 13.0665 17.0904 12.9301 16.9666 12.8295C16.8428 12.7289 16.6749 12.6724 16.4998 12.6724H4.62164C4.44654 12.6724 4.27861 12.7289 4.1548 12.8295C4.03098 12.9301 3.96143 13.0665 3.96143 13.2088C3.96143 13.351 4.03098 13.4875 4.1548 13.5881C4.27861 13.6887 4.44654 13.7452 4.62164 13.7452Z" fill="#065E4A"/>
<path d="M25.7486 15.3545H4.62164C4.44654 15.3545 4.27861 15.411 4.1548 15.5116C4.03098 15.6122 3.96143 15.7486 3.96143 15.8909C3.96143 16.0332 4.03098 16.1696 4.1548 16.2702C4.27861 16.3708 4.44654 16.4273 4.62164 16.4273H25.7486C25.9237 16.4273 26.0917 16.3708 26.2155 16.2702C26.3393 16.1696 26.4089 16.0332 26.4089 15.8909C26.4089 15.7486 26.3393 15.6122 26.2155 15.5116C26.0917 15.411 25.9237 15.3545 25.7486 15.3545Z" fill="#065E4A"/>
<path d="M25.7486 18.0365H4.62164C4.44654 18.0365 4.27861 18.093 4.1548 18.1936C4.03098 18.2942 3.96143 18.4306 3.96143 18.5729C3.96143 18.7152 4.03098 18.8516 4.1548 18.9522C4.27861 19.0528 4.44654 19.1093 4.62164 19.1093H25.7486C25.9237 19.1093 26.0917 19.0528 26.2155 18.9522C26.3393 18.8516 26.4089 18.7152 26.4089 18.5729C26.4089 18.4306 26.3393 18.2942 26.2155 18.1936C26.0917 18.093 25.9237 18.0365 25.7486 18.0365Z" fill="#065E4A"/>
<path d="M4.62164 21.7913H18.812C18.9871 21.7913 19.155 21.7348 19.2788 21.6342C19.4026 21.5336 19.4722 21.3972 19.4722 21.2549C19.4722 21.1126 19.4026 20.9762 19.2788 20.8756C19.155 20.775 18.9871 20.7185 18.812 20.7185H4.62164C4.44654 20.7185 4.27861 20.775 4.1548 20.8756C4.03098 20.9762 3.96143 21.1126 3.96143 21.2549C3.96143 21.3972 4.03098 21.5336 4.1548 21.6342C4.27861 21.7348 4.44654 21.7913 4.62164 21.7913Z" fill="#065E4A"/>
<path d="M25.7485 20.7185H22.1282C21.9531 20.7185 21.7852 20.775 21.6614 20.8756C21.5376 20.9762 21.468 21.1126 21.468 21.2549C21.468 21.3972 21.5376 21.5336 21.6614 21.6342C21.7852 21.7348 21.9531 21.7913 22.1282 21.7913H25.7485C25.9236 21.7913 26.0915 21.7348 26.2153 21.6342C26.3391 21.5336 26.4087 21.3972 26.4087 21.2549C26.4087 21.1126 26.3391 20.9762 26.2153 20.8756C26.0915 20.775 25.9236 20.7185 25.7485 20.7185Z" fill="#065E4A"/>
<path d="M8.24188 26.0825H4.62164C4.44654 26.0825 4.27861 26.139 4.1548 26.2396C4.03098 26.3402 3.96143 26.4767 3.96143 26.6189C3.96143 26.7612 4.03098 26.8976 4.1548 26.9982C4.27861 27.0988 4.44654 27.1553 4.62164 27.1553H8.24189C8.41699 27.1553 8.58492 27.0988 8.70873 26.9982C8.83255 26.8976 8.9021 26.7612 8.9021 26.6189C8.9021 26.4767 8.83255 26.3402 8.70873 26.2396C8.58492 26.139 8.41698 26.0825 8.24188 26.0825Z" fill="#065E4A"/>
<path d="M25.7485 12.6724H22.1282C21.9531 12.6724 21.7852 12.7289 21.6614 12.8295C21.5376 12.9301 21.468 13.0665 21.468 13.2088C21.468 13.351 21.5376 13.4875 21.6614 13.5881C21.7852 13.6887 21.9531 13.7452 22.1282 13.7452H25.7485C25.9236 13.7452 26.0915 13.6887 26.2153 13.5881C26.3391 13.4875 26.4087 13.351 26.4087 13.2088C26.4087 13.0665 26.3391 12.9301 26.2153 12.8295C26.0915 12.7289 25.9236 12.6724 25.7485 12.6724Z" fill="#065E4A"/>
<path d="M25.7485 5.24219H22.1282C21.9531 5.24219 21.7852 5.2987 21.6614 5.3993C21.5376 5.49989 21.468 5.63633 21.468 5.77859C21.468 5.92086 21.5376 6.05729 21.6614 6.15789C21.7852 6.25849 21.9531 6.315 22.1282 6.315H25.7485C25.9236 6.315 26.0915 6.25849 26.2153 6.15789C26.3391 6.05729 26.4087 5.92086 26.4087 5.77859C26.4087 5.63633 26.3391 5.49989 26.2153 5.3993C26.0915 5.2987 25.9236 5.24219 25.7485 5.24219Z" fill="#065E4A"/>
<path d="M25.7486 23.4005H4.62164C4.44654 23.4005 4.27861 23.457 4.1548 23.5576C4.03098 23.6582 3.96143 23.7947 3.96143 23.9369C3.96143 24.0792 4.03098 24.2156 4.1548 24.3162C4.27861 24.4168 4.44654 24.4733 4.62164 24.4733H25.7486C25.9237 24.4733 26.0917 24.4168 26.2155 24.3162C26.3393 24.2156 26.4089 24.0792 26.4089 23.9369C26.4089 23.7947 26.3393 23.6582 26.2155 23.5576C26.0917 23.457 25.9237 23.4005 25.7486 23.4005Z" fill="#065E4A"/>
<path d="M25.7485 26.0825H11.2278C11.0527 26.0825 10.8848 26.139 10.761 26.2396C10.6372 26.3402 10.5676 26.4767 10.5676 26.6189C10.5676 26.7612 10.6372 26.8976 10.761 26.9982C10.8848 27.0988 11.0527 27.1553 11.2278 27.1553H25.7485C25.9236 27.1553 26.0915 27.0988 26.2153 26.9982C26.3391 26.8976 26.4087 26.7612 26.4087 26.6189C26.4087 26.4767 26.3391 26.3402 26.2153 26.2396C26.0915 26.139 25.9236 26.0825 25.7485 26.0825Z" fill="#065E4A"/>
<path d="M6.6023 7.92431C7.12461 7.92431 7.6352 7.79847 8.06949 7.56271C8.50378 7.32694 8.84227 6.99184 9.04215 6.59978C9.24203 6.20772 9.29433 5.7763 9.19243 5.36009C9.09053 4.94388 8.83901 4.56157 8.46968 4.2615C8.10035 3.96143 7.62979 3.75707 7.11751 3.67429C6.60523 3.5915 6.07424 3.63399 5.59168 3.79638C5.10912 3.95878 4.69668 4.23379 4.40649 4.58664C4.11631 4.93948 3.96143 5.35432 3.96143 5.77868C3.96223 6.34754 4.24072 6.89291 4.7358 7.29515C5.23089 7.69739 5.90214 7.92366 6.6023 7.92431ZM6.6023 4.70587C6.86346 4.70587 7.11875 4.76879 7.3359 4.88667C7.55304 5.00455 7.72228 5.1721 7.82222 5.36813C7.92216 5.56417 7.94831 5.77987 7.89736 5.98798C7.84642 6.19608 7.72066 6.38724 7.53599 6.53728C7.35132 6.68731 7.11604 6.78949 6.8599 6.83088C6.60376 6.87228 6.33827 6.85103 6.09699 6.76983C5.85571 6.68863 5.64949 6.55113 5.5044 6.37471C5.35931 6.19828 5.28186 5.99087 5.28186 5.77868C5.28226 5.49426 5.42151 5.22157 5.66905 5.02045C5.9166 4.81933 6.25222 4.7062 6.6023 4.70587Z" fill="#065E4A"/>
</svg>
