<svg width="35" height="35" viewBox="0 0 35 35" fill="none" xmlns="http://www.w3.org/2000/svg">
<path d="M3.43842 31.4821H17.8349V30.3376H3.43842C2.52104 30.3376 1.77729 29.569 1.77729 28.6211V3.44584C1.77729 2.49761 2.52104 1.72936 3.43842 1.72936H27.8017C28.7195 1.72936 29.4628 2.49761 29.4628 3.44584V16.6055H30.5704V3.44584C30.5686 1.8666 29.3301 0.586947 27.8017 0.585083H3.43842C1.91039 0.586947 0.671865 1.8666 0.669922 3.44584V28.6211C0.671865 30.2003 1.91039 31.48 3.43842 31.4821Z" fill="#435363"/>
<path d="M2.88501 2.8739H3.99224V4.01803H2.88501V2.8739Z" fill="#435363"/>
<path d="M5.09961 2.8739H6.20726V4.01803H5.09961V2.8739Z" fill="#435363"/>
<path d="M7.31445 2.8739H8.42196V4.01803H7.31445V2.8739Z" fill="#435363"/>
<path d="M2.88501 5.16235H28.3555V6.30692H2.88501V5.16235Z" fill="#435363"/>
<path d="M8.5841 7.61865L7.17764 9.07198C5.98881 8.2587 4.3968 8.50823 3.49455 9.64921C2.59245 10.79 2.67336 12.4519 3.6815 13.4935C4.6895 14.5355 6.29788 14.6191 7.40206 13.6868C8.5061 12.7546 8.74773 11.1093 7.96053 9.8811L9.36685 8.42778L8.5841 7.61865ZM5.65308 13.1725C4.73585 13.1725 3.9921 12.4041 3.9921 11.4562C3.9921 10.5081 4.73585 9.73984 5.65308 9.73984C5.90012 9.7407 6.14314 9.79922 6.36478 9.91122L5.26185 11.0511L6.0446 11.8602L7.14836 10.7211C7.25675 10.9499 7.31352 11.2011 7.31435 11.4562C7.31435 12.4041 6.57087 13.1725 5.65308 13.1725Z" fill="#435363"/>
<path d="M10.083 9.73987H19.4959V10.884H10.083V9.73987Z" fill="#435363"/>
<path d="M10.083 12.0284H13.9589V13.1726H10.083V12.0284Z" fill="#435363"/>
<path d="M15.0664 12.0284H22.8181V13.1726H15.0664V12.0284Z" fill="#435363"/>
<path d="M20.6035 9.73987H26.1406V10.884H20.6035V9.73987Z" fill="#435363"/>
<path d="M8.5841 14.4846L7.17764 15.9379C5.98881 15.1247 4.3968 15.3742 3.49455 16.5152C2.59245 17.6562 2.67336 19.3179 3.6815 20.3597C4.6895 21.4015 6.29788 21.4851 7.40206 20.5528C8.5061 19.6205 8.74773 17.9757 7.96053 16.7471L9.36685 15.2937L8.5841 14.4846ZM5.65308 20.0386C4.73585 20.0386 3.9921 19.2701 3.9921 18.3222C3.9921 17.3741 4.73585 16.6055 5.65308 16.6055C5.90012 16.6065 6.14314 16.6652 6.36478 16.7772L5.26185 17.9173L6.0446 18.7261L7.14836 17.5869C7.25675 17.8159 7.31352 18.067 7.31435 18.3222C7.31435 19.2701 6.57087 20.0386 5.65308 20.0386Z" fill="#435363"/>
<path d="M10.083 16.6055H19.4959V17.7499H10.083V16.6055Z" fill="#435363"/>
<path d="M10.083 18.8943H13.9589V20.0386H10.083V18.8943Z" fill="#435363"/>
<path d="M15.0664 18.8943H19.4959V20.0386H15.0664V18.8943Z" fill="#435363"/>
<path d="M20.6035 16.6055H22.8183V17.7499H20.6035V16.6055Z" fill="#435363"/>
<path d="M8.5841 21.3506L7.17764 22.8039C5.98881 21.9906 4.3968 22.2402 3.49455 23.3811C2.59245 24.5221 2.67336 26.1838 3.6815 27.2257C4.6895 28.2676 6.29788 28.3509 7.40206 27.4187C8.5061 26.4864 8.74773 24.8415 7.96053 23.6129L9.36685 22.1597L8.5841 21.3506ZM5.65308 26.9046C4.73585 26.9046 3.9921 26.1361 3.9921 25.1881C3.9921 24.24 4.73585 23.4716 5.65308 23.4716C5.90012 23.4725 6.14314 23.531 6.36478 23.6432L5.26185 24.7833L6.0446 25.5921L7.14836 24.4529C7.25675 24.6819 7.31352 24.9331 7.31435 25.1881C7.31435 26.1361 6.57087 26.9046 5.65308 26.9046Z" fill="#435363"/>
<path d="M10.083 23.4717H17.2811V24.6162H10.083V23.4717Z" fill="#435363"/>
<path d="M10.083 25.7603H13.9589V26.9045H10.083V25.7603Z" fill="#435363"/>
<path d="M15.0664 25.7603H17.2811V26.9045H15.0664V25.7603Z" fill="#435363"/>
<path d="M26.6944 34.9151C31.2817 34.9151 34.9999 31.0723 34.9999 26.3326C34.9999 21.5924 31.2817 17.75 26.6944 17.75C22.1072 17.75 18.3887 21.5924 18.3887 26.3326C18.3941 31.0702 22.1094 34.9094 26.6944 34.9151ZM26.6944 18.8944C30.6697 18.8944 33.8927 22.2246 33.8927 26.3326C33.8927 30.4406 30.6697 33.7706 26.6944 33.7706C22.7188 33.7706 19.4959 30.4406 19.4959 26.3326C19.5006 22.2266 22.7206 18.899 26.6944 18.8944Z" fill="#435363"/>
<path d="M23.3169 26.6487L22.3257 27.1601L23.4332 29.4488C23.5126 29.6134 23.6641 29.7286 23.84 29.758C23.8686 29.7626 23.8972 29.765 23.9259 29.7654C24.0726 29.7654 24.2134 29.7051 24.3175 29.5978L30.9618 22.7319L30.179 21.9227L24.0774 28.2274L23.3169 26.6487Z" fill="#435363"/>
</svg>
