<svg width="37" height="35" viewBox="0 0 37 35" fill="none" xmlns="http://www.w3.org/2000/svg">
<path d="M4.9068 27.7066C5.12077 27.9635 5.08604 28.3451 4.82917 28.5591C4.71605 28.6534 4.57865 28.6994 4.44207 28.6994C4.26858 28.6994 4.09645 28.6252 3.97667 28.4815C2.38079 26.5661 1.24222 24.3654 0.592653 21.9407C-0.594346 17.513 0.0141347 12.888 2.30619 8.91755C4.59817 4.94737 8.29899 2.10714 12.727 0.920061C15.3827 0.209133 18.1955 0.144971 20.8615 0.734309C23.0167 1.21068 25.0822 2.11395 26.9053 3.36707L26.5428 2.01543C26.4562 1.6925 26.6478 1.36057 26.9707 1.27401C27.2938 1.18753 27.6255 1.37903 27.7121 1.70189L28.4327 4.38935C28.5194 4.71228 28.3277 5.04422 28.0048 5.13077L25.3174 5.85146C25.2649 5.86554 25.2121 5.87227 25.1602 5.87227C24.893 5.87227 24.6484 5.69401 24.576 5.42359C24.4893 5.10066 24.6809 4.76873 25.0038 4.68217L26.2105 4.35856C22.3858 1.73382 17.551 0.882154 13.0402 2.08943C8.92464 3.19275 5.48486 5.8327 3.35457 9.52285C1.22421 13.2131 0.658555 17.5119 1.76187 21.6273C2.36581 23.8815 3.42388 25.9269 4.90665 27.7067L4.9068 27.7066ZM22.7032 17.4986C22.7032 20.5502 20.2207 23.0328 17.1691 23.0328C14.1175 23.0328 11.6328 20.5502 11.6328 17.4986C11.6328 14.4471 14.1164 11.9624 17.1691 11.9624C20.2218 11.9624 22.7032 14.4459 22.7032 17.4986ZM21.4926 17.4986C21.4926 15.1135 19.5531 13.173 17.1691 13.173C14.7851 13.173 12.8435 15.1134 12.8435 17.4986C12.8435 19.8838 14.7839 21.8221 17.1691 21.8221C19.5543 21.8221 21.4926 19.8826 21.4926 17.4986ZM36.3657 33.1719C35.8207 34.1196 34.879 34.6641 33.7829 34.6641H19.9552C19.6632 34.6641 19.3825 34.6243 19.1169 34.5495C18.4596 34.6256 17.8025 34.6651 17.1477 34.6651C15.5367 34.6651 13.9377 34.4355 12.3719 33.9781C10.599 33.4601 8.9428 32.6724 7.43265 31.631L7.79333 32.9801C7.87966 33.3031 7.68786 33.6349 7.36493 33.7212C7.31257 33.7352 7.25991 33.7418 7.20823 33.7418C6.94084 33.7418 6.69615 33.5634 6.62381 33.2927L5.90532 30.6052C5.81899 30.2822 6.01079 29.9505 6.33372 29.8641L9.02119 29.1456C9.34435 29.0593 9.67598 29.2512 9.76231 29.574C9.84864 29.897 9.65683 30.2288 9.33391 30.3152L8.12723 30.6378C10.8947 32.5362 14.2151 33.5234 17.5514 33.4462C17.4879 33.3581 17.4271 33.2668 17.3715 33.1701C16.8235 32.2244 16.8233 31.1365 17.3721 30.1868L17.4595 30.0355H15.6356C15.3994 30.0355 15.1848 29.8983 15.0859 29.6838L14.0807 27.5054L12.2767 26.7597L10.0255 27.5875C9.80415 27.6689 9.55567 27.6143 9.38884 27.4476L7.21822 25.2792C7.05108 25.1122 6.9963 24.8633 7.07802 24.6416L7.90766 22.3908L7.16019 20.587L4.98352 19.5815C4.76924 19.4826 4.63199 19.2681 4.63199 19.032V15.9627C4.63199 15.7267 4.76917 15.5122 4.98352 15.4132L7.16026 14.4078L7.90758 12.606L7.07794 10.3554C6.9963 10.1338 7.05093 9.88497 7.21792 9.71799L9.38853 7.54737C9.55552 7.38038 9.80445 7.32575 10.0258 7.40739L12.2766 8.23704L14.0805 7.48956L15.0859 5.31289C15.1849 5.09862 15.3994 4.96136 15.6355 4.96136H18.7026C18.9386 4.96136 19.1531 5.09854 19.2521 5.31289L20.2575 7.48956L22.0615 8.23704L24.3122 7.40739C24.5337 7.3256 24.7827 7.38038 24.9497 7.5476L27.1182 9.71814C27.2848 9.88505 27.3395 10.1335 27.2581 10.3549L26.4303 12.606L27.1759 14.4077L29.3544 15.4131C29.5687 15.5119 29.706 15.7265 29.706 15.9627V18.6501L32.1701 22.9183C33.2723 19.8664 33.4215 16.5202 32.5763 13.3699C31.9724 11.1156 30.9143 9.07016 29.4315 7.29034C29.2175 7.03347 29.2522 6.65182 29.5091 6.43785C29.766 6.22395 30.1476 6.2586 30.3616 6.51548C31.9574 8.43088 33.096 10.6316 33.7456 13.0563C34.7414 16.7677 34.4549 20.7325 32.943 24.2571L36.3662 30.1869C36.9148 31.1363 36.9147 32.2243 36.3657 33.1716V33.1719ZM18.1584 28.8249L24.2848 18.2126C24.8295 17.2654 25.7713 16.7216 26.868 16.7216C27.4704 16.7216 28.0259 16.8868 28.4954 17.1922V16.3501L26.4535 15.4078C26.3152 15.344 26.206 15.2304 26.1479 15.0897L25.2213 12.8505C25.1632 12.7101 25.16 12.5528 25.2125 12.4101L25.9884 10.3002L24.3672 8.67747L22.2579 9.45498C22.1149 9.50764 21.9575 9.50447 21.8168 9.4462L19.5755 8.51752C19.435 8.45926 19.3215 8.3503 19.2577 8.21214L18.3154 6.17212H16.0226L15.0804 8.21214C15.0166 8.3503 14.9031 8.45933 14.7626 8.51752L12.5212 9.4462C12.3805 9.50454 12.223 9.50764 12.0802 9.45498L9.97061 8.67739L8.34787 10.3001L9.12545 12.4096C9.17811 12.5526 9.17501 12.7101 9.1166 12.8509L8.18792 15.09C8.12965 15.2305 8.0207 15.3439 7.88262 15.4077L5.84267 16.3499V18.6448L7.88262 19.5871C8.02078 19.6509 8.12981 19.7644 8.18799 19.9049L9.11668 22.1462C9.17501 22.2869 9.17811 22.4444 9.12545 22.5873L8.34794 24.6967L9.97068 26.3177L12.0806 25.5419C12.2233 25.4895 12.3804 25.4926 12.5207 25.5506L14.7621 26.4772C14.9029 26.5354 15.0166 26.6445 15.0805 26.7829L16.0228 28.8248H18.1583L18.1584 28.8249ZM35.3179 30.7926L28.4051 18.818C28.075 18.2468 27.5291 17.9322 26.868 17.9322C26.2069 17.9322 25.6618 18.2463 25.3337 18.8169L18.4205 30.7922C18.0895 31.3649 18.0894 31.9943 18.42 32.5648C18.7498 33.1384 19.2948 33.4533 19.9552 33.4533H33.7829C34.4434 33.4533 34.9884 33.1384 35.3172 32.5665C35.6488 31.9943 35.6487 31.365 35.3178 30.7925L35.3179 30.7926ZM28.208 21.763C28.5408 22.1135 28.7108 22.5653 28.6865 23.0355L28.5021 26.6619C28.4544 27.562 27.7366 28.266 26.868 28.266C25.9994 28.266 25.2839 27.5619 25.2362 26.6632L25.0516 23.035C25.0274 22.5652 25.1974 22.113 25.5304 21.7625C25.8776 21.3968 26.3652 21.1871 26.868 21.1871C27.3709 21.1871 27.8605 21.397 28.208 21.7629V21.763ZM27.4775 22.9736C27.4869 22.7905 27.3892 22.6589 27.3302 22.5967C27.2102 22.4703 27.0417 22.3978 26.8681 22.3978C26.6956 22.3978 26.528 22.4701 26.4083 22.5962C26.3491 22.6585 26.2514 22.7903 26.2607 22.9731L26.4452 26.6004C26.4589 26.8592 26.6407 27.0554 26.868 27.0554C27.1284 27.0554 27.2814 26.8203 27.2931 26.5991L27.4775 22.9736ZM28.5029 30.4576C28.5029 31.359 27.7695 32.0924 26.868 32.0924C25.9666 32.0924 25.2354 31.359 25.2354 30.4576C25.2354 29.5561 25.9678 28.8249 26.868 28.8249C27.7682 28.8249 28.5029 29.5573 28.5029 30.4576ZM27.2923 30.4576C27.2923 30.2248 27.102 30.0355 26.868 30.0355C26.6353 30.0355 26.446 30.2248 26.446 30.4576C26.446 30.6915 26.6353 30.8818 26.868 30.8818C27.102 30.8818 27.2923 30.6915 27.2923 30.4576Z" fill="#BB2649"/>
</svg>
