<svg width="35" height="35" viewBox="0 0 35 35" fill="none" xmlns="http://www.w3.org/2000/svg">
<path d="M31.4692 0.0849609H2.86083C1.28161 0.0868211 0.00186019 1.36657 0 2.94579V31.5541C0.00186019 33.1334 1.28161 34.4131 2.86083 34.415H31.4692C33.0484 34.4131 34.3281 33.1334 34.33 31.5541V2.94579C34.3281 1.36657 33.0484 0.0868211 31.4692 0.0849609ZM2.86083 1.22929H31.4692C32.4167 1.23033 33.1846 1.99823 33.1857 2.94579V6.95096H1.14433V2.94579C1.14537 1.99823 1.91327 1.23033 2.86083 1.22929ZM31.4692 33.2706H2.86083C1.91327 33.2696 1.14537 32.5017 1.14433 31.5541V8.09529H33.1857V31.5541C33.1846 32.5017 32.4167 33.2696 31.4692 33.2706Z" fill="#CD9D35"/>
<path d="M4.00507 5.80666C4.95307 5.80666 5.72157 5.03815 5.72157 4.09016C5.72157 3.14216 4.95307 2.37366 4.00507 2.37366C3.05708 2.37366 2.28857 3.14216 2.28857 4.09016C2.28961 5.03772 3.05751 5.80562 4.00507 5.80666ZM4.00507 3.51799C4.32107 3.51799 4.57724 3.77416 4.57724 4.09016C4.57724 4.40616 4.32107 4.66232 4.00507 4.66232C3.68908 4.66232 3.43291 4.40616 3.43291 4.09016C3.43319 3.77428 3.68919 3.51827 4.00507 3.51799Z" fill="#CD9D35"/>
<path d="M8.58247 5.80666C9.53046 5.80666 10.299 5.03815 10.299 4.09016C10.299 3.14216 9.53046 2.37366 8.58247 2.37366C7.63447 2.37366 6.86597 3.14216 6.86597 4.09016C6.86701 5.03772 7.6349 5.80562 8.58247 5.80666ZM8.58247 3.51799C8.89847 3.51799 9.15463 3.77416 9.15463 4.09016C9.15463 4.40616 8.89847 4.66232 8.58247 4.66232C8.26647 4.66232 8.0103 4.40616 8.0103 4.09016C8.01058 3.77428 8.26659 3.51827 8.58247 3.51799Z" fill="#CD9D35"/>
<path d="M13.1599 5.80666C14.1079 5.80666 14.8764 5.03815 14.8764 4.09016C14.8764 3.14216 14.1079 2.37366 13.1599 2.37366C12.2119 2.37366 11.4434 3.14216 11.4434 4.09016C11.4444 5.03772 12.2123 5.80562 13.1599 5.80666ZM13.1599 3.51799C13.4759 3.51799 13.732 3.77416 13.732 4.09016C13.732 4.40616 13.4759 4.66232 13.1599 4.66232C12.8439 4.66232 12.5877 4.40616 12.5877 4.09016C12.588 3.77428 12.844 3.51827 13.1599 3.51799Z" fill="#CD9D35"/>
<path d="M10.2989 9.81177C7.45492 9.81177 5.14941 12.1173 5.14941 14.9613C5.14941 17.8053 7.45492 20.1108 10.2989 20.1108C13.1429 20.1108 15.4484 17.8053 15.4484 14.9613C15.4453 12.1186 13.1416 9.81492 10.2989 9.81177ZM10.2989 18.9664C8.08692 18.9664 6.29375 17.1733 6.29375 14.9613C6.29375 12.7493 8.08692 10.9561 10.2989 10.9561C12.5109 10.9561 14.3041 12.7493 14.3041 14.9613C14.3015 17.1722 12.5098 18.9639 10.2989 18.9664Z" fill="#CD9D35"/>
<path d="M10.2989 21.2551C7.45492 21.2551 5.14941 23.5606 5.14941 26.4046C5.14941 29.2486 7.45492 31.5541 10.2989 31.5541C13.1429 31.5541 15.4484 29.2486 15.4484 26.4046C15.4453 23.5619 13.1416 21.2583 10.2989 21.2551ZM10.2989 30.4098C8.08692 30.4098 6.29375 28.6166 6.29375 26.4046C6.29375 24.1926 8.08692 22.3995 10.2989 22.3995C12.5109 22.3995 14.3041 24.1926 14.3041 26.4046C14.3015 28.6156 12.5098 30.4072 10.2989 30.4098Z" fill="#CD9D35"/>
<path d="M8.0104 14.9612C8.3264 14.9612 8.58257 14.7051 8.58257 14.3891C8.58257 14.0731 8.3264 13.8169 8.0104 13.8169C7.6944 13.8169 7.43823 14.0731 7.43823 14.3891C7.43823 14.7051 7.6944 14.9612 8.0104 14.9612Z" fill="#CD9D35"/>
<path d="M12.5875 14.9612C12.9035 14.9612 13.1597 14.7051 13.1597 14.3891C13.1597 14.0731 12.9035 13.8169 12.5875 13.8169C12.2715 13.8169 12.0154 14.0731 12.0154 14.3891C12.0154 14.7051 12.2715 14.9612 12.5875 14.9612Z" fill="#CD9D35"/>
<path d="M11.5769 15.4522C11.2859 15.3294 10.9505 15.465 10.8265 15.7554C10.7975 15.8238 10.7556 15.886 10.703 15.9385C10.6511 15.9905 10.5896 16.032 10.5219 16.0606C10.3793 16.1204 10.2187 16.1204 10.0761 16.0606C9.9388 16.0022 9.82959 15.8927 9.77152 15.7553C9.64809 15.4643 9.31213 15.3284 9.02112 15.4518C8.73012 15.5753 8.59427 15.9112 8.7177 16.2022C8.80399 16.4055 8.92863 16.5903 9.08481 16.7465C9.40644 17.069 9.84314 17.2502 10.2986 17.2503C10.754 17.2504 11.1908 17.0694 11.5126 16.747C11.669 16.5908 11.7939 16.4058 11.8803 16.2022C12.0036 15.9113 11.8678 15.5755 11.5769 15.4522Z" fill="#CD9D35"/>
<path d="M8.0104 26.4046C8.3264 26.4046 8.58257 26.1484 8.58257 25.8324C8.58257 25.5164 8.3264 25.2603 8.0104 25.2603C7.6944 25.2603 7.43823 25.5164 7.43823 25.8324C7.43823 26.1484 7.6944 26.4046 8.0104 26.4046Z" fill="#CD9D35"/>
<path d="M12.5875 26.4046C12.9035 26.4046 13.1597 26.1484 13.1597 25.8324C13.1597 25.5164 12.9035 25.2603 12.5875 25.2603C12.2715 25.2603 12.0154 25.5164 12.0154 25.8324C12.0154 26.1484 12.2715 26.4046 12.5875 26.4046Z" fill="#CD9D35"/>
<path d="M11.5132 27.4803C11.3568 27.323 11.1712 27.1978 10.9667 27.1118C10.5395 26.933 10.0585 26.933 9.63128 27.1118C9.42706 27.1976 9.24161 27.3226 9.08538 27.4797C8.92895 27.636 8.80412 27.821 8.7177 28.0245C8.59427 28.3155 8.73012 28.6515 9.02112 28.7749C9.31213 28.8984 9.64809 28.7625 9.77152 28.4715C9.80052 28.4031 9.84244 28.3409 9.89499 28.2884C9.94693 28.2364 10.0084 28.195 10.0761 28.1663C10.2187 28.1065 10.3793 28.1065 10.5219 28.1663C10.6592 28.2247 10.7684 28.3342 10.8265 28.4717C10.9499 28.7627 11.2859 28.8985 11.5769 28.7751C11.8679 28.6517 12.0037 28.3157 11.8803 28.0247C11.794 27.8213 11.6694 27.6365 11.5132 27.4803Z" fill="#CD9D35"/>
<path d="M27.4641 14.9612C27.1481 14.9612 26.8919 15.2174 26.8919 15.5334V17.8221C26.8916 18.138 26.6356 18.394 26.3198 18.3942H20.5981C20.2822 18.394 20.0262 18.138 20.0259 17.8221V12.1004C20.0262 11.7845 20.2822 11.5285 20.5981 11.5282H26.3198C26.6358 11.5282 26.8919 11.2721 26.8919 10.9561C26.8919 10.6401 26.6358 10.3839 26.3198 10.3839H20.5981C19.6505 10.385 18.8826 11.1528 18.8816 12.1004V17.8221C18.8826 18.7696 19.6505 19.5375 20.5981 19.5386H26.3198C27.2673 19.5375 28.0352 18.7696 28.0363 17.8221V15.5334C28.0363 15.2174 27.7801 14.9612 27.4641 14.9612Z" fill="#CD9D35"/>
<path d="M26.3198 21.8273H20.5981C19.6505 21.8283 18.8826 22.5962 18.8816 23.5438V29.2654C18.8826 30.213 19.6505 30.9809 20.5981 30.9819H26.3198C27.2673 30.9809 28.0352 30.213 28.0363 29.2654V23.5438C28.0352 22.5962 27.2673 21.8283 26.3198 21.8273ZM26.8919 29.2654C26.8916 29.5813 26.6356 29.8373 26.3198 29.8376H20.5981C20.2822 29.8373 20.0262 29.5813 20.0259 29.2654V23.5438C20.0262 23.2279 20.2822 22.9719 20.5981 22.9716H26.3198C26.6356 22.9719 26.8916 23.2279 26.8919 23.5438V29.2654Z" fill="#CD9D35"/>
<path d="M28.776 10.5516L23.4589 15.8687L22.1469 14.5568C21.9224 14.3399 21.5655 14.343 21.3448 14.5637C21.1241 14.7844 21.121 15.1413 21.3379 15.3658L23.0544 17.0823C23.1616 17.1897 23.3071 17.25 23.4589 17.25C23.6106 17.25 23.7561 17.1897 23.8634 17.0823L29.5851 11.3606C29.8019 11.1361 29.7988 10.7793 29.5781 10.5586C29.3574 10.3379 29.0005 10.3348 28.776 10.5516Z" fill="#CD9D35"/>
</svg>
