<svg width="35" height="35" viewBox="0 0 35 35" fill="none" xmlns="http://www.w3.org/2000/svg">
<path d="M27.5866 16.0029L24.1658 19.4225L22.6823 17.9291C22.5672 17.8142 22.4111 17.7496 22.2484 17.7498C22.0858 17.7499 21.9298 17.8146 21.8148 17.9297C21.6999 18.0448 21.6354 18.2009 21.6355 18.3636C21.6356 18.5262 21.7003 18.6822 21.8155 18.7972L23.7416 20.7233C23.8566 20.8383 24.0125 20.9028 24.175 20.9028C24.3376 20.9028 24.4935 20.8383 24.6084 20.7233L28.4632 16.8698C28.5218 16.8132 28.5685 16.7456 28.6006 16.6708C28.6327 16.596 28.6496 16.5156 28.6503 16.4342C28.6511 16.3528 28.6355 16.272 28.6047 16.1967C28.5739 16.1214 28.5284 16.0529 28.4708 15.9954C28.4133 15.9378 28.3448 15.8923 28.2695 15.8614C28.1941 15.8306 28.1134 15.8151 28.032 15.8158C27.9506 15.8165 27.8702 15.8334 27.7954 15.8656C27.7206 15.8977 27.6529 15.9444 27.5964 16.0029H27.5866Z" fill="#00AD68"/>
<path d="M32.4909 18.3631C32.4877 16.6263 31.8707 14.9466 30.7489 13.6206C29.6271 12.2947 28.0728 11.408 26.3605 11.117V7.94152C26.3607 7.86096 26.3449 7.78116 26.3142 7.70669C26.2835 7.63221 26.2384 7.56452 26.1815 7.50749L21.2773 2.6032C21.2202 2.54631 21.1525 2.50122 21.0781 2.4705C21.0036 2.43979 20.9238 2.42405 20.8432 2.4242H6.13036C5.96777 2.4242 5.81185 2.48878 5.69688 2.60375C5.58191 2.71872 5.51733 2.87464 5.51733 3.03723V6.10241H2.45215C2.28956 6.10241 2.13363 6.167 2.01867 6.28196C1.9037 6.39693 1.83911 6.55286 1.83911 6.71545V32.4629C1.83911 32.6255 1.9037 32.7815 2.01867 32.8964C2.13363 33.0114 2.28956 33.076 2.45215 33.076H23.2954C23.458 33.076 23.6139 33.0114 23.7288 32.8964C23.8438 32.7815 23.9084 32.6255 23.9084 32.4629V29.3978H25.7475C25.9101 29.3978 26.066 29.3332 26.181 29.2182C26.296 29.1032 26.3605 28.9473 26.3605 28.7847V25.6092C28.0728 25.3183 29.6271 24.4315 30.7489 23.1056C31.8707 21.7797 32.4877 20.0999 32.4909 18.3631ZM21.4563 4.5171L24.2676 7.32848H21.4563V4.5171ZM22.6823 31.8499H3.06518V7.32848H5.51733V28.7847C5.51733 28.9473 5.58191 29.1032 5.69688 29.2182C5.81185 29.3332 5.96777 29.3978 6.13036 29.3978H22.6823V31.8499ZM25.1345 28.1717H6.7434V3.65027H20.2302V7.94152C20.2302 8.1041 20.2948 8.26003 20.4097 8.375C20.5247 8.48997 20.6806 8.55455 20.8432 8.55455H25.1345V11.0067C23.1834 11.0067 21.3123 11.7817 19.9327 13.1613C18.5531 14.5409 17.778 16.4121 17.778 18.3631C17.778 20.3142 18.5531 22.1853 19.9327 23.5649C21.3123 24.9445 23.1834 25.7196 25.1345 25.7196V28.1717ZM25.1345 24.4935C23.922 24.4935 22.7368 24.1339 21.7286 23.4603C20.7205 22.7867 19.9348 21.8293 19.4708 20.7091C19.0068 19.5889 18.8854 18.3563 19.1219 17.1672C19.3584 15.978 19.9423 14.8857 20.7997 14.0283C21.657 13.171 22.7493 12.5871 23.9385 12.3506C25.1277 12.114 26.3603 12.2354 27.4805 12.6994C28.6006 13.1634 29.5581 13.9492 30.2317 14.9573C30.9053 15.9654 31.2648 17.1507 31.2648 18.3631C31.2629 19.9884 30.6164 21.5466 29.4671 22.6958C28.3179 23.845 26.7597 24.4915 25.1345 24.4935Z" fill="#00AD68"/>
<path d="M12.8736 17.316L10.9757 19.2214L10.24 18.4857C10.1251 18.3706 9.96911 18.3059 9.80644 18.3058C9.64376 18.3056 9.4877 18.3701 9.37259 18.4851C9.25748 18.6 9.19274 18.756 9.19263 18.9187C9.19251 19.0814 9.25703 19.2374 9.37197 19.3525L10.5404 20.5198C10.6554 20.6347 10.8113 20.6993 10.9738 20.6993C11.1364 20.6993 11.2923 20.6347 11.4073 20.5198L13.7429 18.1902C13.858 18.0753 13.9228 17.9193 13.9229 17.7566C13.923 17.594 13.8585 17.4379 13.7435 17.3228C13.6286 17.2077 13.4726 17.1429 13.3099 17.1428C13.1473 17.1427 12.9912 17.2072 12.8761 17.3222L12.8736 17.316Z" fill="#00AD68"/>
<path d="M12.8736 22.2203L10.9757 24.1257L10.24 23.39C10.1831 23.333 10.1155 23.2878 10.0411 23.2569C9.96674 23.226 9.88699 23.2101 9.80644 23.21C9.72589 23.21 9.64612 23.2258 9.57167 23.2566C9.49723 23.2873 9.42958 23.3325 9.37259 23.3894C9.31559 23.4463 9.27036 23.5139 9.23948 23.5883C9.20861 23.6627 9.19268 23.7424 9.19263 23.823C9.19257 23.9035 9.20838 23.9833 9.23915 24.0578C9.26992 24.1322 9.31506 24.1998 9.37197 24.2568L10.5404 25.4241C10.6554 25.539 10.8113 25.6035 10.9738 25.6035C11.1364 25.6035 11.2923 25.539 11.4073 25.4241L13.7429 23.0945C13.858 22.9796 13.9228 22.8236 13.9229 22.6609C13.923 22.4983 13.8585 22.3422 13.7435 22.2271C13.6286 22.112 13.4726 22.0472 13.3099 22.0471C13.1473 22.047 12.9912 22.1115 12.8761 22.2265L12.8736 22.2203Z" fill="#00AD68"/>
<path d="M9.80859 7.32849H17.165C17.3276 7.32849 17.4835 7.2639 17.5985 7.14893C17.7135 7.03397 17.7781 6.87804 17.7781 6.71545C17.7781 6.55287 17.7135 6.39694 17.5985 6.28197C17.4835 6.167 17.3276 6.10242 17.165 6.10242H9.80859C9.64601 6.10242 9.49008 6.167 9.37511 6.28197C9.26014 6.39694 9.19556 6.55287 9.19556 6.71545C9.19556 6.87804 9.26014 7.03397 9.37511 7.14893C9.49008 7.2639 9.64601 7.32849 9.80859 7.32849Z" fill="#00AD68"/>
<path d="M17.165 9.78064H9.80859C9.64601 9.78064 9.49008 9.84523 9.37511 9.96019C9.26014 10.0752 9.19556 10.2311 9.19556 10.3937C9.19556 10.5563 9.26014 10.7122 9.37511 10.8272C9.49008 10.9421 9.64601 11.0067 9.80859 11.0067H17.165C17.3276 11.0067 17.4835 10.9421 17.5985 10.8272C17.7135 10.7122 17.7781 10.5563 17.7781 10.3937C17.7781 10.2311 17.7135 10.0752 17.5985 9.96019C17.4835 9.84523 17.3276 9.78064 17.165 9.78064Z" fill="#00AD68"/>
<path d="M13.4868 13.4589H9.80859C9.64601 13.4589 9.49008 13.5234 9.37511 13.6384C9.26014 13.7534 9.19556 13.9093 9.19556 14.0719C9.19556 14.2345 9.26014 14.3904 9.37511 14.5054C9.49008 14.6203 9.64601 14.6849 9.80859 14.6849H13.4868C13.6494 14.6849 13.8053 14.6203 13.9203 14.5054C14.0353 14.3904 14.0998 14.2345 14.0998 14.0719C14.0998 13.9093 14.0353 13.7534 13.9203 13.6384C13.8053 13.5234 13.6494 13.4589 13.4868 13.4589Z" fill="#00AD68"/>
</svg>
