<svg width="20" height="20" viewBox="0 0 20 20" fill="none" xmlns="http://www.w3.org/2000/svg">
<path d="M18.75 16.6667H1.25C0.559692 16.6667 0 16.1071 0 15.4167V2.91675C0 2.22629 0.559692 1.66675 1.25 1.66675H7.5V2.50003H1.25C1.0199 2.50003 0.833282 2.68665 0.833282 2.91675V15.4167C0.833282 15.6469 1.0199 15.8333 1.25 15.8333H18.75C18.9801 15.8333 19.1667 15.6469 19.1667 15.4167V11.25H20V15.4167C20 16.1071 19.4403 16.6667 18.75 16.6667Z" fill="#435363"/>
<path d="M14.5833 20H5.41672C5.18661 20 5 19.8134 5 19.5833V17.9167C5 17.6866 5.18661 17.5 5.41672 17.5H14.5833C14.8134 17.5 15 17.6866 15 17.9167V19.5833C15 19.8134 14.8134 20 14.5833 20ZM5.83328 19.1667H14.1667V18.3333H5.83328V19.1667Z" fill="#435363"/>
<path d="M6.6665 16.25H7.49979V17.9167H6.6665V16.25Z" fill="#435363"/>
<path d="M12.5 16.25H13.3333V17.9167H12.5V16.25Z" fill="#435363"/>
<path d="M17.0831 15H2.9165C2.22604 15 1.6665 14.4403 1.6665 13.75V4.58325C1.6665 3.89294 2.22604 3.33325 2.9165 3.33325H7.49979V4.16669H2.9165C2.6864 4.16669 2.49979 4.35315 2.49979 4.58325V13.75C2.49979 13.9801 2.6864 14.1667 2.9165 14.1667H17.0831C17.3132 14.1667 17.4998 13.9801 17.4998 13.75V11.25H18.3331V13.75C18.3331 14.4403 17.7735 15 17.0831 15Z" fill="#435363"/>
<path d="M14.1667 11.6667H6.66666C6.49805 11.6666 6.34623 11.5651 6.28168 11.4095C6.21729 11.2538 6.25284 11.0745 6.37202 10.9554L8.33323 8.99414V5.83328C8.33323 2.61169 10.9449 0 14.1667 0C17.3883 0 19.9999 2.61169 19.9999 5.83328C19.9999 9.05502 17.3883 11.6667 14.1667 11.6667ZM7.67237 10.8333H14.1667C16.928 10.8333 19.1667 8.59482 19.1667 5.83328C19.1667 3.0719 16.928 0.833282 14.1667 0.833282C11.4051 0.833282 9.16666 3.0719 9.16666 5.83328V9.16672C9.16666 9.27719 9.12272 9.38309 9.04459 9.46121L7.67237 10.8333Z" fill="#435363"/>
<path d="M14.5831 8.33325H13.7498V5.41669H12.9165V4.58325H14.1665C14.3966 4.58325 14.5831 4.76987 14.5831 4.99997V8.33325Z" fill="#435363"/>
<path d="M12.9165 7.91675H15.4165V8.75003H12.9165V7.91675Z" fill="#435363"/>
<path d="M13.75 2.91675H14.5833V3.75003H13.75V2.91675Z" fill="#435363"/>
<path d="M4.16693 7.08328H3.3335V6.25C3.3335 5.55969 3.89319 5 4.5835 5H5.41693V5.83328H4.5835C4.35339 5.83328 4.16693 6.0199 4.16693 6.25V7.08328Z" fill="#435363"/>
<path d="M3.3335 7.91675H4.16693V8.75003H3.3335V7.91675Z" fill="#435363"/>
</svg>
