<svg width="19" height="19" viewBox="0 0 19 19" fill="none" xmlns="http://www.w3.org/2000/svg">
<g clip-path="url(#clip0_927_3245)">
<path d="M9.42188 0.5C4.45137 0.5 0.421875 4.52949 0.421875 9.5C0.421875 14.4705 4.45137 18.5 9.42188 18.5C14.3924 18.5 18.4219 14.4705 18.4219 9.5C18.4163 4.53184 14.39 0.505566 9.42188 0.5ZM17.2056 12.6529L14.6461 13.0946C14.9391 12.0201 15.0973 10.9134 15.117 9.8H17.8144C17.7806 10.7794 17.5745 11.7452 17.2056 12.6529ZM1.02935 9.8H3.72671C3.74648 10.9134 3.90469 12.0201 4.19766 13.0946L1.63813 12.6529C1.26929 11.7452 1.06318 10.7794 1.02935 9.8ZM1.63813 6.34707L4.19766 5.90542C3.90469 6.97988 3.74648 8.08657 3.72671 9.2H1.02935C1.06318 8.22061 1.26929 7.25483 1.63813 6.34707ZM9.72188 5.31685C10.7999 5.33062 11.8752 5.42876 12.9379 5.61055L13.9969 5.79321C14.3222 6.90034 14.4973 8.04614 14.5173 9.2H9.72188V5.31685ZM13.0402 5.01919C11.9438 4.83184 10.8341 4.73062 9.72188 4.71685V1.11685C11.4417 1.28208 12.9357 2.85679 13.7824 5.14854L13.0402 5.01919ZM9.12188 4.71685C8.00962 4.73062 6.90029 4.83184 5.80386 5.01919L5.06133 5.14766C5.90801 2.85532 7.402 1.28003 9.12188 1.11553V4.71685ZM5.9061 5.61055C6.9687 5.42876 8.0439 5.33062 9.12188 5.31685V9.2H4.32642C4.34648 8.04614 4.52153 6.90034 4.84688 5.79321L5.9061 5.61055ZM4.32642 9.8H9.12188V13.6832C8.0439 13.6694 6.96855 13.5712 5.90581 13.3895L4.84688 13.2068C4.52153 12.0997 4.34648 10.9539 4.32642 9.8ZM5.80356 13.9808C6.9 14.1685 8.00947 14.2701 9.12188 14.2848V17.8848C7.402 17.7194 5.90801 16.1447 5.06133 13.8529L5.80356 13.9808ZM9.72188 14.2848C10.8341 14.2701 11.9435 14.1685 13.0399 13.9808L13.7824 13.8523C12.9357 16.1447 11.4417 17.72 9.72188 17.8845V14.2848ZM12.9376 13.3895C11.875 13.5712 10.7999 13.6694 9.72188 13.6832V9.8H14.5173C14.4973 10.9539 14.3222 12.0997 13.9969 13.2068L12.9376 13.3895ZM15.117 9.2C15.0973 8.08657 14.9391 6.97988 14.6461 5.90542L17.2056 6.34707C17.5745 7.25483 17.7806 8.22061 17.8144 9.2H15.117ZM16.9021 5.68584L14.4486 5.2625C14.0076 3.82358 13.1824 2.53218 12.0618 1.52744C14.1573 2.22676 15.895 3.71958 16.9021 5.68584ZM6.78193 1.52744C5.66133 2.53218 4.83618 3.82358 4.39512 5.2625L1.94165 5.68584C2.94873 3.71958 4.68647 2.22676 6.78193 1.52744ZM1.94165 13.3142L4.39512 13.7375C4.83618 15.1764 5.66133 16.4678 6.78193 17.4726C4.68647 16.7732 2.94873 15.2804 1.94165 13.3142ZM12.0618 17.4726C13.1824 16.4678 14.0076 15.1764 14.4486 13.7375L16.9021 13.3142C15.895 15.2804 14.1573 16.7732 12.0618 17.4726Z" fill="white"/>
</g>
<defs>
<clipPath id="clip0_927_3245">
<rect width="18" height="18" fill="white" transform="translate(0.421875 0.5)"/>
</clipPath>
</defs>
</svg>
