<svg width="25" height="25" viewBox="0 0 25 25" fill="none" xmlns="http://www.w3.org/2000/svg">
<path d="M7.29158 11.198H5.20825C2.68742 11.198 1.302 9.81254 1.302 7.29171V5.20837C1.302 2.68754 2.68742 1.30212 5.20825 1.30212H7.29158C9.81242 1.30212 11.1978 2.68754 11.1978 5.20837V7.29171C11.1978 9.81254 9.81242 11.198 7.29158 11.198ZM5.20825 2.86462C3.56242 2.86462 2.8645 3.56254 2.8645 5.20837V7.29171C2.8645 8.93754 3.56242 9.63546 5.20825 9.63546H7.29158C8.93742 9.63546 9.63533 8.93754 9.63533 7.29171V5.20837C9.63533 3.56254 8.93742 2.86462 7.29158 2.86462H5.20825Z" fill="#0A5E4A"/>
<path d="M19.7916 11.198H17.7083C15.1874 11.198 13.802 9.81254 13.802 7.29171V5.20837C13.802 2.68754 15.1874 1.30212 17.7083 1.30212H19.7916C22.3124 1.30212 23.6978 2.68754 23.6978 5.20837V7.29171C23.6978 9.81254 22.3124 11.198 19.7916 11.198ZM17.7083 2.86462C16.0624 2.86462 15.3645 3.56254 15.3645 5.20837V7.29171C15.3645 8.93754 16.0624 9.63546 17.7083 9.63546H19.7916C21.4374 9.63546 22.1353 8.93754 22.1353 7.29171V5.20837C22.1353 3.56254 21.4374 2.86462 19.7916 2.86462H17.7083Z" fill="#0A5E4A"/>
<path d="M19.7916 23.698H17.7083C15.1874 23.698 13.802 22.3125 13.802 19.7917V17.7084C13.802 15.1875 15.1874 13.8021 17.7083 13.8021H19.7916C22.3124 13.8021 23.6978 15.1875 23.6978 17.7084V19.7917C23.6978 22.3125 22.3124 23.698 19.7916 23.698ZM17.7083 15.3646C16.0624 15.3646 15.3645 16.0625 15.3645 17.7084V19.7917C15.3645 21.4375 16.0624 22.1355 17.7083 22.1355H19.7916C21.4374 22.1355 22.1353 21.4375 22.1353 19.7917V17.7084C22.1353 16.0625 21.4374 15.3646 19.7916 15.3646H17.7083Z" fill="#0A5E4A"/>
<path d="M7.29158 23.698H5.20825C2.68742 23.698 1.302 22.3125 1.302 19.7917V17.7084C1.302 15.1875 2.68742 13.8021 5.20825 13.8021H7.29158C9.81242 13.8021 11.1978 15.1875 11.1978 17.7084V19.7917C11.1978 22.3125 9.81242 23.698 7.29158 23.698ZM5.20825 15.3646C3.56242 15.3646 2.8645 16.0625 2.8645 17.7084V19.7917C2.8645 21.4375 3.56242 22.1355 5.20825 22.1355H7.29158C8.93742 22.1355 9.63533 21.4375 9.63533 19.7917V17.7084C9.63533 16.0625 8.93742 15.3646 7.29158 15.3646H5.20825Z" fill="#0A5E4A"/>
</svg>
