<svg width="50" height="50" viewBox="0 0 50 50" fill="none" xmlns="http://www.w3.org/2000/svg">
<path d="M5.31767 19.2998C5.39185 19.4357 5.49364 19.5474 5.61373 19.6246C5.73381 19.7019 5.86833 19.7421 6.00497 19.7418H6.00595C6.14251 19.742 6.27694 19.7017 6.39692 19.6244C6.5169 19.5471 6.61859 19.4354 6.69267 19.2995L9.41581 14.3305C9.51413 14.1514 9.55986 13.9389 9.54593 13.7259C9.532 13.5128 9.45919 13.3112 9.33876 13.1521C9.25853 13.0489 9.16079 12.9668 9.05194 12.9114C8.94309 12.8559 8.82559 12.8283 8.70712 12.8304H7.2372C7.03522 12.8274 6.83972 12.9149 6.6899 13.0753C6.54007 13.2358 6.44698 13.4575 6.42929 13.6958C6.42215 13.8225 6.43705 13.9496 6.47308 14.0692C6.50912 14.1888 6.5655 14.2984 6.63875 14.3911C6.712 14.4839 6.80055 14.5578 6.8989 14.6083C6.99726 14.6588 7.10333 14.6849 7.21054 14.6849H7.35497L6.00497 17.148L4.65517 14.6849C4.93176 14.6849 5.19703 14.5547 5.39262 14.3231C5.58821 14.0914 5.69811 13.7772 5.69814 13.4495V11.4107C5.69814 9.93268 6.1938 8.51521 7.07608 7.4701C7.95836 6.42499 9.15499 5.83785 10.4027 5.83785H12.5535C12.7555 5.8409 12.951 5.7534 13.1008 5.59289C13.2507 5.43238 13.3437 5.21072 13.3614 4.97234C13.3685 4.84564 13.3536 4.71855 13.3176 4.59896C13.2816 4.47936 13.2252 4.36981 13.1519 4.27709C13.0787 4.18438 12.9901 4.11047 12.8918 4.05994C12.7934 4.00942 12.6874 3.98337 12.5802 3.9834H10.4024C8.73949 3.9834 7.14467 4.76591 5.96879 6.1588C4.79292 7.55169 4.13232 9.44085 4.13232 11.4107V12.8307H3.30331C3.18487 12.8285 3.06739 12.8561 2.95856 12.9115C2.84972 12.9669 2.752 13.0489 2.67177 13.1521C2.55127 13.311 2.47831 13.5125 2.46419 13.7254C2.45007 13.9384 2.49557 14.1509 2.59364 14.3301L5.31767 19.2998Z" fill="#00AD68"/>
<path d="M44.6824 30.7003C44.5929 30.5369 44.4641 30.4092 44.3126 30.3337C44.1611 30.2582 43.9939 30.2385 43.8327 30.2771C43.7219 30.3056 43.6171 30.3601 43.5244 30.4375C43.4317 30.5148 43.353 30.6134 43.293 30.7274L40.584 35.6706C40.4801 35.8607 40.4354 36.0878 40.4576 36.3127C40.4799 36.5376 40.5677 36.7463 40.7059 36.9028C40.8646 37.0784 41.0747 37.1741 41.2918 37.1697H42.7593C42.9624 37.1732 43.1591 37.0854 43.3097 36.924C43.4604 36.7626 43.5538 36.5396 43.5712 36.2999C43.5778 36.1735 43.5625 36.0469 43.5262 35.9278C43.49 35.8088 43.4335 35.6997 43.3603 35.6075C43.2871 35.5152 43.1987 35.4417 43.1007 35.3915C43.0026 35.3412 42.8968 35.3153 42.79 35.3152H42.6455L43.9919 32.8584C43.9923 32.8577 43.9928 32.8572 43.9934 32.8568C43.994 32.8564 43.9947 32.8562 43.9954 32.8562C43.9961 32.8562 43.9968 32.8564 43.9974 32.8568C43.998 32.8572 43.9985 32.8577 43.9989 32.8584C43.9989 32.8584 45.3409 35.3152 45.3376 35.3152C45.0631 35.3152 44.7998 35.4444 44.6057 35.6744C44.4115 35.9043 44.3025 36.2162 44.3025 36.5414V38.5843C44.3025 40.0636 43.8064 41.4824 42.9233 42.5284C42.0402 43.5745 40.8425 44.1621 39.5937 44.1621H37.7441C37.541 44.1586 37.3443 44.2464 37.1936 44.4078C37.0429 44.5692 36.9495 44.7923 36.9322 45.032C36.9256 45.1584 36.9409 45.285 36.9771 45.4041C37.0134 45.5231 37.0699 45.6322 37.1431 45.7244C37.2163 45.8166 37.3046 45.8901 37.4027 45.9404C37.5008 45.9906 37.6065 46.0166 37.7134 46.0166H39.5934C41.2574 46.0166 42.8533 45.2335 44.03 43.8397C45.2067 42.4459 45.8677 40.5555 45.8677 38.5843V37.1747C45.8677 37.174 45.8678 37.1734 45.868 37.1728C45.8682 37.1722 45.8685 37.1716 45.8689 37.1711C45.8693 37.1707 45.8697 37.1703 45.8702 37.1701C45.8707 37.1698 45.8713 37.1697 45.8718 37.1697H46.6988C46.9159 37.1741 47.126 37.0784 47.2847 36.9027C47.4229 36.7461 47.5106 36.5374 47.5328 36.3124C47.555 36.0874 47.5102 35.8603 47.4062 35.6702L44.6824 30.7003Z" fill="#00AD68"/>
<path d="M50 4.12003V3.20825C49.9992 2.35766 49.7136 1.54218 49.2058 0.940722C48.6981 0.339265 48.0097 0.000949164 47.2916 0H17.8601C17.142 0.000979777 16.4536 0.339309 15.9459 0.940763C15.4382 1.54222 15.1526 2.35768 15.1518 3.20825V4.12003V4.1235V21.1303H2.7084C1.99034 21.1313 1.30193 21.4696 0.794185 22.0711C0.286441 22.6725 0.000827078 23.488 0 24.3385L0 46.7919C0.000827127 47.6424 0.286444 48.4579 0.794191 49.0593C1.30194 49.6608 1.99035 49.9991 2.7084 50H32.1398C32.8579 49.9991 33.5463 49.6607 34.0541 49.0593C34.5618 48.4578 34.8474 47.6423 34.8482 46.7918V28.8699H47.2916C48.0097 28.8689 48.6981 28.5306 49.2058 27.9292C49.7136 27.3277 49.9992 26.5123 50 25.6617V4.12003ZM17.8601 1.85445H47.2916C47.5945 1.85494 47.8849 1.99769 48.0991 2.25141C48.3133 2.50512 48.4338 2.84909 48.4342 3.2079V3.64343L34.6752 14.8747C34.0567 15.3755 33.325 15.6435 32.5758 15.6435C31.8267 15.6435 31.0949 15.3755 30.4765 14.8747L16.7173 3.64378V3.20825C16.7176 2.84933 16.8381 2.50522 17.0523 2.25142C17.2666 1.99761 17.5571 1.85485 17.8601 1.85445ZM2.7084 22.9849H32.1398C32.4428 22.9853 32.7332 23.1281 32.9473 23.3818C33.1615 23.6355 33.282 23.9795 33.2824 24.3383V24.7738L19.5235 36.0051C18.9051 36.506 18.1733 36.7739 17.4242 36.7739C16.675 36.7739 15.9433 36.506 15.3248 36.0051L1.56553 24.7741V24.3385C1.56586 23.9796 1.68638 23.6355 1.90064 23.3818C2.1149 23.128 2.4054 22.9852 2.7084 22.9849ZM33.2827 46.7916C33.2824 46.914 33.2681 47.0357 33.24 47.1535L25.1992 36.4069C25.131 36.3157 25.0484 36.2414 24.9559 36.1881C24.8635 36.1348 24.7631 36.1036 24.6605 36.0962C24.4533 36.0814 24.2495 36.1647 24.0941 36.3278C23.9387 36.4909 23.8444 36.7204 23.8319 36.9659C23.8193 37.2114 23.8897 37.4527 24.0273 37.6368L31.89 48.1459H2.95811L10.8203 37.6367C10.8885 37.5455 10.9408 37.4394 10.9744 37.3243C11.0079 37.2091 11.022 37.0873 11.0158 36.9658C11.0096 36.8442 10.9832 36.7253 10.9382 36.6158C10.8932 36.5063 10.8305 36.4084 10.7535 36.3276C10.6766 36.2469 10.5869 36.1849 10.4898 36.1452C10.3926 36.1054 10.2898 36.0888 10.1871 36.0961C10.0845 36.1035 9.98414 36.1347 9.89171 36.188C9.79927 36.2413 9.71661 36.3156 9.64844 36.4068L1.60762 47.1534C1.57952 47.0356 1.56513 46.9139 1.56484 46.7915V27.0264L14.4359 37.5322C15.3161 38.2449 16.3574 38.6262 17.4236 38.6262C18.4897 38.6262 19.5311 38.2449 20.4112 37.5322L33.2823 27.0264L33.2827 46.7916ZM34.8482 24.3383C34.8474 23.4877 34.5618 22.6723 34.0541 22.0708C33.5463 21.4694 32.8579 21.131 32.1398 21.1301H22.5129L25.9725 16.5061C26.1101 16.3221 26.1805 16.0807 26.1679 15.8352C26.1554 15.5898 26.0611 15.3602 25.9057 15.1971C25.7503 15.034 25.5465 14.9507 25.3393 14.9656C25.132 14.9804 24.9383 15.0922 24.8006 15.2762L20.5078 21.0146C20.4811 21.0509 20.4568 21.0896 20.4351 21.1303H16.7173V5.89605L29.5884 16.4019C30.4686 17.1146 31.5099 17.4959 32.576 17.4959C33.6422 17.4959 34.6835 17.1146 35.5637 16.4019L48.4348 5.89605V25.6617C48.4345 25.784 48.4201 25.9058 48.392 26.0235L40.3513 15.2769C40.2136 15.0929 40.0198 14.9811 39.8126 14.9663C39.6053 14.9514 39.4016 15.0347 39.2462 15.1978C39.0908 15.3609 38.9964 15.5904 38.9839 15.8359C38.9714 16.0814 39.0417 16.3228 39.1794 16.5068L47.042 27.0157H34.8482V24.3383Z" fill="#CD9D35"/>
</svg>
