<svg width="34" height="34" viewBox="0 0 34 34" fill="none" xmlns="http://www.w3.org/2000/svg">
<path d="M26.3228 24.1292H27.4195V25.2259H26.3228V24.1292Z" fill="#065E4A"/>
<path d="M21.9355 24.1292H23.0323V25.2259H21.9355V24.1292Z" fill="#065E4A"/>
<path d="M24.1289 24.1292H25.2257V25.2259H24.1289V24.1292Z" fill="#065E4A"/>
<path d="M24.6773 3.29028C21.3513 3.29028 18.645 5.99657 18.645 9.32254C18.645 12.6485 21.3513 15.3548 24.6773 15.3548C28.0032 15.3548 30.7095 12.6485 30.7095 9.32254C30.7095 5.99657 28.0032 3.29028 24.6773 3.29028ZM24.6773 14.258C21.9562 14.258 19.7418 12.0436 19.7418 9.32254C19.7418 6.60144 21.9562 4.38706 24.6773 4.38706C27.3984 4.38706 29.6128 6.60144 29.6128 9.32254C29.6128 12.0436 27.3984 14.258 24.6773 14.258Z" fill="#065E4A"/>
<path d="M34 11.3675V7.2771L32.5007 6.79671C32.3647 6.37335 32.1958 5.96371 31.9967 5.57436L32.7162 4.17652L29.824 1.28432L28.4262 2.00381C28.0368 1.80474 27.6272 1.63584 27.2038 1.49984L26.7224 0H22.6319L22.1516 1.49929C21.7282 1.63529 21.3186 1.80419 20.9292 2.00326L19.5314 1.28377L16.6392 4.17597L17.3115 5.48387H2.74194C1.23003 5.48387 0 6.7139 0 8.22581V24.6774C0 26.1893 1.23003 27.4194 2.74194 27.4194H9.85068C9.75855 28.294 9.30394 29.087 8.59158 29.6129H7.12903C6.222 29.6129 5.48387 30.351 5.48387 31.2581V32.3548C5.48387 33.2619 6.222 34 7.12903 34H23.5806C24.4877 34 25.2258 33.2619 25.2258 32.3548V31.2581C25.2258 30.351 24.4877 29.6129 23.5806 29.6129H22.1186C21.4063 29.087 20.9517 28.294 20.8595 27.4194H27.9677C29.4796 27.4194 30.7097 26.1893 30.7097 24.6774V16.4746L32.7157 14.4686L31.9962 13.0714C32.1953 12.6825 32.3636 12.2729 32.5002 11.849L34 11.3675ZM24.129 31.2581V32.3548C24.129 32.6576 23.8828 32.9032 23.5806 32.9032H7.12903C6.82687 32.9032 6.58065 32.6576 6.58065 32.3548V31.2581C6.58065 30.9554 6.82687 30.7097 7.12903 30.7097H23.5806C23.8828 30.7097 24.129 30.9554 24.129 31.2581ZM20.5804 29.6129H10.1293C10.5998 28.9795 10.8849 28.2222 10.9475 27.4194H19.7628C19.8253 28.2222 20.1105 28.9795 20.5804 29.6129ZM27.9677 26.3226H2.74194C1.8349 26.3226 1.09677 25.5845 1.09677 24.6774V8.22581C1.09677 7.31877 1.8349 6.58065 2.74194 6.58065H16.9336C16.9079 6.65303 16.8783 6.72323 16.8547 6.79671L15.3548 7.27765V7.67742H3.29032C2.68545 7.67742 2.19355 8.16932 2.19355 8.77419V21.9355C2.19355 22.5404 2.68545 23.0323 3.29032 23.0323H27.4194C28.0242 23.0323 28.5161 22.5404 28.5161 21.9355V16.6885L29.6129 17.2528V24.6774C29.6129 25.5845 28.8748 26.3226 27.9677 26.3226ZM19.5314 17.3608L20.9292 16.6414C21.3186 16.8404 21.7282 17.0093 22.1516 17.1453L22.6325 18.6452H26.7229L27.2033 17.1459C27.2768 17.1223 27.347 17.0921 27.4194 17.0669V21.9355H3.29032V8.77419H15.3548V11.3675L16.8541 11.8479C16.9907 12.2718 17.159 12.6815 17.3581 13.0703L16.6386 14.4675L19.5314 17.3608ZM31.6112 10.9815L31.5312 11.265C31.3782 11.8068 31.1654 12.3223 30.8989 12.7977L30.7546 13.0549L31.3743 14.2586L29.6135 16.0195L28.4097 15.4004L28.1531 15.544C27.6765 15.8105 27.1605 16.0239 26.6198 16.1763L26.3363 16.2564L25.9228 17.5484H23.4326L23.0185 16.2564L22.735 16.1763C22.1943 16.0233 21.6783 15.8105 21.2017 15.544L20.9451 15.4004L19.7414 16.0195L17.9805 14.2586L18.6002 13.0549L18.456 12.7977C18.1895 12.3223 17.9767 11.8062 17.8237 11.265L17.7436 10.9815L16.4516 10.568V8.07774L17.7436 7.66371L17.8237 7.38019C17.9767 6.83948 18.1895 6.32345 18.456 5.8469L18.5996 5.59026L17.9805 4.38655L19.7414 2.62568L20.9451 3.24481L21.2017 3.10113C21.6783 2.83461 22.1943 2.62129 22.735 2.46884L23.0185 2.38877L23.432 1.09677H25.9223L26.3363 2.38877L26.6198 2.46884C27.1605 2.62184 27.6765 2.83461 28.1531 3.10113L28.4097 3.24481L29.6135 2.62568L31.3743 4.38655L30.7552 5.59026L30.8989 5.8469C31.1654 6.32345 31.3787 6.83948 31.5312 7.38019L31.6112 7.66371L32.9032 8.07719V10.5674L31.6112 10.9815Z" fill="#065E4A"/>
<path d="M24.6775 6.58057C23.1656 6.58057 21.9355 7.8106 21.9355 9.3225C21.9355 10.8344 23.1656 12.0644 24.6775 12.0644C26.1894 12.0644 27.4194 10.8344 27.4194 9.3225C27.4194 7.8106 26.1894 6.58057 24.6775 6.58057ZM24.6775 10.9677C23.7705 10.9677 23.0323 10.2295 23.0323 9.3225C23.0323 8.41547 23.7705 7.67734 24.6775 7.67734C25.5845 7.67734 26.3226 8.41547 26.3226 9.3225C26.3226 10.2295 25.5845 10.9677 24.6775 10.9677Z" fill="#065E4A"/>
<path d="M12.613 12.0645H6.03237C5.12534 12.0645 4.38721 12.8026 4.38721 13.7096V19.1935C4.38721 20.1005 5.12534 20.8386 6.03237 20.8386H12.613C13.52 20.8386 14.2582 20.1005 14.2582 19.1935V13.7096C14.2582 12.8026 13.52 12.0645 12.613 12.0645ZM8.7743 13.1612H9.87108V14.258H8.7743V13.1612ZM13.1614 19.1935C13.1614 19.4962 12.9152 19.7419 12.613 19.7419H6.03237C5.73021 19.7419 5.48398 19.4962 5.48398 19.1935V13.7096C5.48398 13.4075 5.73021 13.1612 6.03237 13.1612H7.67753V15.3548H10.9679V13.1612H12.613C12.9152 13.1612 13.1614 13.4075 13.1614 13.7096V19.1935Z" fill="#065E4A"/>
<path d="M4.38721 9.87085H5.48398V10.9676H4.38721V9.87085Z" fill="#065E4A"/>
<path d="M6.58057 9.87085H14.258V10.9676H6.58057V9.87085Z" fill="#065E4A"/>
<path d="M23.0322 19.7419H24.129V20.8387H23.0322V19.7419Z" fill="#065E4A"/>
<path d="M20.8389 19.7419H21.9356V20.8387H20.8389V19.7419Z" fill="#065E4A"/>
<path d="M25.2256 19.7419H26.3224V20.8387H25.2256V19.7419Z" fill="#065E4A"/>
</svg>
