<svg width="28" height="27" viewBox="0 0 28 27" fill="none" xmlns="http://www.w3.org/2000/svg">
<path d="M19.3848 12.5399C18.9395 11.9645 18.1466 11.5508 17.2283 11.0716C16.1841 10.5268 15.0136 9.90909 14.3402 8.99502C14.4971 8.9344 14.6417 8.84572 14.7668 8.73332C14.8574 8.64975 14.9115 8.53382 14.9173 8.41066C14.9231 8.2875 14.8801 8.16703 14.7977 8.07533C14.7153 7.98363 14.6 7.9281 14.4769 7.92077C14.3539 7.91344 14.2329 7.95489 14.1401 8.03615C14.0857 8.08507 14.0201 8.12001 13.9492 8.13796C13.8782 8.15591 13.8039 8.15633 13.7328 8.13919C13.6616 8.12205 13.5957 8.08786 13.5407 8.03956C13.4857 7.99126 13.4432 7.93031 13.417 7.86197C13.3908 7.79362 13.3816 7.71992 13.3903 7.64723C13.3989 7.57454 13.4251 7.50504 13.4665 7.44471C13.508 7.38439 13.5635 7.33506 13.6283 7.30097C13.693 7.26687 13.7651 7.24905 13.8383 7.24902C13.9627 7.24902 14.0819 7.19964 14.1698 7.11173C14.2577 7.02382 14.3071 6.9046 14.3071 6.78028C14.3071 6.65595 14.2577 6.53673 14.1698 6.44882C14.0819 6.36091 13.9627 6.31153 13.8383 6.31153C13.5143 6.31103 13.2003 6.42403 12.9509 6.6309C12.7015 6.83777 12.5325 7.12544 12.4731 7.44398C12.4137 7.76252 12.4677 8.0918 12.6258 8.37466C12.7839 8.65751 13.036 8.87607 13.3384 8.9924C12.6653 9.90792 11.4936 10.5262 10.4483 11.0715C9.53006 11.5506 8.73698 11.9644 8.29181 12.5398C7.28184 13.845 8.09522 16.401 8.2133 16.7507V18.4816C8.2133 18.606 8.26268 18.7252 8.35059 18.8131C8.4385 18.901 8.55773 18.9504 8.68205 18.9504H18.9946C19.1189 18.9504 19.2381 18.901 19.326 18.8131C19.414 18.7252 19.4633 18.606 19.4633 18.4816V16.7507C19.5815 16.4011 20.3948 13.845 19.3848 12.5399ZM9.03366 13.1135C9.57308 12.6033 10.1991 12.1933 10.8823 11.9027C11.9812 11.4095 12.9824 10.7228 13.8383 9.87538C14.6943 10.7229 15.6956 11.4096 16.7946 11.9028C17.4778 12.1934 18.1038 12.6034 18.6432 13.1136C19.1705 13.795 18.8993 15.312 18.67 16.138H9.00712C8.78555 15.3286 8.50987 13.7901 9.03366 13.1135ZM9.15084 18.0129V17.0852H18.5258V18.0129H9.15084Z" fill="#CD9D35"/>
<path d="M26.765 12.3311L23.8194 9.38515C23.7318 9.29703 23.6825 9.17797 23.682 9.05375V4.88787C23.6816 4.51504 23.5333 4.15759 23.2697 3.89395C23.0061 3.63032 22.6486 3.48203 22.2758 3.48162H18.1099C17.9857 3.48118 17.8666 3.43184 17.7785 3.34428L14.8328 0.398605C14.5649 0.142763 14.2088 0 13.8384 0C13.468 0 13.1118 0.142763 12.844 0.398605L9.89805 3.34428C9.80993 3.43184 9.69087 3.48118 9.56664 3.48162H5.40077C5.02793 3.48203 4.67049 3.63032 4.40685 3.89395C4.14322 4.15759 3.99493 4.51504 3.99452 4.88787V9.05375C3.99408 9.17797 3.94474 9.29703 3.85718 9.38515L0.911504 12.3309C0.780889 12.4614 0.677278 12.6165 0.606587 12.7871C0.535896 12.9577 0.499512 13.1406 0.499512 13.3253C0.499512 13.5099 0.535896 13.6928 0.606587 13.8634C0.677278 14.034 0.780889 14.1891 0.911504 14.3196L3.85722 17.2656C3.94479 17.3537 3.99413 17.4728 3.99457 17.597V21.7629C3.99498 22.1357 4.14327 22.4932 4.4069 22.7568C4.67053 23.0204 5.02798 23.1687 5.40082 23.1691H9.56669C9.6283 23.169 9.68934 23.181 9.74626 23.2046C9.80319 23.2282 9.85487 23.2628 9.89833 23.3065L12.844 26.2522C13.1078 26.5158 13.4654 26.664 13.8383 26.664C14.2112 26.664 14.5689 26.5158 14.8326 26.2522L17.7781 23.3067C17.8215 23.263 17.8732 23.2283 17.9302 23.2047C17.9872 23.1811 18.0482 23.169 18.1099 23.1691H22.2758C22.6486 23.1687 23.0061 23.0204 23.2697 22.7568C23.5333 22.4932 23.6816 22.1357 23.682 21.7629V17.597C23.6825 17.4728 23.7318 17.3537 23.8194 17.2656L26.7651 14.3199C26.8957 14.1893 26.9993 14.0343 27.07 13.8637C27.1407 13.693 27.1771 13.5102 27.1771 13.3255C27.1771 13.1408 27.1407 12.9579 27.07 12.7873C26.9993 12.6167 26.8956 12.4617 26.765 12.3311ZM26.1022 13.6568L23.1565 16.6027C23.0255 16.733 22.9216 16.8879 22.8509 17.0586C22.7802 17.2293 22.744 17.4123 22.7445 17.597V21.7629C22.7444 21.8871 22.6949 22.0063 22.607 22.0941C22.5192 22.182 22.4 22.2315 22.2758 22.2316H18.1099C17.9251 22.2312 17.7421 22.2673 17.5714 22.3381C17.4007 22.4088 17.2457 22.5126 17.1154 22.6436L14.1697 25.5893C14.0803 25.6744 13.9616 25.7218 13.8382 25.7218C13.7149 25.7218 13.5962 25.6744 13.5068 25.5893L10.5609 22.6434C10.4306 22.5124 10.2756 22.4087 10.105 22.338C9.93431 22.2673 9.75135 22.2312 9.56664 22.2316H5.40077C5.2765 22.2315 5.15736 22.182 5.06949 22.0941C4.98162 22.0063 4.93218 21.8871 4.93202 21.7629V17.597C4.93251 17.4123 4.89634 17.2293 4.82563 17.0586C4.75491 16.8879 4.65104 16.733 4.52003 16.6027L1.57432 13.6565C1.53078 13.6131 1.49624 13.5614 1.47267 13.5046C1.4491 13.4477 1.43697 13.3868 1.43697 13.3252C1.43697 13.2637 1.4491 13.2028 1.47267 13.1459C1.49624 13.0891 1.53078 13.0374 1.57432 12.9939L4.52003 10.048C4.65103 9.91772 4.7549 9.76278 4.82562 9.59212C4.89633 9.42146 4.9325 9.23847 4.93202 9.05375V4.88787C4.93218 4.7636 4.98162 4.64446 5.06949 4.55659C5.15736 4.46872 5.2765 4.41928 5.40077 4.41912H9.56664C9.75138 4.41961 9.93438 4.38344 10.105 4.31273C10.2757 4.24201 10.4307 4.13814 10.5609 4.00714L13.5071 1.06142C13.5963 0.976135 13.715 0.928541 13.8384 0.928541C13.9618 0.928541 14.0805 0.976135 14.1697 1.06142L17.1157 4.00714C17.2459 4.13814 17.4009 4.242 17.5715 4.31272C17.7422 4.38344 17.9252 4.4196 18.1099 4.41912H22.2758C22.4 4.41928 22.5192 4.46872 22.607 4.55659C22.6949 4.64446 22.7444 4.7636 22.7445 4.88787V9.05375C22.744 9.23848 22.7802 9.42148 22.8509 9.59215C22.9216 9.76282 23.0255 9.91776 23.1565 10.048L26.1022 12.9942C26.1458 13.0377 26.1803 13.0893 26.2039 13.1462C26.2274 13.203 26.2396 13.264 26.2396 13.3255C26.2396 13.3871 26.2274 13.448 26.2039 13.5048C26.1803 13.5617 26.1458 13.6133 26.1022 13.6568Z" fill="#CD9D35"/>
<path d="M21.7925 10.0307V5.84007C21.7925 5.71575 21.7431 5.59652 21.6552 5.50861C21.5673 5.4207 21.4481 5.37132 21.3238 5.37132H17.1331L14.1698 2.40802C14.0819 2.32013 13.9627 2.27075 13.8384 2.27075C13.714 2.27075 13.5948 2.32013 13.5069 2.40802L10.5436 5.37136H6.35296C6.22864 5.37136 6.10941 5.42075 6.0215 5.50866C5.93359 5.59656 5.88421 5.71579 5.88421 5.84011V10.0307L2.92096 12.994C2.83307 13.0819 2.78369 13.2012 2.78369 13.3255C2.78369 13.4498 2.83307 13.569 2.92096 13.6569L5.8843 16.6202V20.8109C5.8843 20.9352 5.93369 21.0544 6.0216 21.1423C6.1095 21.2302 6.22873 21.2796 6.35305 21.2796H10.5437L13.5068 24.243C13.5947 24.3308 13.7139 24.3802 13.8382 24.3802C13.9625 24.3802 14.0817 24.3308 14.1696 24.243L17.1328 21.2796H21.3234C21.4477 21.2796 21.5669 21.2302 21.6548 21.1423C21.7427 21.0544 21.7921 20.9352 21.7921 20.8109V16.6202L24.7555 13.6569C24.8434 13.569 24.8927 13.4498 24.8927 13.3255C24.8927 13.2012 24.8434 13.0819 24.7555 12.994L21.7925 10.0307ZM20.9923 16.0947C20.9044 16.1826 20.855 16.3018 20.855 16.4261V20.342H16.9388C16.8145 20.342 16.6953 20.3914 16.6074 20.4794L13.8384 23.2486L11.0694 20.4794C10.9815 20.3914 10.8623 20.342 10.738 20.342H6.8218V16.4261C6.82178 16.3018 6.77237 16.1826 6.68446 16.0947L3.91522 13.3254L6.68446 10.5562C6.77237 10.4683 6.82178 10.3491 6.8218 10.2248V6.30886H10.7377C10.862 6.30884 10.9813 6.25943 11.0691 6.17152L13.8384 3.40228L16.6076 6.17152C16.6955 6.25943 16.8147 6.30884 16.939 6.30886H20.855V10.2248C20.855 10.3491 20.9044 10.4683 20.9923 10.5562L23.7615 13.3254L20.9923 16.0947Z" fill="#065E4A"/>
</svg>
