<svg width="17" height="21" viewBox="0 0 17 21" fill="none" xmlns="http://www.w3.org/2000/svg">
<path fill-rule="evenodd" clip-rule="evenodd" d="M8.07568 1.76819C5.30014 1.76819 3.05014 4.0182 3.05014 6.79373V8.76417C3.05014 9.43538 2.83354 10.0338 2.57559 10.5506C2.39485 10.9126 2.16851 11.2795 1.96624 11.6073C1.89021 11.7306 1.81757 11.8483 1.75205 11.9582C1.5365 12.3196 1.41247 12.7419 1.41247 13.1952C1.41247 14.3687 2.24705 15.3507 3.37668 15.5073C4.85564 15.7124 6.67074 15.9136 8.07568 15.9136C9.48063 15.9136 11.2957 15.7124 12.7747 15.5073C13.9043 15.3507 14.7389 14.3687 14.7389 13.1952C14.7389 12.7419 14.6149 12.3196 14.3993 11.9582C14.3338 11.8483 14.2611 11.7306 14.1851 11.6073C13.9828 11.2795 13.7565 10.9126 13.5758 10.5506C13.3178 10.0338 13.1013 9.43548 13.1013 8.76417V6.79373C13.1013 4.0182 10.8512 1.76819 8.07568 1.76819ZM1.63766 6.79373C1.63766 3.23811 4.52006 0.355713 8.07568 0.355713C11.6313 0.355713 14.5137 3.23811 14.5137 6.79373V8.76417C14.5137 9.12906 14.631 9.50186 14.8396 9.91967C14.9903 10.2218 15.1633 10.5019 15.3519 10.8075C15.4358 10.9434 15.5228 11.0845 15.6125 11.2347C15.9548 11.8088 16.1514 12.4801 16.1514 13.1952C16.1514 15.0406 14.8292 16.6485 12.9687 16.9064C11.4782 17.1131 9.58298 17.3261 8.07568 17.3261C6.56838 17.3261 4.67311 17.1131 3.18268 16.9064C1.32218 16.6485 0 15.0406 0 13.1952C0 12.4801 0.196522 11.8088 0.538916 11.2347C0.628495 11.0845 0.715531 10.9434 0.79947 10.8075C0.988101 10.5019 1.16105 10.2218 1.31182 9.91967C1.52041 9.50186 1.63766 9.12906 1.63766 8.76417V6.79373Z" fill="white"/>
<path fill-rule="evenodd" clip-rule="evenodd" d="M10.5138 18.2089C10.1889 17.993 9.75055 18.0812 9.53463 18.406C9.21983 18.8793 8.68375 19.1889 8.07563 19.1889C7.46752 19.1889 6.93143 18.8793 6.61664 18.406C6.40072 18.0812 5.96235 17.993 5.63755 18.2089C5.31275 18.4249 5.22451 18.8632 5.44047 19.188C6.0059 20.0384 6.97484 20.6013 8.07563 20.6013C9.17642 20.6013 10.1454 20.0384 10.7108 19.188C10.9268 18.8632 10.8385 18.4249 10.5138 18.2089Z" fill="white"/>
</svg>
