<svg width="16" height="16" viewBox="0 0 16 16" fill="none" xmlns="http://www.w3.org/2000/svg">
<g clip-path="url(#clip0_927_3305)">
<path d="M8 15.5C7.80575 15.5 7.61946 15.4228 7.4821 15.2855C7.34474 15.1481 7.26758 14.9618 7.26758 14.7676V1.23242C7.26758 1.03817 7.34474 0.851877 7.4821 0.714521C7.61946 0.577166 7.80575 0.5 8 0.5C8.19425 0.5 8.38054 0.577166 8.5179 0.714521C8.65526 0.851877 8.73242 1.03817 8.73242 1.23242V14.7676C8.73242 14.9618 8.65526 15.1481 8.5179 15.2855C8.38054 15.4228 8.19425 15.5 8 15.5Z" fill="#FAFBFA"/>
<path d="M14.7676 8.73242H1.23242C1.03817 8.73242 0.851877 8.65526 0.714521 8.5179C0.577166 8.38054 0.5 8.19425 0.5 8C0.5 7.80575 0.577166 7.61946 0.714521 7.4821C0.851877 7.34474 1.03817 7.26758 1.23242 7.26758H14.7676C14.9618 7.26758 15.1481 7.34474 15.2855 7.4821C15.4228 7.61946 15.5 7.80575 15.5 8C15.5 8.19425 15.4228 8.38054 15.2855 8.5179C15.1481 8.65526 14.9618 8.73242 14.7676 8.73242Z" fill="#FAFBFA"/>
</g>
<defs>
<clipPath id="clip0_927_3305">
<rect width="15" height="15" fill="white" transform="translate(0.5 0.5)"/>
</clipPath>
</defs>
</svg>
