<svg width="16" height="16" viewBox="0 0 16 16" fill="none" xmlns="http://www.w3.org/2000/svg">
<path d="M13.0264 10.3535H14.1192C14.3688 10.3535 14.6082 10.2543 14.7847 10.0778C14.9615 9.90123 15.0605 9.66176 15.0605 9.41212C15.0605 7.80527 15.0605 4.70508 15.0605 4.70508H0.939453V9.41212C0.939453 9.66179 1.03854 9.90126 1.21528 10.0778C1.3918 10.2543 1.63115 10.3535 1.88085 10.3535C3.73496 10.3535 7.68061 10.3535 7.68061 10.3535" stroke="#435363" stroke-miterlimit="10" stroke-linecap="round" stroke-linejoin="round"/>
<path d="M15.0605 2.82227H0.939453V4.70509H15.0605V2.82227Z" stroke="#435363" stroke-miterlimit="10" stroke-linecap="round" stroke-linejoin="round"/>
<path d="M15.0605 1.88085C15.0605 1.63115 14.9615 1.39171 14.7847 1.21517C14.6082 1.03862 14.3688 0.939453 14.1192 0.939453C11.5517 0.939453 4.44831 0.939453 1.88088 0.939453C1.63118 0.939453 1.39183 1.03862 1.21531 1.21517C1.03854 1.39174 0.939453 1.63118 0.939453 1.88085C0.939453 2.35156 0.939453 2.82225 0.939453 2.82225H15.0605V1.88085Z" stroke="#435363" stroke-miterlimit="10" stroke-linecap="round" stroke-linejoin="round"/>
<path d="M5.64646 7.52929C5.64646 7.27959 5.54737 7.04015 5.37063 6.8636C5.19411 6.68706 4.95476 6.58789 4.70506 6.58789C4.40216 6.58789 4.06653 6.58789 3.76366 6.58789C3.51396 6.58789 3.27461 6.68706 3.0981 6.8636C2.92135 7.04018 2.82227 7.27962 2.82227 7.52929C2.82227 7.77895 2.92135 8.01843 3.0981 8.19494C3.27461 8.37151 3.51396 8.47068 3.76366 8.47068C4.06656 8.47068 4.40219 8.47068 4.70506 8.47068C4.95476 8.47068 5.19411 8.37151 5.37063 8.19494C5.54734 8.01843 5.64646 7.77895 5.64646 7.52929Z" stroke="#435363" stroke-miterlimit="10" stroke-linecap="round" stroke-linejoin="round"/>
<path d="M9.54484 7.12441C9.71169 6.83554 10.02 6.65759 10.3535 6.65759C10.687 6.65759 10.9953 6.83554 11.1621 7.12441C12.1798 8.8872 13.9176 11.8973 14.9356 13.6601C15.1022 13.9489 15.1022 14.3049 14.9356 14.5937C14.7687 14.8826 14.4604 15.0606 14.1269 15.0606H6.58012C6.24663 15.0606 5.93831 14.8826 5.77146 14.5937C5.60482 14.3049 5.60482 13.9489 5.77146 13.6601C6.78936 11.8973 8.52719 8.8872 9.54484 7.12441Z" stroke="#435363" stroke-miterlimit="10" stroke-linecap="round" stroke-linejoin="round"/>
<path d="M10.3535 13.1777V12.9424" stroke="#435363" stroke-miterlimit="10" stroke-linecap="round" stroke-linejoin="round"/>
<path d="M10.3535 11.2949V9.4895" stroke="#435363" stroke-miterlimit="10" stroke-linecap="round" stroke-linejoin="round"/>
</svg>
