<svg width="20" height="19" viewBox="0 0 20 19" fill="none" xmlns="http://www.w3.org/2000/svg">
<path d="M17.2621 15.2713L14.5705 12.5875C15.4389 11.4811 15.9101 10.1149 15.9084 8.70834C15.9084 7.45572 15.5369 6.23124 14.841 5.18972C14.1451 4.14821 13.156 3.33645 11.9987 2.8571C10.8414 2.37774 9.56801 2.25232 8.33946 2.4967C7.11092 2.74107 5.98242 3.34426 5.09669 4.22999C4.21096 5.11573 3.60777 6.24422 3.3634 7.47276C3.11902 8.70131 3.24444 9.97473 3.7238 11.132C4.20315 12.2893 5.01491 13.2784 6.05642 13.9743C7.09793 14.6702 8.32242 15.0417 9.57504 15.0417C10.9816 15.0434 12.3478 14.5722 13.4542 13.7038L16.138 16.3954C16.2115 16.4696 16.2991 16.5285 16.3956 16.5687C16.4921 16.6089 16.5955 16.6296 16.7 16.6296C16.8045 16.6296 16.908 16.6089 17.0045 16.5687C17.101 16.5285 17.1885 16.4696 17.2621 16.3954C17.3363 16.3218 17.3952 16.2343 17.4354 16.1378C17.4756 16.0413 17.4963 15.9378 17.4963 15.8333C17.4963 15.7288 17.4756 15.6254 17.4354 15.5289C17.3952 15.4324 17.3363 15.3448 17.2621 15.2713ZM4.82504 8.70834C4.82504 7.76887 5.10362 6.85051 5.62555 6.06938C6.14749 5.28824 6.88934 4.67942 7.75729 4.31991C8.62524 3.96039 9.5803 3.86633 10.5017 4.04961C11.4231 4.23289 12.2695 4.68528 12.9338 5.34958C13.5981 6.01388 14.0505 6.86025 14.2338 7.78166C14.417 8.70307 14.323 9.65813 13.9635 10.5261C13.6039 11.394 12.9951 12.1359 12.214 12.6578C11.4329 13.1798 10.5145 13.4583 9.57504 13.4583C8.31526 13.4583 7.10708 12.9579 6.21628 12.0671C5.32548 11.1763 4.82504 9.96811 4.82504 8.70834Z" fill="white"/>
</svg>
