<svg width="29" height="33" viewBox="0 0 29 33" fill="none" xmlns="http://www.w3.org/2000/svg">
<path fill-rule="evenodd" clip-rule="evenodd" d="M15.783 5.17805C14.8794 4.74252 13.7822 4.74252 12.8786 5.17805C10.8799 6.14349 6.2321 8.38774 3.2118 9.84608C2.30684 10.2828 1.72427 11.0959 1.66913 11.9966C1.61327 12.8979 2.09333 13.7597 2.94031 14.2778C5.86729 16.0718 10.4769 18.8959 12.6071 20.2019C13.6415 20.8354 15.0201 20.8354 16.0545 20.2019C18.1846 18.8959 22.7943 16.0718 25.7213 14.2778C26.5683 13.7597 27.0483 12.8979 26.9925 11.9966C26.9373 11.0959 26.3547 10.2828 25.4498 9.84608C22.4295 8.38774 17.7817 6.14348 15.783 5.17805ZM14.8151 6.70486C16.8138 7.67029 21.4609 9.91394 24.4819 11.3729C24.7831 11.5185 24.9775 11.7893 24.9966 12.0897C25.0143 12.3901 24.8545 12.6776 24.5724 12.8497L14.9056 18.7738C14.5606 18.9847 14.101 18.9847 13.756 18.7738L4.08919 12.8497C3.8071 12.6776 3.64731 12.3901 3.66499 12.0897C3.68408 11.7893 3.8785 11.5185 4.17969 11.3729C7.2007 9.91394 11.8478 7.67029 13.8465 6.70485C14.1477 6.55927 14.5139 6.55927 14.8151 6.70486Z" fill="white"/>
<path fill-rule="evenodd" clip-rule="evenodd" d="M2.25826 22.4473C2.25826 22.4473 9.6959 27.0049 12.6073 28.7889C13.6417 29.4225 15.0203 29.4225 16.0547 28.7889C18.9661 27.0049 26.4037 22.4473 26.4037 22.4473C26.8555 22.1703 26.9644 21.6262 26.6469 21.232C26.3302 20.8384 25.7059 20.7428 25.2548 21.0192C25.2548 21.0192 17.8172 25.5768 14.9058 27.3608C14.5608 27.5718 14.1012 27.5718 13.7562 27.3608L3.40713 21.0192C2.95607 20.7428 2.33178 20.8384 2.01505 21.232C1.69761 21.6262 1.80648 22.1703 2.25826 22.4473Z" fill="white"/>
<path fill-rule="evenodd" clip-rule="evenodd" d="M2.25826 18.0924C2.25826 18.0924 9.6959 22.65 12.6073 24.4341C13.6417 25.0676 15.0203 25.0676 16.0547 24.4341C18.9661 22.65 26.4037 18.0924 26.4037 18.0924C26.8555 17.8154 26.9644 17.2713 26.6469 16.8771C26.3302 16.4835 25.7059 16.3879 25.2548 16.6643C25.2548 16.6643 17.8172 21.2219 14.9058 23.006C14.5608 23.2169 14.1012 23.2169 13.7562 23.006L3.40713 16.6643C2.95607 16.3879 2.33178 16.4836 2.01505 16.8771C1.69761 17.2713 1.80648 17.8154 2.25826 18.0924Z" fill="white"/>
</svg>
