<svg width="21" height="20" viewBox="0 0 21 20" fill="none" xmlns="http://www.w3.org/2000/svg">
<path d="M4.80148 20C4.57283 20 4.34577 19.9287 4.15199 19.7885C3.79102 19.5269 3.62239 19.0773 3.72064 18.6434L5.06325 12.7292L0.509962 8.73605C0.175265 8.44386 0.0474047 7.98115 0.184819 7.55776C0.322232 7.13517 0.6961 6.83598 1.13875 6.79506L7.16331 6.24811L9.5452 0.674012C9.72083 0.264478 10.1208 0 10.5652 0C11.0096 0 11.4096 0.264478 11.5852 0.673057L13.9671 6.24811L19.9907 6.79506C20.4343 6.83502 20.8082 7.13517 20.9456 7.55776C21.083 7.98035 20.956 8.44386 20.6213 8.73605L16.068 12.7284L17.4106 18.6424C17.509 19.0773 17.3402 19.5269 16.9794 19.7877C16.6194 20.0486 16.1393 20.0686 15.7602 19.8408L10.5652 16.7363L5.37024 19.8425C5.19461 19.9468 4.99892 20 4.80148 20ZM10.5652 15.3989C10.7627 15.3989 10.9582 15.452 11.134 15.5563L16.0368 18.4886L14.7696 12.9065C14.6792 12.5093 14.8141 12.0945 15.121 11.8257L19.4204 8.05519L13.7323 7.53865C13.3227 7.50123 12.9705 7.24376 12.8105 6.86639L10.5652 1.60613L8.31723 6.86719C8.15896 7.24201 7.80675 7.49948 7.39817 7.5369L1.70927 8.05344L6.00843 11.824C6.31637 12.0935 6.45108 12.5075 6.35984 12.9058L5.09366 18.4877L9.99645 15.5563C10.1721 15.452 10.3678 15.3989 10.5652 15.3989ZM7.11729 6.35591C7.11729 6.35591 7.11729 6.35686 7.11633 6.35766L7.11729 6.35591ZM14.0114 6.35336L14.0123 6.35511C14.0123 6.35416 14.0123 6.35416 14.0114 6.35336Z" fill="#435363"/>
</svg>
