<svg width="27" height="26" viewBox="0 0 27 26" fill="none" xmlns="http://www.w3.org/2000/svg">
<path d="M13.4355 0.125C13.9238 0.125 14.3145 0.417969 14.5098 0.808594L17.8789 7.69336L25.3496 8.81641C25.7891 8.86523 26.1309 9.20703 26.2773 9.59766C26.4238 10.0371 26.3262 10.4766 25.9844 10.8184L20.5645 16.1895L21.834 23.7578C21.9316 24.1973 21.7363 24.6855 21.3945 24.9297C21.0039 25.1738 20.5156 25.2227 20.125 25.0273L13.4355 21.4141L6.74609 25.0273C6.35547 25.2227 5.91602 25.1738 5.52539 24.9297C5.18359 24.6855 4.98828 24.1973 5.03711 23.7578L6.35547 16.1895L0.935547 10.8184C0.59375 10.4766 0.496094 10.0371 0.642578 9.59766C0.789062 9.20703 1.13086 8.86523 1.57031 8.81641L9.04102 7.69336L12.4102 0.808594C12.6055 0.417969 12.9961 0.125 13.4355 0.125ZM13.4355 3.98242L10.8965 9.30469C10.7012 9.64648 10.4082 9.89062 10.0176 9.93945L4.20703 10.7695L8.40625 14.9199C8.69922 15.2129 8.79688 15.6035 8.74805 15.9941L7.77148 21.8047L12.8984 19.0703C13.2402 18.875 13.6797 18.875 14.0215 19.0703L19.1484 21.8047L18.1719 15.9941C18.0742 15.6035 18.2207 15.2129 18.5137 14.9199L22.6641 10.7695L16.9023 9.93945C16.5117 9.89062 16.1699 9.64648 16.0234 9.30469L13.4355 3.98242Z" fill="white"/>
</svg>
