<svg width="49" height="49" viewBox="0 0 49 49" fill="none" xmlns="http://www.w3.org/2000/svg">
<rect width="48.33" height="48.33" rx="12" transform="matrix(1 0 0 -1 0.00537109 48.3301)" fill="#CD9D35" fill-opacity="0.2"/>
<path d="M12.1494 20.0005C12.1494 19.7042 12.4203 19.4641 12.7546 19.4641H27.6736C28.0078 19.4641 28.2788 19.7042 28.2788 20.0005C28.2788 20.2967 28.0078 20.5369 27.6736 20.5369H12.7546C12.4203 20.5369 12.1494 20.2967 12.1494 20.0005ZM24.5958 23.8974C24.5958 23.6012 24.3249 23.361 23.9906 23.361H12.7546C12.4203 23.361 12.1494 23.6012 12.1494 23.8974C12.1494 24.1936 12.4203 24.4338 12.7546 24.4338H23.9906C24.3249 24.4338 24.5958 24.1936 24.5958 23.8974ZM18.8679 27.2579H12.7545C12.4203 27.2579 12.1493 27.498 12.1493 27.7943C12.1493 28.0905 12.4203 28.3307 12.7545 28.3307H18.8679C19.2021 28.3307 19.4731 28.0905 19.4731 27.7943C19.4731 27.498 19.2021 27.2579 18.8679 27.2579ZM18.8679 31.1548H12.7545C12.4203 31.1548 12.1493 31.395 12.1493 31.6912C12.1493 31.9874 12.4203 32.2276 12.7545 32.2276H18.8679C19.2021 32.2276 19.4731 31.9874 19.4731 31.6912C19.4731 31.395 19.2021 31.1548 18.8679 31.1548ZM18.8679 35.0516H12.7545C12.4203 35.0516 12.1493 35.2918 12.1493 35.588C12.1493 35.8843 12.4203 36.1244 12.7545 36.1244H18.8679C19.2021 36.1244 19.4731 35.8843 19.4731 35.588C19.4731 35.2918 19.2021 35.0516 18.8679 35.0516ZM12.7546 16.64H18.868C19.2022 16.64 19.4732 16.3998 19.4732 16.1036C19.4732 15.8073 19.2022 15.5671 18.868 15.5671H12.7546C12.4203 15.5671 12.1494 15.8073 12.1494 16.1036C12.1494 16.3998 12.4203 16.64 12.7546 16.64ZM40.931 39.9826L39.8154 40.9715C39.5497 41.2069 39.2114 41.33 38.8324 41.33C38.8032 41.33 38.7739 41.3293 38.7441 41.3278C38.3496 41.3083 37.9936 41.1608 37.7145 40.9011L33.4228 36.9102V39.9962C33.4228 40.2924 33.1519 40.5326 32.8176 40.5326H7.61057C7.27635 40.5326 7.00537 40.2924 7.00537 39.9962V11.0393C7.00537 10.8966 7.0696 10.7597 7.18375 10.659C7.29715 10.5591 7.45057 10.5029 7.61057 10.5029H7.61375L10.9576 10.5184V7.53641C10.9576 7.24018 11.2285 7 11.5628 7H36.7698C37.104 7 37.375 7.24018 37.375 7.53641V35.1859L40.8515 38.1206C41.1445 38.3682 41.311 38.6837 41.3329 39.0332C41.356 39.4007 41.2171 39.729 40.931 39.9826ZM12.168 10.5241L32.8207 10.6197C33.1537 10.6213 33.4228 10.861 33.4228 11.1561V25.6712L34.5903 26.706C35.0723 27.1333 35.0723 27.8283 34.5903 28.2556L33.6979 29.0466C33.6144 29.1206 33.5213 29.1809 33.4228 29.2293V31.8496L36.1645 34.164V8.07281H12.168V10.5241ZM31.1158 28.3077L28.46 25.9537C26.8588 27.8195 26.0923 28.4989 23.9872 29.9181L26.643 32.272C28.1215 30.5697 29.1952 29.6181 31.1158 28.3077ZM22.296 29.9364C22.2915 29.9324 22.2847 29.9304 22.2778 29.9304C22.271 29.9304 22.2641 29.9324 22.2596 29.9365L21.3672 30.7275C21.3582 30.7354 21.3582 30.7517 21.3672 30.7596L25.692 34.5929C25.7009 34.6009 25.7194 34.601 25.7284 34.5929L26.6208 33.8019C26.6299 33.7939 26.6299 33.7776 26.6208 33.7696L22.296 29.9364ZM29.4095 23.6315C29.4079 23.6301 29.4027 23.6254 29.3914 23.6254C29.38 23.6254 29.3749 23.6299 29.3732 23.6315C29.3732 23.6315 29.3732 23.6315 29.3731 23.6315L28.4806 24.4225C28.4717 24.4305 28.4717 24.4469 28.4807 24.4549L32.8055 28.288C32.8144 28.296 32.833 28.296 32.842 28.288L33.7344 27.497C33.7434 27.489 33.7434 27.4727 33.7344 27.4647L29.4095 23.6315ZM30.9715 29.7804L32.2123 30.8278V29.2229C32.1301 29.1815 32.0524 29.1311 31.9806 29.0716C31.6153 29.3192 31.2821 29.5528 30.9715 29.7804ZM25.2883 15.267L26.8447 14.3951C27.0477 14.2816 27.3073 14.2847 27.5063 14.4037L28.8437 15.2029V11.6741L25.2883 11.6576V15.267ZM27.0475 39.4597L26.7358 38.2329C26.7299 38.2311 26.7211 38.2292 26.7098 38.2292H19.8192C19.808 38.2292 19.7991 38.231 19.7932 38.233L19.4815 39.4597H27.0475ZM32.2124 35.7846L28.3013 32.1478C28.0456 32.422 27.783 32.7162 27.505 33.0386C27.9573 33.4676 27.9488 34.1422 27.4768 34.5606L26.5844 35.3516C26.3434 35.5651 26.0268 35.6719 25.7102 35.6719C25.3936 35.6719 25.0772 35.5652 24.8361 35.3516L20.5112 31.5183C20.2782 31.3118 20.15 31.0366 20.15 30.7435C20.15 30.4504 20.2783 30.1753 20.5112 29.9688L21.4036 29.1778C21.8759 28.7593 22.6376 28.7518 23.1217 29.1536C25.2815 27.7047 25.9628 27.1009 27.5975 25.1866C27.1444 24.7576 27.1527 24.0825 27.6248 23.6639L28.5174 22.8728C28.7503 22.6663 29.0608 22.5526 29.3914 22.5526C29.7221 22.5526 30.0326 22.6663 30.2656 22.8728L32.2124 24.5984V11.6897L30.0542 11.6797V16.2114C30.0542 16.4097 29.9308 16.5918 29.7332 16.6849C29.5356 16.7781 29.2962 16.767 29.1107 16.6561L27.1576 15.489L25.0066 16.694C24.908 16.7492 24.7958 16.7769 24.6833 16.7769C24.5829 16.7769 24.4824 16.7548 24.3913 16.7104C24.1981 16.616 24.0781 16.436 24.0781 16.2405V11.6521L8.21577 11.5786V39.4597H18.2408L18.6165 37.9813C18.7398 37.4957 19.2344 37.1564 19.8192 37.1564H26.7098C27.2946 37.1564 27.7893 37.4956 27.9126 37.9813L28.2882 39.4597H32.2123V35.7846H32.2124ZM40.1245 39.093C40.1196 39.0156 40.0873 38.9571 40.0165 38.8973L30.056 30.4891C29.7228 30.7631 29.4097 31.0407 29.1006 31.3361L38.5908 40.161C38.6583 40.2238 38.7242 40.2523 38.8115 40.2567C38.8985 40.2604 38.9297 40.2394 38.9594 40.2129L40.075 39.2241C40.1104 39.1928 40.1288 39.1626 40.1245 39.093Z" fill="#CD9D35"/>
</svg>
