<svg width="50" height="49" viewBox="0 0 50 49" fill="none" xmlns="http://www.w3.org/2000/svg">
<rect width="49" height="48.33" rx="12" transform="matrix(1 0 0 -1 0.67041 48.3301)" fill="#B8E1FF"/>
<path d="M34.4639 30.7202V10.5745C34.4639 9.62646 34.0873 8.71728 33.417 8.04694C32.7466 7.37659 31.8375 7 30.8894 7H16.5916C15.6436 7 14.7344 7.37659 14.064 8.04694C13.3937 8.71728 13.0171 9.62646 13.0171 10.5745V37.7404C13.0171 38.2099 13.1095 38.6747 13.2892 39.1083C13.4688 39.542 13.7321 39.9361 14.064 40.268C14.3959 40.5999 14.79 40.8632 15.2237 41.0428C15.6573 41.2225 16.1222 41.3149 16.5916 41.3149C25.8065 41.3149 25.4134 41.4222 25.7136 41.0647C26.357 40.3069 25.5492 39.9852 21.317 36.3679C21.2363 36.2992 21.1739 36.2115 21.1357 36.1127C21.0974 36.0139 21.0844 35.9071 21.0979 35.802C21.1114 35.6969 21.151 35.5968 21.2129 35.5109C21.2749 35.4249 21.3574 35.3558 21.4528 35.3098C21.7745 35.1454 21.653 35.174 24.9415 36.2749C25.0492 36.3113 25.164 36.3215 25.2765 36.3046C25.3889 36.2877 25.4956 36.2443 25.5879 36.1779C25.6802 36.1115 25.7553 36.024 25.807 35.9228C25.8587 35.8215 25.8855 35.7094 25.8852 35.5958V26.3021C25.8852 26.1125 25.9605 25.9307 26.0946 25.7966C26.2286 25.6626 26.4105 25.5872 26.6001 25.5872C26.7897 25.5872 26.9715 25.6626 27.1056 25.7966C27.2397 25.9307 27.315 26.1125 27.315 26.3021V34.166C27.315 34.3556 27.3903 34.5374 27.5244 34.6715C27.6584 34.8056 27.8403 34.8809 28.0299 34.8809C28.2195 34.8809 28.4013 34.8056 28.5354 34.6715C28.6694 34.5374 28.7448 34.3556 28.7448 34.166V31.3064C28.7448 31.1168 28.8201 30.935 28.9541 30.8009C29.0882 30.6668 29.2701 30.5915 29.4597 30.5915C29.6493 30.5915 29.8311 30.6668 29.9652 30.8009C30.0992 30.935 30.1745 31.1168 30.1745 31.3064V34.166C30.1745 34.3556 30.2499 34.5374 30.3839 34.6715C30.518 34.8056 30.6998 34.8809 30.8894 34.8809C31.079 34.8809 31.2609 34.8056 31.395 34.6715C31.529 34.5374 31.6043 34.3556 31.6043 34.166V32.0213C31.6043 31.8317 31.6797 31.6499 31.8137 31.5158C31.9478 31.3817 32.1296 31.3064 32.3192 31.3064C32.5088 31.3064 32.6907 31.3817 32.8247 31.5158C32.9588 31.6499 33.0341 31.8317 33.0341 32.0213V34.166C33.0341 34.3556 33.1094 34.5374 33.2435 34.6715C33.3776 34.8056 33.5594 34.8809 33.749 34.8809C33.9386 34.8809 34.1205 34.8056 34.2545 34.6715C34.3886 34.5374 34.4639 34.3556 34.4639 34.166V32.7362C34.4639 32.5466 34.5392 32.3648 34.6733 32.2307C34.8074 32.0966 34.9892 32.0213 35.1788 32.0213C35.3684 32.0213 35.5502 32.0966 35.6843 32.2307C35.8184 32.3648 35.8937 32.5466 35.8937 32.7362V40.6C35.8937 40.7896 35.969 40.9715 36.1031 41.1055C36.2372 41.2396 36.419 41.3149 36.6086 41.3149C36.7982 41.3149 36.98 41.2396 37.1141 41.1055C37.2482 40.9715 37.3235 40.7896 37.3235 40.6V32.7362C37.3225 32.3936 37.2395 32.0562 37.0814 31.7523C36.9232 31.4484 36.6946 31.1868 36.4146 30.9893C36.1346 30.7919 35.8114 30.6645 35.472 30.6177C35.1326 30.5708 34.7869 30.606 34.4639 30.7202ZM14.4469 10.5745C14.4469 10.0057 14.6728 9.46016 15.075 9.05795C15.4772 8.65575 16.0228 8.42979 16.5916 8.42979H30.8894C31.4583 8.42979 32.0038 8.65575 32.406 9.05795C32.8082 9.46016 33.0341 10.0057 33.0341 10.5745V11.2894H14.4469V10.5745ZM23.2329 39.8851H16.5916C16.0228 39.8851 15.4772 39.6592 15.075 39.257C14.6728 38.8548 14.4469 38.3093 14.4469 37.7404V37.0256H20.0159C20.2447 37.3759 20.1088 37.2186 23.2329 39.8851ZM31.2683 30.1626C31.0082 29.7533 30.6171 29.4443 30.1588 29.2859C29.7005 29.1275 29.2021 29.1291 28.7448 29.2904V26.3021C28.7448 25.7333 28.5188 25.1878 28.1166 24.7856C27.7144 24.3834 27.1689 24.1575 26.6001 24.1575C26.0313 24.1575 25.4858 24.3834 25.0836 24.7856C24.6814 25.1878 24.4554 25.7333 24.4554 26.3021H18.0213C17.8317 26.3021 17.6499 26.3775 17.5158 26.5115C17.3818 26.6456 17.3065 26.8274 17.3065 27.017C17.3065 27.2066 17.3818 27.3885 17.5158 27.5225C17.6499 27.6566 17.8317 27.7319 18.0213 27.7319H24.4554V34.6021L22.3965 33.8872C22.1062 33.7907 21.7981 33.7599 21.4945 33.7969C21.1909 33.834 20.8992 33.938 20.6407 34.1015C20.3822 34.2649 20.1631 34.4838 19.9994 34.7422C19.8358 35.0006 19.7315 35.2922 19.6942 35.5958H14.4469V12.7192H33.0341V30.0053C32.7466 29.8988 32.4389 29.8577 32.1335 29.8849C31.8281 29.9121 31.5325 30.007 31.2683 30.1626Z" fill="#065E4A"/>
<path d="M21.596 15.5787V19.1531C21.596 19.5323 21.4454 19.896 21.1772 20.1641C20.9091 20.4323 20.5454 20.5829 20.1662 20.5829C19.787 20.5829 19.4233 20.4323 19.1552 20.1641C18.8871 19.896 18.7364 19.5323 18.7364 19.1531V15.5787C18.7364 15.3891 18.6611 15.2072 18.527 15.0732C18.393 14.9391 18.2111 14.8638 18.0215 14.8638C17.8319 14.8638 17.6501 14.9391 17.516 15.0732C17.382 15.2072 17.3066 15.3891 17.3066 15.5787V19.1531C17.3066 19.9115 17.6079 20.6389 18.1442 21.1752C18.6805 21.7114 19.4078 22.0127 20.1662 22.0127C20.9246 22.0127 21.652 21.7114 22.1882 21.1752C22.7245 20.6389 23.0258 19.9115 23.0258 19.1531V15.5787C23.0258 15.3891 22.9505 15.2072 22.8164 15.0732C22.6823 14.9391 22.5005 14.8638 22.3109 14.8638C22.1213 14.8638 21.9395 14.9391 21.8054 15.0732C21.6713 15.2072 21.596 15.3891 21.596 15.5787Z" fill="#065E4A"/>
<path d="M28.8879 15.1497L27.3151 17.2444L25.7424 15.1497C25.6286 14.998 25.4593 14.8978 25.2716 14.871C25.0839 14.8441 24.8932 14.893 24.7415 15.0068C24.5898 15.1205 24.4896 15.2899 24.4628 15.4776C24.4359 15.6653 24.4848 15.8559 24.5985 16.0076L26.4215 18.4382L24.5985 20.8689C24.4848 21.0206 24.4359 21.2112 24.4628 21.3989C24.4896 21.5866 24.5898 21.756 24.7415 21.8697C24.8932 21.9835 25.0839 22.0323 25.2716 22.0055C25.4593 21.9787 25.6286 21.8784 25.7424 21.7268L27.3151 19.6321L28.8879 21.7268C29.0017 21.8784 29.171 21.9787 29.3587 22.0055C29.5464 22.0323 29.7371 21.9835 29.8888 21.8697C30.0404 21.756 30.1407 21.5866 30.1675 21.3989C30.1944 21.2112 30.1455 21.0206 30.0317 20.8689L28.2088 18.4382L30.0317 16.0076C30.1455 15.8559 30.1944 15.6653 30.1675 15.4776C30.1407 15.2899 30.0404 15.1205 29.8888 15.0068C29.7371 14.893 29.5464 14.8441 29.3587 14.871C29.171 14.8978 29.0017 14.998 28.8879 15.1497Z" fill="#065E4A"/>
<path d="M22.3109 23.4426H18.0215C17.8319 23.4426 17.6501 23.5179 17.516 23.652C17.382 23.7861 17.3066 23.9679 17.3066 24.1575C17.3066 24.3471 17.382 24.529 17.516 24.663C17.6501 24.7971 17.8319 24.8724 18.0215 24.8724H22.3109C22.5005 24.8724 22.6823 24.7971 22.8164 24.663C22.9505 24.529 23.0258 24.3471 23.0258 24.1575C23.0258 23.9679 22.9505 23.7861 22.8164 23.652C22.6823 23.5179 22.5005 23.4426 22.3109 23.4426Z" fill="#065E4A"/>
<path d="M18.0215 30.5914H20.8811C21.0707 30.5914 21.2525 30.5161 21.3866 30.382C21.5207 30.248 21.596 30.0661 21.596 29.8765C21.596 29.6869 21.5207 29.5051 21.3866 29.371C21.2525 29.2369 21.0707 29.1616 20.8811 29.1616H18.0215C17.8319 29.1616 17.6501 29.2369 17.516 29.371C17.382 29.5051 17.3066 29.6869 17.3066 29.8765C17.3066 30.0661 17.382 30.248 17.516 30.382C17.6501 30.5161 17.8319 30.5914 18.0215 30.5914Z" fill="#065E4A"/>
</svg>
