<svg width="45" height="45" viewBox="0 0 45 45" fill="none" xmlns="http://www.w3.org/2000/svg">
<path d="M43.3475 10.1039C43.2821 10.0232 43.1996 9.95809 43.106 9.91311C43.0124 9.86812 42.91 9.84444 42.8061 9.84375H42.1874V2.10938C42.1874 1.92289 42.1133 1.74405 41.9814 1.61219C41.8496 1.48033 41.6707 1.40625 41.4842 1.40625H27.4217C27.2353 1.40625 27.0564 1.48033 26.9245 1.61219C26.7927 1.74405 26.7186 1.92289 26.7186 2.10938V9.84375H26.0999C25.996 9.84444 25.8936 9.86812 25.8 9.91311C25.7064 9.95809 25.6239 10.0232 25.5585 10.1039C25.4919 10.1853 25.4446 10.2808 25.4203 10.3831C25.3959 10.4854 25.3951 10.5919 25.4178 10.6945L26.0295 13.507C26.0634 13.6645 26.1503 13.8057 26.2757 13.9068C26.4011 14.0079 26.5575 14.0629 26.7186 14.0625H42.1874C42.3485 14.0629 42.5048 14.0079 42.6303 13.9068C42.7557 13.8057 42.8426 13.6645 42.8764 13.507L43.4881 10.6945C43.5109 10.5919 43.51 10.4854 43.4857 10.3831C43.4613 10.2808 43.4141 10.1853 43.3475 10.1039ZM28.1249 2.8125H40.7811V9.84375H35.8592C35.6728 9.84375 35.4939 9.91783 35.362 10.0497C35.2302 10.1816 35.1561 10.3604 35.1561 10.5469H33.7499C33.7499 10.3604 33.6758 10.1816 33.5439 10.0497C33.4121 9.91783 33.2332 9.84375 33.0467 9.84375H28.1249V2.8125ZM41.6249 12.6562H27.2811L26.9788 11.25H32.3436C32.3436 11.4365 32.4177 11.6153 32.5495 11.7472C32.6814 11.879 32.8603 11.9531 33.0467 11.9531H35.8592C36.0457 11.9531 36.2246 11.879 36.3564 11.7472C36.4883 11.6153 36.5624 11.4365 36.5624 11.25H41.9272L41.6249 12.6562Z" fill="#065E4A"/>
<path d="M14.7656 29.5312H3.51562C2.9567 29.5329 2.42114 29.7557 2.02592 30.1509C1.63069 30.5461 1.40792 31.0817 1.40625 31.6406V38.6719C1.40792 39.2308 1.63069 39.7664 2.02592 40.1616C2.42114 40.5568 2.9567 40.7796 3.51562 40.7812H6.18047L5.70937 42.7219C5.68207 42.8256 5.67929 42.9342 5.70125 43.0392C5.72322 43.1441 5.76934 43.2425 5.83594 43.3266C5.90215 43.4104 5.98659 43.478 6.08283 43.5243C6.17908 43.5706 6.28461 43.5943 6.39141 43.5938H11.8898C11.9966 43.5943 12.1022 43.5706 12.1984 43.5243C12.2947 43.478 12.3791 43.4104 12.4453 43.3266C12.5119 43.2425 12.558 43.1441 12.58 43.0392C12.602 42.9342 12.5992 42.8256 12.5719 42.7219L12.1008 40.7812H14.7656C15.3246 40.7796 15.8601 40.5568 16.2553 40.1616C16.6506 39.7664 16.8733 39.2308 16.875 38.6719V31.6406C16.8733 31.0817 16.6506 30.5461 16.2553 30.1509C15.8601 29.7557 15.3246 29.5329 14.7656 29.5312ZM7.28437 42.1875L7.62891 40.7812H10.6523L10.9969 42.1875H7.28437ZM15.4688 38.6719C15.4688 38.8584 15.3947 39.0372 15.2628 39.1691C15.1309 39.3009 14.9521 39.375 14.7656 39.375H3.51562C3.32914 39.375 3.1503 39.3009 3.01844 39.1691C2.88658 39.0372 2.8125 38.8584 2.8125 38.6719V37.9688H15.4688V38.6719ZM15.4688 36.5625H2.8125V31.6406C2.8125 31.4541 2.88658 31.2753 3.01844 31.1434C3.1503 31.0116 3.32914 30.9375 3.51562 30.9375H14.7656C14.9521 30.9375 15.1309 31.0116 15.2628 31.1434C15.3947 31.2753 15.4688 31.4541 15.4688 31.6406V36.5625Z" fill="#065E4A"/>
<path d="M41.4844 28.125H35.8594C35.3004 28.1267 34.7649 28.3494 34.3697 28.7447C33.9744 29.1399 33.7517 29.6754 33.75 30.2344V41.4844C33.7517 42.0433 33.9744 42.5789 34.3697 42.9741C34.7649 43.3693 35.3004 43.5921 35.8594 43.5938H41.4844C42.0433 43.5921 42.5789 43.3693 42.9741 42.9741C43.3693 42.5789 43.5921 42.0433 43.5938 41.4844V30.2344C43.5921 29.6754 43.3693 29.1399 42.9741 28.7447C42.5789 28.3494 42.0433 28.1267 41.4844 28.125ZM40.0781 29.5312C40.0781 29.7177 40.004 29.8966 39.8722 30.0284C39.7403 30.1603 39.5615 30.2344 39.375 30.2344H37.9688C37.7823 30.2344 37.6034 30.1603 37.4716 30.0284C37.3397 29.8966 37.2656 29.7177 37.2656 29.5312H40.0781ZM42.1875 41.4844C42.1875 41.6709 42.1134 41.8497 41.9816 41.9816C41.8497 42.1134 41.6709 42.1875 41.4844 42.1875H35.8594C35.6729 42.1875 35.4941 42.1134 35.3622 41.9816C35.2303 41.8497 35.1562 41.6709 35.1562 41.4844V30.2344C35.1562 30.0479 35.2303 29.8691 35.3622 29.7372C35.4941 29.6053 35.6729 29.5312 35.8594 29.5312C35.861 30.0902 36.0838 30.6257 36.479 31.021C36.8743 31.4162 37.4098 31.639 37.9688 31.6406H39.375C39.9339 31.639 40.4695 31.4162 40.8647 31.021C41.2599 30.6257 41.4827 30.0902 41.4844 29.5312C41.6709 29.5312 41.8497 29.6053 41.9816 29.7372C42.1134 29.8691 42.1875 30.0479 42.1875 30.2344V41.4844Z" fill="#065E4A"/>
<path d="M11.9531 1.40625H3.51562C2.9567 1.40792 2.42114 1.63069 2.02592 2.02592C1.63069 2.42114 1.40792 2.9567 1.40625 3.51562V14.7656C1.40792 15.3246 1.63069 15.8601 2.02592 16.2553C2.42114 16.6506 2.9567 16.8733 3.51562 16.875H11.9531C12.5121 16.8733 13.0476 16.6506 13.4428 16.2553C13.8381 15.8601 14.0608 15.3246 14.0625 14.7656V3.51562C14.0608 2.9567 13.8381 2.42114 13.4428 2.02592C13.0476 1.63069 12.5121 1.40792 11.9531 1.40625ZM12.6562 14.7656C12.6562 14.9521 12.5822 15.1309 12.4503 15.2628C12.3184 15.3947 12.1396 15.4688 11.9531 15.4688H3.51562C3.32914 15.4688 3.1503 15.3947 3.01844 15.2628C2.88658 15.1309 2.8125 14.9521 2.8125 14.7656V3.51562C2.8125 3.32914 2.88658 3.1503 3.01844 3.01844C3.1503 2.88658 3.32914 2.8125 3.51562 2.8125H11.9531C12.1396 2.8125 12.3184 2.88658 12.4503 3.01844C12.5822 3.1503 12.6562 3.32914 12.6562 3.51562V14.7656Z" fill="#065E4A"/>
<path d="M8.4375 12.6562H7.03125V14.0625H8.4375V12.6562Z" fill="#065E4A"/>
<path d="M29.6156 20.4609L27.9281 20.25L28.9758 18.907C29.081 18.7715 29.1327 18.6021 29.121 18.4309C29.1093 18.2598 29.0351 18.0989 28.9125 17.9789L27.0211 16.0875C26.9006 15.9657 26.7399 15.8921 26.569 15.8804C26.3981 15.8688 26.2288 15.9199 26.093 16.0242L24.75 17.0719L24.5391 15.3844C24.5165 15.2137 24.4328 15.0569 24.3035 14.9432C24.1742 14.8294 24.0081 14.7663 23.8359 14.7656H21.1641C20.9919 14.7663 20.8258 14.8294 20.6965 14.9432C20.5672 15.0569 20.4835 15.2137 20.4609 15.3844L20.25 17.0719L18.907 16.0242C18.7712 15.9199 18.6019 15.8688 18.431 15.8804C18.2601 15.8921 18.0994 15.9657 17.9789 16.0875L16.0875 17.9789C15.9649 18.0989 15.8907 18.2598 15.879 18.4309C15.8673 18.6021 15.919 18.7715 16.0242 18.907L17.0719 20.25L15.3844 20.4609C15.2137 20.4835 15.0569 20.5672 14.9432 20.6965C14.8294 20.8258 14.7663 20.9919 14.7656 21.1641V23.8359C14.7663 24.0081 14.8294 24.1742 14.9432 24.3035C15.0569 24.4328 15.2137 24.5165 15.3844 24.5391L17.0719 24.75L16.0242 26.093C15.919 26.2285 15.8673 26.3979 15.879 26.5691C15.8907 26.7402 15.9649 26.9011 16.0875 27.0211L17.9789 28.9125C18.0994 29.0343 18.2601 29.1079 18.431 29.1196C18.6019 29.1312 18.7712 29.0801 18.907 28.9758L20.25 27.9281L20.4609 29.6156C20.4835 29.7863 20.5672 29.9431 20.6965 30.0568C20.8258 30.1706 20.9919 30.2337 21.1641 30.2344H23.8359C24.0081 30.2337 24.1742 30.1706 24.3035 30.0568C24.4328 29.9431 24.5165 29.7863 24.5391 29.6156L24.75 27.9281L26.093 28.9758C26.2288 29.0801 26.3981 29.1312 26.569 29.1196C26.7399 29.1079 26.9006 29.0343 27.0211 28.9125L28.9125 27.0211C29.0351 26.9011 29.1093 26.7402 29.121 26.5691C29.1327 26.3979 29.081 26.2285 28.9758 26.093L27.9281 24.75L29.6156 24.5391C29.7863 24.5165 29.9431 24.4328 30.0568 24.3035C30.1706 24.1742 30.2337 24.0081 30.2344 23.8359V21.1641C30.2337 20.9919 30.1706 20.8258 30.0568 20.6965C29.9431 20.5672 29.7863 20.4835 29.6156 20.4609ZM28.8281 23.2172L27.1617 23.4281C27.0307 23.4435 26.9068 23.496 26.8047 23.5795C26.7025 23.663 26.6264 23.7739 26.5852 23.8992C26.5219 24.068 26.4516 24.2367 26.3742 24.3984C26.3152 24.516 26.2911 24.6481 26.3048 24.7789C26.3186 24.9097 26.3695 25.0339 26.4516 25.1367L27.4852 26.4656L26.4656 27.4852L25.1367 26.4516C25.0339 26.3695 24.9097 26.3186 24.7789 26.3048C24.6481 26.2911 24.516 26.3152 24.3984 26.3742C24.2333 26.453 24.0644 26.5234 23.8922 26.5852C23.7684 26.6278 23.6592 26.7046 23.5771 26.8066C23.495 26.9086 23.4434 27.0317 23.4281 27.1617L23.2172 28.8281H21.7828L21.5719 27.1617C21.5566 27.0317 21.505 26.9086 21.4229 26.8066C21.3408 26.7046 21.2316 26.6278 21.1078 26.5852C20.9356 26.5234 20.7667 26.453 20.6016 26.3742C20.484 26.3152 20.3519 26.2911 20.2211 26.3048C20.0903 26.3186 19.9661 26.3695 19.8633 26.4516L18.5344 27.4852L17.5148 26.4656L18.5484 25.1367C18.6305 25.0339 18.6814 24.9097 18.6952 24.7789C18.7089 24.6481 18.6848 24.516 18.6258 24.3984C18.5484 24.2367 18.4781 24.068 18.4148 23.8992C18.3736 23.7739 18.2975 23.663 18.1953 23.5795C18.0932 23.496 17.9693 23.4435 17.8383 23.4281L16.1719 23.2172V21.7828L17.8383 21.5719C17.9693 21.5565 18.0932 21.504 18.1953 21.4205C18.2975 21.337 18.3736 21.2261 18.4148 21.1008C18.4781 20.932 18.5484 20.7633 18.6258 20.6016C18.6848 20.484 18.7089 20.3519 18.6952 20.2211C18.6814 20.0903 18.6305 19.9661 18.5484 19.8633L17.5148 18.5344L18.5344 17.5148L19.8633 18.5484C19.9661 18.6305 20.0903 18.6814 20.2211 18.6952C20.3519 18.7089 20.484 18.6848 20.6016 18.6258C20.7633 18.5484 20.932 18.4781 21.1008 18.4148C21.2261 18.3736 21.337 18.2975 21.4205 18.1953C21.504 18.0932 21.5565 17.9693 21.5719 17.8383L21.7828 16.1719H23.2172L23.4281 17.8383C23.4435 17.9693 23.496 18.0932 23.5795 18.1953C23.663 18.2975 23.7739 18.3736 23.8992 18.4148C24.068 18.4781 24.2367 18.5484 24.3984 18.6258C24.516 18.6848 24.6481 18.7089 24.7789 18.6952C24.9097 18.6814 25.0339 18.6305 25.1367 18.5484L26.4656 17.5148L27.4852 18.5344L26.4516 19.8633C26.3695 19.9661 26.3186 20.0903 26.3048 20.2211C26.2911 20.3519 26.3152 20.484 26.3742 20.6016C26.4516 20.7633 26.5219 20.932 26.5852 21.1008C26.6264 21.2261 26.7025 21.337 26.8047 21.4205C26.9068 21.504 27.0307 21.5565 27.1617 21.5719L28.8281 21.7828V23.2172Z" fill="#065E4A"/>
<path d="M26.0156 22.5C26.0156 21.8047 25.8094 21.125 25.4231 20.5468C25.0368 19.9687 24.4878 19.5181 23.8454 19.252C23.203 18.9859 22.4961 18.9163 21.8141 19.0519C21.1322 19.1876 20.5057 19.5224 20.0141 20.0141C19.5224 20.5057 19.1876 21.1322 19.0519 21.8141C18.9163 22.4961 18.9859 23.203 19.252 23.8454C19.5181 24.4878 19.9687 25.0368 20.5468 25.4231C21.125 25.8094 21.8047 26.0156 22.5 26.0156C23.4321 26.0145 24.3256 25.6438 24.9847 24.9847C25.6438 24.3256 26.0145 23.4321 26.0156 22.5ZM22.5 24.6094C22.0828 24.6094 21.675 24.4857 21.3281 24.2539C20.9812 24.0221 20.7108 23.6927 20.5512 23.3072C20.3915 22.9218 20.3498 22.4977 20.4312 22.0885C20.5125 21.6793 20.7134 21.3034 21.0084 21.0084C21.3034 20.7134 21.6793 20.5125 22.0885 20.4312C22.4977 20.3498 22.9218 20.3915 23.3072 20.5512C23.6927 20.7108 24.0221 20.9812 24.2539 21.3281C24.4857 21.675 24.6094 22.0828 24.6094 22.5C24.6094 23.0594 24.3871 23.596 23.9916 23.9916C23.596 24.3871 23.0594 24.6094 22.5 24.6094Z" fill="#065E4A"/>
<path d="M31.6406 21.0938V22.5H34.4531C34.6396 22.5 34.8184 22.4259 34.9503 22.2941C35.0822 22.1622 35.1562 21.9834 35.1562 21.7969V15.4688H33.75V21.0938H31.6406Z" fill="#065E4A"/>
<path d="M7.73438 22.5V28.125H9.14062V23.2031H13.3594V21.7969H8.4375C8.25102 21.7969 8.07218 21.871 7.94032 22.0028C7.80845 22.1347 7.73438 22.3135 7.73438 22.5Z" fill="#065E4A"/>
<path d="M21.7969 13.3594H23.2031V9.14062C23.2031 8.95414 23.129 8.7753 22.9972 8.64344C22.8653 8.51158 22.6865 8.4375 22.5 8.4375H15.4688V9.84375H21.7969V13.3594Z" fill="#065E4A"/>
<path d="M23.2031 31.6406H21.7969V37.2656C21.7969 37.4521 21.871 37.6309 22.0028 37.7628C22.1347 37.8947 22.3135 37.9688 22.5 37.9688H32.3438V36.5625H23.2031V31.6406Z" fill="#065E4A"/>
</svg>
