<svg width="38" height="38" viewBox="0 0 38 38" fill="none" xmlns="http://www.w3.org/2000/svg">
<g clip-path="url(#clip0_927_2190)">
<path d="M25.8296 11.5149C25.4191 11.5149 25.0859 11.8466 25.0859 12.2568C25.0859 12.6667 25.4191 12.999 25.8296 12.999C26.2409 12.999 26.5732 12.6667 26.5732 12.2568C26.5732 11.8466 26.2409 11.5149 25.8296 11.5149Z" fill="#065E4A"/>
<path d="M12.3179 24.9998C11.9065 24.9998 11.5742 25.3323 11.5742 25.7419C11.5742 26.1525 11.9065 26.4841 12.3179 26.4841C12.7283 26.4841 13.0615 26.1525 13.0615 25.7419C13.0615 25.3323 12.7283 24.9998 12.3179 24.9998Z" fill="#065E4A"/>
<path d="M37.1863 4.56598C36.9353 4.5077 36.6715 4.58337 36.4903 4.76602L33.4074 7.86726H31.9294L30.3024 6.18487V4.68919L33.3411 1.61114C33.521 1.42907 33.5942 1.16728 33.5346 0.918238C33.4753 0.669489 33.2918 0.468866 33.0489 0.38711C32.2855 0.130243 31.4867 7.04126e-05 30.6742 7.04126e-05C28.2521 7.04126e-05 26.0517 1.12727 24.6371 3.09262C23.313 4.93243 22.9049 7.18712 23.4897 9.34497L18.012 14.8119L8.88613 5.68303V3.89134C8.88613 3.6307 8.74903 3.38891 8.52506 3.25497L3.267 0.10589C2.9742 -0.0695097 2.59976 -0.0234129 2.35866 0.217508L0.255554 2.31622C0.0144516 2.55714 -0.0317354 2.93084 0.143717 3.22308L3.29838 8.47087C3.43258 8.6944 3.67455 8.83095 3.9357 8.83124L5.73031 8.83182L14.857 17.9607L9.40029 23.4068C7.23822 22.8235 4.97796 23.2314 3.13367 24.5537C1.16564 25.9648 0.0371094 28.1603 0.0371094 30.5776C0.0371094 31.3882 0.167537 32.1858 0.424906 32.9474C0.507113 33.1912 0.710162 33.3753 0.96114 33.4333C1.21241 33.4916 1.47588 33.4159 1.65743 33.2333L4.74005 30.1323H6.22617L7.9194 31.8222V33.3055L4.81238 36.3821C4.62938 36.5633 4.55356 36.8262 4.61195 37.077C4.67004 37.3275 4.8545 37.5301 5.0988 37.6122C5.8619 37.869 6.66102 37.9992 7.47322 37.9992C9.89528 37.9992 12.0948 36.8726 13.5089 34.9084C14.8338 33.0677 15.2425 30.8122 14.6581 28.6543L19.0406 24.2803L20.0445 25.3687L19.5838 25.8282C19.2933 26.1181 19.2933 26.5881 19.5838 26.878C19.8743 27.1676 20.3449 27.1676 20.6356 26.878L21.0528 26.4617L30.472 36.6731C30.479 36.6807 30.4863 36.6879 30.4935 36.6952C32.2364 38.4347 35.0602 38.4353 36.804 36.6949C38.5428 34.9586 38.5428 32.1333 36.804 30.397C36.7965 30.3895 36.7886 30.3822 36.7808 30.375L26.5333 20.9921L26.9458 20.5804C27.2363 20.2908 27.2363 19.8208 26.9458 19.5309C26.6554 19.241 26.1848 19.241 25.894 19.5309L25.4365 19.9878L24.344 18.987L28.7477 14.5919C29.3737 14.7589 30.0197 14.8435 30.6742 14.8435C34.7747 14.8435 38.1103 11.5141 38.1103 7.42195C38.1103 6.61105 37.9799 5.81378 37.7225 5.05188C37.6403 4.80806 37.4373 4.62396 37.1863 4.56598ZM6.56516 7.56546C6.42573 7.42601 6.23663 7.35498 6.0391 7.35498L4.35719 7.3544L1.71785 2.95636L2.99976 1.67695L7.39885 4.31172V5.99034C7.39885 6.1869 7.47699 6.37535 7.61614 6.51451L16.9604 15.8617L15.9086 16.9112L6.56516 7.56546ZM25.4806 22.0428L35.7629 31.4572C36.9115 32.6158 36.908 34.4915 35.7522 35.6457C34.5937 36.8019 32.7183 36.8053 31.5552 35.6558L22.1052 25.411L25.4806 22.0428ZM24.3838 21.0382L21.0969 24.318L20.093 23.2297L23.2913 20.0374L24.3838 21.0382ZM30.6742 13.3592C30.0238 13.3592 29.3842 13.2551 28.7736 13.0498C28.506 12.9602 28.2103 13.0292 28.0105 13.2284C24.2824 16.9492 16.2493 24.9663 13.2913 27.9188C13.0915 28.1183 13.022 28.4134 13.1124 28.6807C13.7305 30.5127 13.4348 32.4667 12.3008 34.0424C11.1699 35.6135 9.41017 36.5148 7.47322 36.5148C7.25565 36.5148 7.03923 36.503 6.82486 36.4801L9.18678 34.141C9.32738 34.0018 9.40668 33.8122 9.40668 33.6142V31.5146C9.40668 31.3178 9.32825 31.1291 9.18882 30.9899L7.05986 28.8651C6.92043 28.7259 6.73132 28.6477 6.53408 28.6477H4.43039C4.23199 28.6477 4.04202 28.7268 3.90229 28.8671L1.55896 31.2244C1.53572 31.0105 1.5241 30.7945 1.5241 30.5773C1.5241 28.6439 2.42692 26.8879 4.00135 25.7592C5.57984 24.6274 7.538 24.3319 9.37386 24.9492C9.64139 25.0393 9.93711 24.9701 10.137 24.7706C10.1779 24.73 24.8456 10.0906 24.8561 10.0802C25.0559 9.88074 25.1251 9.58589 25.035 9.31859C24.4166 7.4866 24.7117 5.53314 25.8449 3.9586C26.9766 2.38609 28.7367 1.48445 30.6739 1.48445C30.8982 1.48445 31.121 1.49691 31.3417 1.52127L29.0289 3.86409C28.8918 4.00296 28.8151 4.18995 28.8151 4.38478V6.48436C28.8151 6.67686 28.8898 6.86154 29.0237 6.99983L31.0783 9.12463C31.2183 9.26959 31.4115 9.35135 31.6133 9.35135H33.717C33.9151 9.35135 34.1051 9.27249 34.2448 9.13188L36.5882 6.77485C36.6114 6.98881 36.623 7.2048 36.623 7.42195C36.623 10.6957 33.9544 13.3592 30.6742 13.3592Z" fill="#065E4A"/>
<path d="M23.2006 13.831L13.8949 23.1185C13.6047 23.4081 13.6047 23.878 13.8949 24.168C14.1854 24.4579 14.6563 24.4579 14.9467 24.168L24.2524 14.8805C24.5429 14.5908 24.5429 14.1209 24.2524 13.831C23.9619 13.541 23.491 13.541 23.2006 13.831Z" fill="#065E4A"/>
<path d="M32.5978 33.5469C32.8883 33.836 33.3591 33.836 33.6496 33.5452C33.9395 33.255 33.9387 32.785 33.6479 32.4957L26.945 25.8273C26.6542 25.538 26.183 25.5388 25.8934 25.829C25.6032 26.1195 25.6041 26.5892 25.8949 26.8785L32.5978 33.5469Z" fill="#065E4A"/>
</g>
<defs>
<clipPath id="clip0_927_2190">
<rect width="38" height="38" fill="white"/>
</clipPath>
</defs>
</svg>
