<svg width="45" height="45" viewBox="0 0 45 45" fill="none" xmlns="http://www.w3.org/2000/svg">
<path d="M41.4844 28.125V23.2031C41.4844 21.5248 40.8177 19.9152 39.6309 18.7285C38.4442 17.5417 36.8346 16.875 35.1562 16.875C33.4779 16.875 31.8683 17.5417 30.6816 18.7285C29.4948 19.9152 28.8281 21.5248 28.8281 23.2031V24.5693C27.8472 24.0408 26.796 23.6547 25.7063 23.4225L22.5 22.654V21.24C23.5782 20.5383 24.4643 19.5788 25.0782 18.4483C25.6921 17.3178 26.0143 16.052 26.0156 14.7656V12.6562H26.7188C26.9052 12.6562 27.0841 12.5822 27.2159 12.4503C27.3478 12.3184 27.4219 12.1396 27.4219 11.9531V9.14062C27.4195 7.09008 26.6038 5.12422 25.1539 3.67427C23.7039 2.22432 21.738 1.40867 19.6875 1.40625H16.875C14.8245 1.40867 12.8586 2.22432 11.4086 3.67427C9.95869 5.12422 9.14304 7.09008 9.14062 9.14062V11.9531C9.14062 12.1396 9.2147 12.3184 9.34657 12.4503C9.47843 12.5822 9.65727 12.6562 9.84375 12.6562H10.5469V14.7656C10.5482 16.052 10.8704 17.3178 11.4843 18.4483C12.0982 19.5788 12.9843 20.5383 14.0625 21.24V22.654L10.8548 23.4225C8.1856 24.006 5.79495 25.4818 4.07725 27.6066C2.35956 29.7315 1.41742 32.3783 1.40625 35.1105V43.5938H41.4844C42.0438 43.5938 42.5803 43.3715 42.9759 42.9759C43.3715 42.5803 43.5938 42.0438 43.5938 41.4844V30.2344C43.5938 29.6749 43.3715 29.1384 42.9759 28.7428C42.5803 28.3472 42.0438 28.125 41.4844 28.125ZM30.2344 23.2031C30.2344 21.8978 30.7529 20.6459 31.676 19.7228C32.599 18.7998 33.8509 18.2812 35.1562 18.2812C36.4616 18.2812 37.7135 18.7998 38.6365 19.7228C39.5596 20.6459 40.0781 21.8978 40.0781 23.2031V28.125H39.375V23.2031C39.375 22.0842 38.9305 21.0112 38.1394 20.22C37.3482 19.4288 36.2751 18.9844 35.1562 18.9844C34.0374 18.9844 32.9643 19.4288 32.1731 20.22C31.382 21.0112 30.9375 22.0842 30.9375 23.2031V28.125H30.2344V23.2031ZM37.9688 28.125H32.3438V23.2031C32.3438 22.4572 32.6401 21.7418 33.1675 21.2144C33.695 20.6869 34.4103 20.3906 35.1562 20.3906C35.9022 20.3906 36.6175 20.6869 37.145 21.2144C37.6724 21.7418 37.9688 22.4572 37.9688 23.2031V28.125ZM28.8281 28.125C28.2687 28.125 27.7322 28.3472 27.3366 28.7428C26.941 29.1384 26.7188 29.6749 26.7188 30.2344V41.4844C26.7211 41.7244 26.7648 41.9623 26.8481 42.1875H23.3438L26.5078 25.1016C27.3238 25.3715 28.1032 25.7416 28.8281 26.2034V28.125ZM18.2812 26.2125L19.0695 26.8453L19.1749 27.7924L18.2812 28.087L17.3876 27.7903L17.493 26.8432L18.2812 26.2125ZM17.2266 29.2198L18.0584 29.4954C18.2022 29.5431 18.3575 29.5431 18.5013 29.4954L19.3331 29.2198L20.3562 38.4138L18.2812 40.4902L16.2049 38.4138L17.2266 29.2198ZM19.5089 25.3955L21.9073 23.9562L23.4696 24.3464L21.6359 27.097L19.5089 25.3955ZM10.5469 9.14062C10.5489 7.46293 11.2163 5.85454 12.4026 4.66823C13.5889 3.48192 15.1973 2.81455 16.875 2.8125H19.6875C21.3652 2.81455 22.9736 3.48192 24.1599 4.66823C25.3462 5.85454 26.0136 7.46293 26.0156 9.14062V11.25H25.2584C24.9419 11.2506 24.6295 11.1798 24.3442 11.0429C24.059 10.9059 23.8083 10.7063 23.6109 10.459L21.6422 7.99805C21.5763 7.91567 21.4928 7.84917 21.3977 7.80347C21.3026 7.75777 21.1985 7.73405 21.093 7.73405C20.9876 7.73405 20.8835 7.75777 20.7884 7.80347C20.6933 7.84917 20.6098 7.91567 20.5439 7.99805L19.4189 9.4043C18.959 9.98143 18.3747 10.4472 17.7096 10.7668C17.0444 11.0864 16.3157 11.2516 15.5777 11.25H10.5469V9.14062ZM11.9531 14.7656V12.6562H15.5777C16.5272 12.6585 17.4649 12.4461 18.3206 12.0348C19.1764 11.6235 19.928 11.0239 20.5193 10.2811L21.0938 9.5625L22.5127 11.3365C23.0378 11.9934 23.7822 12.439 24.6094 12.5916V14.7656C24.6094 16.4439 23.9427 18.0535 22.7559 19.2403C21.5692 20.427 19.9596 21.0938 18.2812 21.0938C16.6029 21.0938 14.9933 20.427 13.8066 19.2403C12.6198 18.0535 11.9531 16.4439 11.9531 14.7656ZM18.2812 22.5C19.2441 22.4988 20.1982 22.3165 21.0938 21.9628V22.8066L18.2812 24.4941L15.4688 22.8066V21.9628C16.3643 22.3165 17.3184 22.4988 18.2812 22.5ZM14.6538 23.9562L17.0522 25.3955L14.9252 27.097L13.0915 24.3464L14.6538 23.9562ZM2.8125 35.1105C2.82251 32.8947 3.52645 30.7376 4.82541 28.9424C6.12437 27.1472 7.9531 25.804 10.0547 25.1016L13.2187 42.1875H9.84375V34.4531C9.84375 34.2666 9.76967 34.0878 9.63781 33.9559C9.50595 33.8241 9.32711 33.75 9.14062 33.75C8.95414 33.75 8.7753 33.8241 8.64344 33.9559C8.51158 34.0878 8.4375 34.2666 8.4375 34.4531V42.1875H2.8125V35.1105ZM14.6475 42.1875L11.4131 24.7402L11.6297 24.6937L14.1771 28.5152C14.2312 28.5963 14.3016 28.6652 14.3838 28.7176C14.466 28.7701 14.5582 28.8048 14.6545 28.8197C14.6913 28.8255 14.7284 28.8283 14.7656 28.8281C14.9253 28.8282 15.0803 28.7739 15.2051 28.6741L15.9398 28.0856L14.7698 38.5938C14.7582 38.6987 14.7702 38.8048 14.8052 38.9044C14.8401 39.004 14.897 39.0944 14.9716 39.169L17.7841 41.9815C17.916 42.1133 18.0948 42.1874 18.2812 42.1874C18.4677 42.1874 18.6465 42.1133 18.7784 41.9815L21.5909 39.169C21.6655 39.0944 21.7224 39.004 21.7573 38.9044C21.7923 38.8048 21.8043 38.6987 21.7927 38.5938L20.6227 28.0856L21.3574 28.6741C21.4822 28.7739 21.6372 28.8282 21.7969 28.8281C21.8329 28.8281 21.8689 28.8253 21.9045 28.8197C22.0008 28.8048 22.093 28.7701 22.1752 28.7176C22.2574 28.6652 22.3277 28.5963 22.3819 28.5152L24.9293 24.6945L25.1459 24.7409L21.915 42.1875H14.6475ZM42.1875 41.4844C42.1875 41.6709 42.1134 41.8497 41.9816 41.9816C41.8497 42.1134 41.6709 42.1875 41.4844 42.1875H28.8281C28.6416 42.1875 28.4628 42.1134 28.3309 41.9816C28.1991 41.8497 28.125 41.6709 28.125 41.4844V30.2344C28.125 30.0479 28.1991 29.8691 28.3309 29.7372C28.4628 29.6053 28.6416 29.5312 28.8281 29.5312H41.4844C41.6709 29.5312 41.8497 29.6053 41.9816 29.7372C42.1134 29.8691 42.1875 30.0479 42.1875 30.2344V41.4844Z" fill="#065E4A"/>
<path d="M35.1563 32.3438C34.6593 32.3428 34.178 32.5178 33.7977 32.8377C33.4174 33.1576 33.1625 33.6018 33.0783 34.0916C32.9941 34.5814 33.0859 35.0852 33.3376 35.5138C33.5892 35.9423 33.9844 36.268 34.4532 36.4331V40.0781C34.4532 40.2646 34.5273 40.4435 34.6591 40.5753C34.791 40.7072 34.9698 40.7813 35.1563 40.7813C35.3428 40.7813 35.5216 40.7072 35.6535 40.5753C35.7853 40.4435 35.8594 40.2646 35.8594 40.0781V36.4331C36.3282 36.268 36.7234 35.9423 36.975 35.5138C37.2267 35.0852 37.3185 34.5814 37.2343 34.0916C37.1501 33.6018 36.8952 33.1576 36.5149 32.8377C36.1346 32.5178 35.6533 32.3428 35.1563 32.3438ZM35.1563 35.1563C35.0172 35.1563 34.8813 35.115 34.7657 35.0378C34.65 34.9605 34.5599 34.8507 34.5067 34.7222C34.4535 34.5937 34.4396 34.4523 34.4667 34.316C34.4938 34.1796 34.5608 34.0543 34.6591 33.9559C34.7574 33.8576 34.8827 33.7906 35.0191 33.7635C35.1555 33.7364 35.2969 33.7503 35.4254 33.8035C35.5538 33.8567 35.6637 33.9469 35.7409 34.0625C35.8182 34.1781 35.8594 34.3141 35.8594 34.4531C35.8594 34.6396 35.7853 34.8185 35.6535 34.9503C35.5216 35.0822 35.3428 35.1563 35.1563 35.1563Z" fill="#065E4A"/>
</svg>
