<svg width="30" height="26" viewBox="0 0 30 26" fill="none" xmlns="http://www.w3.org/2000/svg">
<path d="M1.07129 9.62857V18.2C1.07129 19.3835 2.03068 20.3429 3.21415 20.3429H16.0713C17.2547 20.3429 18.2141 19.3835 18.2141 18.2V9.62857C18.2141 8.44512 17.2547 7.48572 16.0713 7.48572H3.21415C2.03068 7.48572 1.07129 8.44512 1.07129 9.62857Z" stroke="black" stroke-linecap="round" stroke-linejoin="round"/>
<path d="M6.42822 24.6285H12.8568" stroke="black" stroke-linecap="round" stroke-linejoin="round"/>
<path d="M9.64258 24.6286V20.3429" stroke="black" stroke-linecap="round" stroke-linejoin="round"/>
<path d="M16.0713 3.19999V2.12856C16.0713 1.53683 16.551 1.05713 17.1427 1.05713H27.857C28.4486 1.05713 28.9284 1.53683 28.9284 2.12856V23.5571C28.9284 24.1488 28.4486 24.6286 27.857 24.6286H19.2856" stroke="black" stroke-linecap="round" stroke-linejoin="round"/>
<path d="M24.375 6.1469C24.2269 6.1469 24.1069 6.02688 24.1069 5.87881C24.1069 5.73074 24.2269 5.61072 24.375 5.61072" stroke="black" stroke-linecap="round" stroke-linejoin="round"/>
<path d="M24.3745 6.1469C24.5226 6.1469 24.6426 6.02688 24.6426 5.87881C24.6426 5.73074 24.5226 5.61072 24.3745 5.61072" stroke="black" stroke-linecap="round" stroke-linejoin="round"/>
<path d="M22.5 10.7H28.9286" stroke="black" stroke-linecap="round" stroke-linejoin="round"/>
</svg>
