<svg width="20" height="20" viewBox="0 0 20 20" fill="none" xmlns="http://www.w3.org/2000/svg">
<path d="M12.0203 18.2164C11.8554 18.2575 11.6872 18.294 11.5204 18.3247C11.0841 18.4059 10.7956 18.8255 10.8763 19.2622C10.9162 19.477 11.0382 19.6559 11.2038 19.7727C11.3746 19.8929 11.5918 19.9471 11.8133 19.906C12.012 19.8691 12.2123 19.8257 12.4089 19.7766C12.8397 19.6694 13.1022 19.233 12.9947 18.8023C12.8875 18.3714 12.4514 18.1091 12.0203 18.2164Z" fill="#00AD68"/>
<path d="M17.9658 7.43966C18.0221 7.60939 18.1296 7.74796 18.2654 7.8437C18.4668 7.98553 18.7303 8.03325 18.9818 7.95011C19.4033 7.81012 19.6318 7.35553 19.4923 6.93416C19.4287 6.74207 19.3582 6.54938 19.2831 6.36176C19.1182 5.94946 18.6505 5.74873 18.238 5.91365C17.8259 6.07848 17.6251 6.54628 17.7902 6.95871C17.8533 7.1164 17.9124 7.27827 17.9658 7.43966Z" fill="#00AD68"/>
<path d="M14.633 17.0684C14.4912 17.162 14.3448 17.2527 14.1973 17.3376C13.8126 17.5595 13.6808 18.0513 13.9026 18.4359C13.9629 18.5405 14.0431 18.626 14.1355 18.6913C14.3835 18.8658 14.7203 18.892 15.0008 18.7304C15.1761 18.6293 15.3504 18.5217 15.5194 18.41C15.8897 18.1654 15.9916 17.6665 15.7468 17.296C15.5021 16.9254 15.0035 16.8236 14.633 17.0684Z" fill="#00AD68"/>
<path d="M19.9921 9.68531C19.9746 9.24154 19.6009 8.89614 19.157 8.91347C18.7136 8.93096 18.368 9.30487 18.3854 9.74846C18.3921 9.91807 18.3938 10.0902 18.3899 10.2596C18.3836 10.5379 18.5197 10.786 18.7313 10.9351C18.8573 11.0238 19.0102 11.0775 19.176 11.0813C19.6198 11.0912 19.9875 10.7392 19.9974 10.2952C20.0018 10.0927 20.0001 9.88763 19.9921 9.68531Z" fill="#00AD68"/>
<path d="M17.8349 14.9534C17.479 14.6864 16.9756 14.7589 16.7091 15.1141C16.607 15.2501 16.4995 15.3844 16.3895 15.5138C16.1018 15.8517 16.1425 16.3593 16.4804 16.6471C16.4996 16.6635 16.5191 16.6785 16.5393 16.6926C16.8753 16.9294 17.3422 16.875 17.6138 16.5562C17.7452 16.4019 17.8733 16.2414 17.9953 16.0789C18.2619 15.7237 18.1897 15.2199 17.8349 14.9534Z" fill="#00AD68"/>
<path d="M19.0165 12.047C18.5928 11.9142 18.1416 12.1501 18.0089 12.5737C17.9581 12.7356 17.9017 12.8982 17.8409 13.0575C17.7074 13.4082 17.8354 13.794 18.1286 14.0007C18.1823 14.0385 18.2416 14.0706 18.3059 14.0949C18.7208 14.2532 19.1853 14.0451 19.3434 13.6301C19.4156 13.4407 19.4826 13.2472 19.5432 13.0547C19.6758 12.631 19.4401 12.1799 19.0165 12.047Z" fill="#00AD68"/>
<path d="M8.51241 18.3319C7.79358 18.2029 7.10402 17.9831 6.45016 17.6766C6.44242 17.6725 6.4355 17.6679 6.42737 17.6642C6.27329 17.5917 6.11946 17.514 5.97036 17.4328C5.96985 17.4322 5.9689 17.4319 5.96808 17.4315C5.69452 17.2809 5.42754 17.1142 5.16817 16.9316C1.38605 14.2674 0.476682 9.02283 3.14108 5.24075C3.72045 4.41865 4.42157 3.7328 5.20321 3.18921C5.21284 3.1825 5.22247 3.17583 5.23201 3.16908C7.9864 1.27123 11.7264 1.14333 14.6511 3.09355L14.023 4.00116C13.8483 4.25378 13.9558 4.43787 14.2615 4.41036L16.9901 4.16608C17.2962 4.13856 17.4793 3.87377 17.3969 3.57816L16.6642 0.938174C16.5822 0.642215 16.3722 0.606789 16.1974 0.859369L15.5677 1.76913C13.4214 0.328328 10.8471 -0.22107 8.2919 0.222008C8.03455 0.266548 7.78081 0.321063 7.53055 0.384519C7.52862 0.384863 7.52707 0.385078 7.52552 0.385422C7.51585 0.387787 7.50604 0.390925 7.49663 0.393548C5.29328 0.959369 3.37088 2.24445 1.99912 4.07798C1.98756 4.0917 1.97565 4.10511 1.96473 4.12003C1.91912 4.18147 1.87384 4.24432 1.82952 4.30718C1.75703 4.41019 1.68558 4.51577 1.61722 4.62136C1.60867 4.63409 1.60213 4.64703 1.59465 4.65988C0.462666 6.41401 -0.0833353 8.44196 0.0103018 10.5065C0.0105168 10.5133 0.0101299 10.5202 0.0103018 10.5271C0.0193732 10.7288 0.0353663 10.9333 0.0570774 11.1346C0.0582382 11.1475 0.0611187 11.1598 0.0633113 11.1728C0.0857533 11.3752 0.113913 11.5781 0.14921 11.781C0.507937 13.8505 1.48421 15.7128 2.9471 17.1619C2.9505 17.1653 2.95402 17.169 2.95746 17.1725C2.95867 17.1738 2.96 17.1745 2.96116 17.1757C3.3542 17.5634 3.78171 17.922 4.24203 18.2462C5.44667 19.095 6.78807 19.6561 8.22866 19.9146C8.66576 19.9932 9.0833 19.7022 9.16172 19.2653C9.2401 18.8281 8.94938 18.4102 8.51241 18.3319Z" fill="#435363"/>
<path d="M9.50673 3.5769C9.14719 3.5769 8.85596 3.86839 8.85596 4.22742V10.7084L14.7833 13.7725C14.8787 13.8219 14.9808 13.8451 15.0814 13.8451C15.3168 13.8451 15.5442 13.7169 15.6598 13.4932C15.8247 13.174 15.6999 12.7818 15.3806 12.6169L10.1568 9.9162V4.22742C10.1567 3.86839 9.86584 3.5769 9.50673 3.5769Z" fill="#435363"/>
</svg>
