<svg width="49" height="35" viewBox="0 0 49 35" fill="none" xmlns="http://www.w3.org/2000/svg">
<g clip-path="url(#clip0_927_3717)">
<path d="M19.2335 4.854C19.1124 4.854 18.9925 4.83015 18.8807 4.78382C18.7688 4.73748 18.6672 4.66957 18.5816 4.58395C18.4959 4.49834 18.428 4.3967 18.3817 4.28483C18.3354 4.17297 18.3115 4.05308 18.3115 3.932V0.923C18.3115 0.678205 18.4088 0.443437 18.5819 0.27034C18.7549 0.0972444 18.9897 0 19.2345 0C19.4793 0 19.7141 0.0972444 19.8872 0.27034C20.0603 0.443437 20.1575 0.678205 20.1575 0.923V3.93C20.1575 4.17453 20.0604 4.40904 19.8875 4.58195C19.7146 4.75486 19.48 4.852 19.2355 4.852L19.2335 4.854ZM30.3465 8.926L32.4715 6.783C32.6345 6.60719 32.7228 6.3749 32.7177 6.1352C32.7126 5.89551 32.6146 5.66717 32.4443 5.49842C32.274 5.32967 32.0448 5.23372 31.805 5.23085C31.5653 5.22797 31.3338 5.31839 31.1595 5.483L29.0345 7.628C28.8715 7.80381 28.7832 8.0361 28.7883 8.2758C28.7934 8.51549 28.8914 8.74383 29.0617 8.91258C29.232 9.08133 29.4613 9.17728 29.701 9.18015C29.9407 9.18303 30.1722 9.09261 30.3465 8.928V8.926ZM7.28451 31.988L9.41051 29.862C9.55806 29.6851 9.63411 29.4593 9.62371 29.2292C9.61331 28.999 9.51722 28.7811 9.35431 28.6182C9.1914 28.4553 8.97346 28.3592 8.74331 28.3488C8.51316 28.3384 8.28745 28.4144 8.11051 28.562L5.97851 30.682C5.83096 30.8589 5.75491 31.0847 5.76531 31.3148C5.77571 31.545 5.87181 31.7629 6.03471 31.9258C6.19762 32.0887 6.41556 32.1848 6.64571 32.1952C6.87586 32.2056 7.10158 32.1296 7.27851 31.982L7.28451 31.988ZM5.35251 18.733C5.35264 18.6119 5.32893 18.492 5.28271 18.3801C5.2365 18.2682 5.16869 18.1665 5.08317 18.0808C4.99765 17.995 4.89608 17.927 4.78427 17.8806C4.67246 17.8341 4.55259 17.8101 4.43151 17.81H1.42251C1.17772 17.81 0.942948 17.9072 0.769852 18.0803C0.596756 18.2534 0.499512 18.4882 0.499512 18.733C0.499512 18.9778 0.596756 19.2126 0.769852 19.3857C0.942948 19.5588 1.17772 19.656 1.42251 19.656H4.43051C4.55159 19.656 4.67148 19.6322 4.78335 19.5858C4.89521 19.5395 4.99685 19.4716 5.08246 19.386C5.16808 19.3003 5.23599 19.1987 5.28233 19.0868C5.32866 18.975 5.35251 18.8541 5.35251 18.733ZM9.40751 8.933C9.58149 8.76079 9.67994 8.52653 9.6812 8.28174C9.68245 8.03695 9.58642 7.80168 9.41421 7.6277L7.28651 5.482C7.11412 5.30815 6.87973 5.2099 6.6349 5.20887C6.39007 5.20784 6.15486 5.30411 5.98101 5.4765C5.80716 5.64889 5.70892 5.88328 5.70788 6.12811C5.70685 6.37294 5.80312 6.60815 5.97551 6.782L8.10051 8.927C8.27298 9.09866 8.50615 9.19545 8.74949 9.19638C8.99282 9.19732 9.22673 9.10233 9.40051 8.932L9.40751 8.933ZM44.9895 26.185C44.9895 25.9402 44.8923 25.7054 44.7192 25.5323C44.5461 25.3592 44.3113 25.262 44.0665 25.262C43.8217 25.262 43.5869 25.3592 43.4139 25.5323C43.2408 25.7054 43.1435 25.9402 43.1435 26.185C43.1427 26.869 42.8706 27.5248 42.3869 28.0084C41.9033 28.4921 41.2475 28.7642 40.5635 28.765C40.3187 28.765 40.0839 28.8622 39.9109 29.0353C39.7378 29.2084 39.6405 29.4432 39.6405 29.688C39.6405 29.9328 39.7378 30.1676 39.9109 30.3407C40.0839 30.5138 40.3187 30.611 40.5635 30.611C41.737 30.6099 42.8622 30.1433 43.692 29.3135C44.5218 28.4837 44.9885 27.3585 44.9895 26.185ZM48.4975 26.185C48.4954 28.2889 47.6587 30.3059 46.1711 31.7936C44.6834 33.2812 42.6664 34.1179 40.5625 34.12H20.3175C18.6286 34.1181 17.0094 33.4461 15.8156 32.2513C14.6219 31.0566 13.951 29.4369 13.9505 27.748C13.9421 26.8573 14.1224 25.9749 14.4795 25.1589C14.8366 24.3428 15.3625 23.6117 16.0226 23.0135C16.6826 22.4154 17.4618 21.9637 18.309 21.6884C19.1561 21.4131 20.0519 21.3202 20.9375 21.416C21.1683 19.6702 21.8755 18.0217 22.9816 16.6514C24.0876 15.2811 25.5497 14.242 27.2075 13.648C26.4977 12.5376 25.5639 11.5876 24.4658 10.8588C23.3678 10.1301 22.1297 9.6386 20.8307 9.41588C19.5318 9.19316 18.2007 9.24411 16.9225 9.56544C15.6444 9.88678 14.4475 10.4714 13.4083 11.282C12.3692 12.0925 11.5107 13.1111 10.8878 14.2725C10.265 15.434 9.8915 16.7126 9.79127 18.0267C9.69104 19.3408 9.86627 20.6613 10.3058 21.9038C10.7453 23.1462 11.4393 24.2832 12.3435 25.242C12.5111 25.4188 12.602 25.6547 12.5963 25.8982C12.5907 26.1417 12.4891 26.3731 12.3135 26.542C12.1349 26.7108 11.897 26.8023 11.6513 26.7967C11.4057 26.791 11.1722 26.6888 11.0015 26.512C9.89542 25.3485 9.04954 23.963 8.52007 22.4475C7.99059 20.932 7.78963 19.3211 7.93054 17.722C8.07145 16.1228 8.551 14.5719 9.33734 13.1724C10.1237 11.7728 11.1988 10.5565 12.4913 9.60441C13.7838 8.65227 15.2641 7.98604 16.8339 7.64997C18.4037 7.3139 20.027 7.31568 21.5961 7.65519C23.1651 7.9947 24.6439 8.66417 25.9344 9.61914C27.2248 10.5741 28.2972 11.7927 29.0805 13.194C31.0684 12.9019 33.0976 13.2545 34.8705 14.2001C36.6434 15.1456 38.0666 16.6344 38.9315 18.448C39.4668 18.3219 40.0146 18.2571 40.5645 18.255C42.6679 18.2566 44.6848 19.0925 46.1726 20.5794C47.6604 22.0662 48.4976 24.0826 48.5005 26.186L48.4975 26.185ZM46.6515 26.185C46.6483 24.5713 46.0059 23.0247 44.8649 21.8836C43.7238 20.7426 42.1772 20.1002 40.5635 20.097C39.9256 20.1072 39.2935 20.2186 38.6905 20.427C38.4656 20.4999 38.2214 20.484 38.0079 20.3825C37.7944 20.2809 37.6278 20.1015 37.5425 19.881C36.9952 18.4262 36.0164 17.1733 34.7374 16.29C33.4583 15.4068 31.9399 14.9354 30.3855 14.939C28.3649 14.9469 26.4281 15.7477 24.9919 17.169C23.5556 18.5903 22.7346 20.5186 22.7055 22.539C22.7034 22.6804 22.669 22.8194 22.6049 22.9454C22.5408 23.0715 22.4486 23.1811 22.3355 23.266C22.2229 23.3512 22.092 23.4091 21.9532 23.4351C21.8143 23.4611 21.6714 23.4546 21.5355 23.416C20.9147 23.2406 20.2634 23.2003 19.6257 23.298C18.988 23.3957 18.3787 23.6291 17.8388 23.9823C17.299 24.3356 16.8412 24.8006 16.4963 25.3458C16.1515 25.8911 15.9276 26.504 15.8398 27.1431C15.752 27.7823 15.8023 28.4328 15.9874 29.0508C16.1724 29.6689 16.4879 30.2401 16.9125 30.7258C17.3371 31.2115 17.8609 31.6006 18.4486 31.8666C19.0364 32.1327 19.6744 32.2695 20.3195 32.268H40.5645C42.1782 32.2648 43.7248 31.6224 44.8659 30.4814C46.0069 29.3403 46.6493 27.7937 46.6525 26.18L46.6515 26.185Z" fill="#00AD68"/>
<path d="M19.2335 4.854C19.1124 4.854 18.9925 4.83015 18.8807 4.78382C18.7688 4.73748 18.6672 4.66957 18.5816 4.58395C18.4959 4.49834 18.428 4.3967 18.3817 4.28483C18.3354 4.17297 18.3115 4.05308 18.3115 3.932V0.923C18.3115 0.678205 18.4088 0.443437 18.5819 0.27034C18.7549 0.0972444 18.9897 0 19.2345 0C19.4793 0 19.7141 0.0972444 19.8872 0.27034C20.0603 0.443437 20.1575 0.678205 20.1575 0.923V3.93C20.1575 4.17453 20.0604 4.40904 19.8875 4.58195C19.7146 4.75486 19.48 4.852 19.2355 4.852L19.2335 4.854ZM30.3465 8.926L32.4715 6.783C32.6345 6.60719 32.7228 6.3749 32.7177 6.1352C32.7126 5.89551 32.6146 5.66717 32.4443 5.49842C32.274 5.32967 32.0448 5.23372 31.805 5.23085C31.5653 5.22797 31.3338 5.31839 31.1595 5.483L29.0345 7.628C28.8715 7.80381 28.7832 8.0361 28.7883 8.2758C28.7934 8.51549 28.8914 8.74383 29.0617 8.91258C29.232 9.08133 29.4613 9.17728 29.701 9.18015C29.9407 9.18303 30.1722 9.09261 30.3465 8.928V8.926ZM7.28451 31.988L9.41051 29.862C9.55806 29.6851 9.63411 29.4593 9.62371 29.2292C9.61331 28.999 9.51722 28.7811 9.35431 28.6182C9.1914 28.4553 8.97346 28.3592 8.74331 28.3488C8.51316 28.3384 8.28745 28.4144 8.11051 28.562L5.97851 30.682C5.83096 30.8589 5.75491 31.0847 5.76531 31.3148C5.77571 31.545 5.87181 31.7629 6.03471 31.9258C6.19762 32.0887 6.41556 32.1848 6.64571 32.1952C6.87586 32.2056 7.10158 32.1296 7.27851 31.982L7.28451 31.988ZM5.35251 18.733C5.35264 18.6119 5.32893 18.492 5.28271 18.3801C5.2365 18.2682 5.16869 18.1665 5.08317 18.0808C4.99765 17.995 4.89608 17.927 4.78427 17.8806C4.67246 17.8341 4.55259 17.8101 4.43151 17.81H1.42251C1.17772 17.81 0.942948 17.9072 0.769852 18.0803C0.596756 18.2534 0.499512 18.4882 0.499512 18.733C0.499512 18.9778 0.596756 19.2126 0.769852 19.3857C0.942948 19.5588 1.17772 19.656 1.42251 19.656H4.43051C4.55159 19.656 4.67148 19.6322 4.78335 19.5858C4.89521 19.5395 4.99685 19.4716 5.08246 19.386C5.16808 19.3003 5.23599 19.1987 5.28233 19.0868C5.32866 18.975 5.35251 18.8541 5.35251 18.733ZM9.40751 8.933C9.58149 8.76079 9.67994 8.52653 9.6812 8.28174C9.68245 8.03695 9.58642 7.80168 9.41421 7.6277L7.28651 5.482C7.11412 5.30815 6.87973 5.2099 6.6349 5.20887C6.39007 5.20784 6.15486 5.30411 5.98101 5.4765C5.80716 5.64889 5.70892 5.88328 5.70788 6.12811C5.70685 6.37294 5.80312 6.60815 5.97551 6.782L8.10051 8.927C8.27298 9.09866 8.50615 9.19545 8.74949 9.19638C8.99282 9.19732 9.22673 9.10233 9.40051 8.932L9.40751 8.933ZM44.9895 26.185C44.9895 25.9402 44.8923 25.7054 44.7192 25.5323C44.5461 25.3592 44.3113 25.262 44.0665 25.262C43.8217 25.262 43.5869 25.3592 43.4139 25.5323C43.2408 25.7054 43.1435 25.9402 43.1435 26.185C43.1427 26.869 42.8706 27.5248 42.3869 28.0084C41.9033 28.4921 41.2475 28.7642 40.5635 28.765C40.3187 28.765 40.0839 28.8622 39.9109 29.0353C39.7378 29.2084 39.6405 29.4432 39.6405 29.688C39.6405 29.9328 39.7378 30.1676 39.9109 30.3407C40.0839 30.5138 40.3187 30.611 40.5635 30.611C41.737 30.6099 42.8622 30.1433 43.692 29.3135C44.5218 28.4837 44.9885 27.3585 44.9895 26.185Z" fill="#CD9D35"/>
</g>
<defs>
<clipPath id="clip0_927_3717">
<rect width="48.001" height="34.12" fill="white" transform="translate(0.499512)"/>
</clipPath>
</defs>
</svg>
